M48
;DRILL file {Pcbnew (2013-11-03 BZR 4430)-product} date Fri 08 Nov 2013 11:28:18 PM CST
;FORMAT={2:4/ absolute / inch / keep zeros}
FMAT,2
INCH,TZ
T1C0.014
T2C0.032
T3C0.040
%
G90
G05
M72
T1
X041750Y-042250
X042520Y-044626
X043071Y-042323
X043189Y-042992
X043225Y-039950
X043386Y-040984
X043475Y-043825
X043504Y-040394
X044803Y-038976
X045118Y-040000
X045177Y-040984
X046260Y-039724
X046634Y-041693
X046831Y-037913
X047047Y-040295
X047350Y-044675
X047677Y-041181
X047992Y-038780
X048189Y-040827
X048780Y-037894
X049567Y-042756
X049724Y-045315
X050157Y-041772
X050177Y-036831
X050256Y-041358
X050276Y-043071
X050350Y-044125
X050413Y-039803
X050900Y-039856
X052050Y-037650
X052244Y-043346
X052340Y-037500
X052550Y-040550
X052650Y-037550
X053268Y-044646
X053350Y-041350
X053386Y-045177
X053780Y-040840
X054311Y-043130
X054409Y-037559
X054409Y-038268
X054567Y-040827
X054803Y-041772
X054882Y-041142
X055050Y-044200
X055118Y-045630
X055354Y-044409
X055375Y-037750
X055850Y-037725
X056300Y-045425
X056339Y-037559
X056339Y-040157
X056339Y-040384
X056339Y-040610
X056339Y-040837
X056339Y-044409
X056663Y-040157
X056663Y-040384
X056663Y-040610
X056663Y-040837
X056775Y-037625
X057075Y-037475
X057140Y-039180
X057140Y-039420
X057160Y-043800
X057360Y-042840
X057520Y-036673
X057840Y-042840
X058200Y-045400
X058445Y-040335
X058720Y-042008
X058740Y-041496
X058940Y-043920
X059300Y-044825
X059764Y-041496
X059800Y-036675
X060225Y-037525
X060350Y-045275
X060360Y-044520
X060560Y-043620
X060709Y-040984
T2
X047728Y-040394
X048728Y-040394
X050575Y-045315
X052575Y-045315
T3
X042094Y-036941
X042094Y-037941
X043094Y-036941
X043094Y-037941
X044094Y-036941
X044094Y-037941
X045094Y-036941
X045094Y-037941
X046094Y-036941
X046094Y-037941
T0
M30
