%FSLAX34Y34*%
G04 Gerber Fmt 3.4, Leading zero omitted, Abs format*
G04 (created by PCBNEW (2013-11-03 BZR 4430)-product) date Fri 08 Nov 2013 11:28:15 PM CST*
%MOIN*%
G01*
G70*
G90*
G04 APERTURE LIST*
%ADD10C,0.005906*%
%ADD11R,0.024000X0.068000*%
%ADD12R,0.068000X0.024000*%
%ADD13R,0.038000X0.028000*%
%ADD14R,0.033000X0.053000*%
%ADD15R,0.053000X0.033000*%
%ADD16R,0.063000X0.063000*%
%ADD17C,0.063000*%
%ADD18R,0.068000X0.068000*%
%ADD19C,0.068000*%
%ADD20R,0.055900X0.018500*%
%ADD21R,0.043000X0.063000*%
%ADD22R,0.063000X0.043000*%
%ADD23R,0.053000X0.028000*%
%ADD24R,0.031622X0.031622*%
%ADD25R,0.047370X0.043433*%
%ADD26O,0.012643X0.038233*%
%ADD27O,0.038233X0.012643*%
%ADD28R,0.035559X0.035559*%
%ADD29O,0.034296X0.012643*%
%ADD30O,0.039496X0.017843*%
%ADD31O,0.012643X0.034296*%
G04 APERTURE END LIST*
G54D10*
G54D11*
X53149Y-39521D03*
X52834Y-39521D03*
X52519Y-39521D03*
X52204Y-39521D03*
X51889Y-39521D03*
X51574Y-39521D03*
X53464Y-39521D03*
X53779Y-39521D03*
X54094Y-39521D03*
X54409Y-39521D03*
X54724Y-39521D03*
X53149Y-44021D03*
X52834Y-44021D03*
X52519Y-44021D03*
X52204Y-44021D03*
X51889Y-44021D03*
X51574Y-44021D03*
X53464Y-44021D03*
X53779Y-44021D03*
X54094Y-44021D03*
X54409Y-44021D03*
X54724Y-44021D03*
G54D12*
X50899Y-41771D03*
X55399Y-41771D03*
X50899Y-42086D03*
X55399Y-42086D03*
X55399Y-42401D03*
X50899Y-42401D03*
X50899Y-42716D03*
X55399Y-42716D03*
X55399Y-43031D03*
X50899Y-43031D03*
X50899Y-43346D03*
X55399Y-43346D03*
X55399Y-41456D03*
X50899Y-41456D03*
X50899Y-41141D03*
X55399Y-41141D03*
X55399Y-40826D03*
X50899Y-40826D03*
X50899Y-40511D03*
X55399Y-40511D03*
X55399Y-40196D03*
X50899Y-40196D03*
G54D13*
X42019Y-44152D03*
X42019Y-44902D03*
X43019Y-44152D03*
X42019Y-44527D03*
X43019Y-44902D03*
G54D14*
X59620Y-43280D03*
X59020Y-43280D03*
G54D15*
X50846Y-37425D03*
X50846Y-36825D03*
G54D14*
X49880Y-44520D03*
X49280Y-44520D03*
G54D15*
X48350Y-42075D03*
X48350Y-42675D03*
X56299Y-41471D03*
X56299Y-42071D03*
G54D14*
X44000Y-39409D03*
X43400Y-39409D03*
X46362Y-40196D03*
X45762Y-40196D03*
X42819Y-43346D03*
X42219Y-43346D03*
X41650Y-41750D03*
X42250Y-41750D03*
X41650Y-41100D03*
X42250Y-41100D03*
X46362Y-40984D03*
X45762Y-40984D03*
X44788Y-41771D03*
X44188Y-41771D03*
X44188Y-42559D03*
X44788Y-42559D03*
G54D15*
X48350Y-43250D03*
X48350Y-43850D03*
G54D14*
X50743Y-38818D03*
X51343Y-38818D03*
G54D15*
X46811Y-38774D03*
X46811Y-39374D03*
X44094Y-44227D03*
X44094Y-44827D03*
X49586Y-40093D03*
X49586Y-40693D03*
X54724Y-44719D03*
X54724Y-45319D03*
X53937Y-45014D03*
X53937Y-45614D03*
G54D14*
X56599Y-38228D03*
X55999Y-38228D03*
X54818Y-37047D03*
X55418Y-37047D03*
X55999Y-37047D03*
X56599Y-37047D03*
X55418Y-38228D03*
X54818Y-38228D03*
X52662Y-38228D03*
X52062Y-38228D03*
X53843Y-38228D03*
X53243Y-38228D03*
X52062Y-37047D03*
X52662Y-37047D03*
X53341Y-37047D03*
X53941Y-37047D03*
G54D16*
X48728Y-40393D03*
G54D17*
X47728Y-40393D03*
X50574Y-45314D03*
X52574Y-45314D03*
G54D18*
X46094Y-36940D03*
G54D19*
X46094Y-37940D03*
X45094Y-36940D03*
X45094Y-37940D03*
X44094Y-36940D03*
X44094Y-37940D03*
X43094Y-36940D03*
X43094Y-37940D03*
X42094Y-36940D03*
X42094Y-37940D03*
G54D14*
X60075Y-38400D03*
X60675Y-38400D03*
G54D15*
X57165Y-37180D03*
X57165Y-37780D03*
X60675Y-37025D03*
X60675Y-37625D03*
G54D20*
X44546Y-40974D03*
X44546Y-40718D03*
X44546Y-40462D03*
X44546Y-40206D03*
X42854Y-40206D03*
X42854Y-40462D03*
X42854Y-40718D03*
X42854Y-40974D03*
G54D21*
X55975Y-43800D03*
X56725Y-43800D03*
G54D22*
X57874Y-37855D03*
X57874Y-37105D03*
X60350Y-44900D03*
X60350Y-44150D03*
G54D14*
X55762Y-39586D03*
X56362Y-39586D03*
G54D15*
X51791Y-45418D03*
X51791Y-44818D03*
G54D14*
X49266Y-41299D03*
X49866Y-41299D03*
G54D23*
X50157Y-37399D03*
X50157Y-37899D03*
X50157Y-38399D03*
X50157Y-38899D03*
X47480Y-38899D03*
X47480Y-38399D03*
X47480Y-37899D03*
X47480Y-37399D03*
X60155Y-42484D03*
X60155Y-41984D03*
X60155Y-41484D03*
X60155Y-40984D03*
X60155Y-40484D03*
X60155Y-39984D03*
X60155Y-39484D03*
X58055Y-39484D03*
X58055Y-39984D03*
X58055Y-40484D03*
X58055Y-40984D03*
X58055Y-41484D03*
X58055Y-41984D03*
X58055Y-42484D03*
G54D15*
X58460Y-43960D03*
X58460Y-43360D03*
G54D14*
X56680Y-43040D03*
X56080Y-43040D03*
G54D24*
X43650Y-42583D03*
X43650Y-41716D03*
G54D25*
X49848Y-43269D03*
X49001Y-43269D03*
X49001Y-43880D03*
X49848Y-43880D03*
G54D20*
X57538Y-45206D03*
X57538Y-44950D03*
X57538Y-44694D03*
X57538Y-44438D03*
X55846Y-44438D03*
X55846Y-44694D03*
X55846Y-44950D03*
X55846Y-45206D03*
G54D26*
X58956Y-38070D03*
X58759Y-38070D03*
X59153Y-38070D03*
X59350Y-38070D03*
X59350Y-36811D03*
X59153Y-36811D03*
X58759Y-36811D03*
X58956Y-36811D03*
G54D27*
X58425Y-37342D03*
X58425Y-37145D03*
X58425Y-37539D03*
X58425Y-37736D03*
X59685Y-37736D03*
X59685Y-37539D03*
X59685Y-37145D03*
X59685Y-37342D03*
G54D28*
X59192Y-37578D03*
X58917Y-37578D03*
X58917Y-37303D03*
X59192Y-37303D03*
G54D29*
X58443Y-44628D03*
X58443Y-44825D03*
X58439Y-45021D03*
X58443Y-45218D03*
X58443Y-44431D03*
X59620Y-44431D03*
X59620Y-45218D03*
G54D30*
X59616Y-45021D03*
G54D29*
X59620Y-44825D03*
X59620Y-44628D03*
G54D31*
X58853Y-44254D03*
X59050Y-44254D03*
X59246Y-44254D03*
X59246Y-45395D03*
X59050Y-45395D03*
X58853Y-45395D03*
M02*
