%FSLAX34Y34*%
G04 Gerber Fmt 3.4, Leading zero omitted, Abs format*
G04 (created by PCBNEW (2013-11-03 BZR 4430)-product) date Fri 08 Nov 2013 11:28:15 PM CST*
%MOIN*%
G01*
G70*
G90*
G04 APERTURE LIST*
%ADD10C,0.005906*%
%ADD11R,0.030000X0.020000*%
%ADD12R,0.020000X0.030000*%
%ADD13R,0.070900X0.106300*%
%ADD14R,0.035000X0.055000*%
%ADD15R,0.045000X0.025000*%
%ADD16R,0.025000X0.045000*%
%ADD17R,0.055000X0.055000*%
%ADD18C,0.055000*%
%ADD19R,0.047200X0.047200*%
%ADD20R,0.060000X0.060000*%
%ADD21C,0.060000*%
%ADD22R,0.050000X0.100000*%
%ADD23R,0.055000X0.035000*%
%ADD24R,0.036000X0.036000*%
%ADD25R,0.157480X0.059055*%
%ADD26R,0.023622X0.023622*%
%ADD27R,0.082677X0.055118*%
%ADD28R,0.055118X0.031220*%
%ADD29O,0.031496X0.009843*%
%ADD30O,0.035039X0.009843*%
%ADD31C,0.021654*%
%ADD32C,0.019685*%
%ADD33C,0.006890*%
%ADD34C,0.039370*%
%ADD35C,0.029528*%
%ADD36C,0.009843*%
%ADD37C,0.059055*%
G04 APERTURE END LIST*
G54D10*
G54D11*
X55877Y-45079D03*
X55877Y-44329D03*
X56877Y-45079D03*
X55877Y-44704D03*
X56877Y-44329D03*
G54D12*
X46967Y-44224D03*
X47717Y-44224D03*
X46967Y-45224D03*
X47342Y-44224D03*
X47717Y-45224D03*
G54D13*
X45413Y-42066D03*
X47303Y-42066D03*
X46020Y-45175D03*
X44130Y-45175D03*
G54D14*
X41750Y-39409D03*
X42500Y-39409D03*
X41750Y-43346D03*
X42500Y-43346D03*
G54D15*
X57060Y-38780D03*
X57060Y-38180D03*
X56360Y-42080D03*
X56360Y-41480D03*
X46450Y-43200D03*
X46450Y-43800D03*
X44100Y-43925D03*
X44100Y-43325D03*
G54D16*
X55240Y-41560D03*
X55840Y-41560D03*
G54D15*
X55240Y-42860D03*
X55240Y-42260D03*
X57100Y-41480D03*
X57100Y-42080D03*
X55314Y-40192D03*
X55314Y-40792D03*
G54D16*
X47100Y-43250D03*
X47700Y-43250D03*
X48375Y-44475D03*
X48975Y-44475D03*
G54D15*
X57480Y-45078D03*
X57480Y-45678D03*
G54D17*
X48728Y-40393D03*
G54D18*
X47728Y-40393D03*
G54D19*
X42538Y-41377D03*
X41712Y-41377D03*
G54D18*
X50574Y-45314D03*
X52574Y-45314D03*
G54D20*
X46094Y-36940D03*
G54D21*
X46094Y-37940D03*
X45094Y-36940D03*
X45094Y-37940D03*
X44094Y-36940D03*
X44094Y-37940D03*
X43094Y-36940D03*
X43094Y-37940D03*
X42094Y-36940D03*
X42094Y-37940D03*
G54D22*
X51977Y-41732D03*
X50777Y-41732D03*
G54D14*
X46165Y-40980D03*
X46915Y-40980D03*
X55325Y-39440D03*
X56075Y-39440D03*
X48443Y-45216D03*
X49193Y-45216D03*
X58975Y-45433D03*
X59725Y-45433D03*
G54D15*
X58120Y-44260D03*
X58120Y-44860D03*
G54D23*
X54429Y-45532D03*
X54429Y-44782D03*
X57840Y-40405D03*
X57840Y-41155D03*
X53346Y-41810D03*
X53346Y-42560D03*
G54D14*
X59882Y-40826D03*
X59132Y-40826D03*
G54D24*
X60010Y-44000D03*
X59310Y-44000D03*
X59660Y-44800D03*
G54D15*
X58760Y-44860D03*
X58760Y-44260D03*
G54D25*
X58346Y-38287D03*
X58346Y-39704D03*
X54015Y-40216D03*
X54015Y-38799D03*
G54D26*
X49283Y-38900D03*
X48416Y-38900D03*
X47736Y-39350D03*
X47736Y-38484D03*
X48591Y-41375D03*
X49458Y-41375D03*
X50125Y-39366D03*
X50125Y-40233D03*
X45733Y-43600D03*
X44866Y-43600D03*
G54D27*
X59940Y-38273D03*
X59940Y-40006D03*
G54D28*
X56500Y-40187D03*
X56500Y-40500D03*
G54D29*
X57090Y-40106D03*
X57090Y-40303D03*
G54D30*
X57090Y-40500D03*
G54D29*
X57090Y-40696D03*
X57090Y-40893D03*
X55909Y-40893D03*
X55909Y-40696D03*
X55909Y-40500D03*
X55909Y-40303D03*
X55909Y-40106D03*
G54D28*
X56500Y-40812D03*
G54D31*
X57360Y-42840D03*
X58940Y-43920D03*
X43188Y-42992D03*
X53350Y-41350D03*
X50255Y-41358D03*
X46259Y-39724D03*
X43503Y-40393D03*
X57840Y-42840D03*
X60560Y-43620D03*
X52340Y-37500D03*
X57075Y-37475D03*
X60708Y-40984D03*
X55118Y-45629D03*
X55354Y-44409D03*
X60360Y-44520D03*
X56338Y-40157D03*
X56663Y-40157D03*
X57140Y-39180D03*
X57140Y-39420D03*
X58720Y-42007D03*
X54803Y-41771D03*
X57519Y-36673D03*
X42519Y-44625D03*
X52050Y-37650D03*
X50177Y-36830D03*
X47992Y-38779D03*
X47047Y-40295D03*
X46633Y-41692D03*
X60350Y-45275D03*
X56338Y-44409D03*
X45118Y-40000D03*
X53267Y-44645D03*
X52550Y-40550D03*
X50350Y-44125D03*
X60225Y-37525D03*
X47350Y-44675D03*
X56338Y-40610D03*
X56663Y-40836D03*
X50157Y-41771D03*
X56338Y-40836D03*
X56663Y-40610D03*
X56663Y-40383D03*
X56338Y-40383D03*
X49724Y-45314D03*
X54409Y-37559D03*
X54409Y-38267D03*
X52244Y-43346D03*
X41750Y-42250D03*
X55375Y-37750D03*
X56775Y-37625D03*
X59800Y-36675D03*
X54311Y-43129D03*
X53385Y-45177D03*
X43225Y-39950D03*
X45177Y-40984D03*
X43070Y-42322D03*
X43385Y-40984D03*
X50899Y-39856D03*
X46830Y-37913D03*
X48779Y-37893D03*
X50413Y-39803D03*
X58200Y-45400D03*
X56300Y-45425D03*
X55050Y-44200D03*
X59300Y-44825D03*
X54881Y-41141D03*
X54566Y-40826D03*
X43475Y-43825D03*
X44803Y-38976D03*
X57160Y-43800D03*
X56338Y-37559D03*
X58740Y-41496D03*
X58444Y-40334D03*
X55850Y-37725D03*
X59763Y-41496D03*
X52650Y-37550D03*
X47677Y-41181D03*
X49566Y-42755D03*
X50275Y-43070D03*
X48188Y-40826D03*
X53780Y-40840D03*
G54D32*
X46165Y-40980D02*
X46165Y-42585D01*
X46450Y-42870D02*
X46450Y-43200D01*
X46165Y-42585D02*
X46450Y-42870D01*
X44980Y-41279D02*
X45380Y-41279D01*
X43543Y-42874D02*
X44822Y-41594D01*
X44822Y-41594D02*
X44822Y-41437D01*
X44822Y-41437D02*
X44980Y-41279D01*
X43188Y-42992D02*
X43425Y-42992D01*
X43543Y-42874D02*
X43425Y-42992D01*
X45680Y-40980D02*
X46165Y-40980D01*
X45380Y-41279D02*
X45680Y-40980D01*
X53346Y-41810D02*
X53346Y-41353D01*
G54D33*
X53346Y-41353D02*
X53350Y-41350D01*
G54D32*
X46450Y-43200D02*
X45950Y-43200D01*
X45733Y-43416D02*
X45950Y-43200D01*
X45733Y-43600D02*
X45733Y-43416D01*
X46450Y-43200D02*
X47050Y-43200D01*
X47050Y-43200D02*
X47100Y-43250D01*
X59660Y-44800D02*
X60500Y-44800D01*
X60500Y-44800D02*
X60640Y-44660D01*
X60640Y-44660D02*
X60640Y-43700D01*
X60640Y-43700D02*
X60560Y-43620D01*
X59780Y-44400D02*
X59460Y-44400D01*
X58980Y-44860D02*
X58760Y-44860D01*
X59020Y-44900D02*
X58980Y-44860D01*
X59020Y-44720D02*
X59020Y-44900D01*
X59200Y-44540D02*
X59020Y-44720D01*
X59320Y-44540D02*
X59200Y-44540D01*
X59460Y-44400D02*
X59320Y-44540D01*
X58760Y-44860D02*
X58120Y-44860D01*
X60010Y-44000D02*
X60010Y-44170D01*
X60010Y-44170D02*
X59780Y-44400D01*
X60240Y-44400D02*
X59780Y-44400D01*
X60360Y-44520D02*
X60240Y-44400D01*
G54D33*
X56496Y-40179D02*
X56368Y-40187D01*
X56368Y-40187D02*
X56338Y-40157D01*
X56496Y-40179D02*
X56633Y-40187D01*
X56633Y-40187D02*
X56663Y-40157D01*
G54D34*
X57840Y-40405D02*
X57840Y-40020D01*
X57840Y-40020D02*
X58040Y-39820D01*
X58040Y-39820D02*
X58346Y-39704D01*
X57840Y-40405D02*
X57840Y-39700D01*
X57840Y-39700D02*
X58346Y-39704D01*
G54D32*
X57840Y-40405D02*
X57840Y-40172D01*
X57840Y-40172D02*
X57341Y-39673D01*
X57341Y-39673D02*
X57341Y-39604D01*
G54D35*
X57140Y-39402D02*
X57341Y-39604D01*
X57341Y-39604D02*
X57376Y-39639D01*
X57140Y-39180D02*
X57140Y-39402D01*
X58280Y-39639D02*
X58346Y-39704D01*
X57376Y-39639D02*
X58280Y-39639D01*
G54D34*
X59132Y-40826D02*
X59132Y-39787D01*
X59050Y-39704D02*
X58346Y-39704D01*
X59132Y-39787D02*
X59050Y-39704D01*
X59132Y-40826D02*
X59132Y-40372D01*
X59132Y-40372D02*
X58464Y-39704D01*
X58464Y-39704D02*
X58346Y-39704D01*
G54D32*
X56075Y-39440D02*
X56075Y-39865D01*
X55909Y-40030D02*
X55909Y-40216D01*
X56075Y-39865D02*
X55909Y-40030D01*
G54D35*
X57140Y-39180D02*
X57200Y-39180D01*
X57200Y-39180D02*
X57679Y-39659D01*
X57679Y-39659D02*
X58346Y-39704D01*
G54D36*
X56360Y-41480D02*
X55920Y-41480D01*
X55920Y-41480D02*
X55840Y-41560D01*
X56360Y-41480D02*
X56360Y-41140D01*
X56360Y-41140D02*
X56360Y-40952D01*
X56360Y-40952D02*
X56500Y-40812D01*
G54D35*
X55909Y-40216D02*
X56471Y-40216D01*
X56471Y-40216D02*
X56500Y-40187D01*
G54D32*
X47736Y-38484D02*
X47913Y-38484D01*
X47992Y-38562D02*
X47992Y-38779D01*
X47913Y-38484D02*
X47992Y-38562D01*
X46949Y-40392D02*
X47047Y-40295D01*
X46949Y-40392D02*
X46949Y-40984D01*
X47303Y-42066D02*
X46929Y-42066D01*
X46633Y-41771D02*
X46633Y-41692D01*
X46929Y-42066D02*
X46633Y-41771D01*
X54429Y-44782D02*
X55217Y-44782D01*
X55295Y-44704D02*
X55877Y-44704D01*
X55217Y-44782D02*
X55295Y-44704D01*
X59725Y-45433D02*
X60191Y-45433D01*
X60191Y-45433D02*
X60350Y-45275D01*
X55877Y-44704D02*
X55877Y-44329D01*
X55877Y-44329D02*
X55957Y-44409D01*
X55957Y-44409D02*
X56338Y-44409D01*
X47342Y-44224D02*
X47342Y-44667D01*
X47342Y-44667D02*
X47350Y-44675D01*
G54D36*
X55909Y-40106D02*
X55909Y-40216D01*
X55909Y-40216D02*
X55909Y-40303D01*
G54D33*
X56338Y-40610D02*
X56496Y-40492D01*
X56663Y-40836D02*
X56496Y-40804D01*
G54D34*
X50157Y-41771D02*
X49571Y-41771D01*
X49458Y-41658D02*
X49458Y-41375D01*
X49571Y-41771D02*
X49458Y-41658D01*
X50157Y-41771D02*
X50738Y-41771D01*
X50738Y-41771D02*
X50777Y-41732D01*
X49193Y-45216D02*
X49193Y-44693D01*
X49193Y-44693D02*
X48975Y-44475D01*
G54D32*
X41750Y-42924D02*
X41750Y-43346D01*
X42050Y-42625D02*
X41750Y-42924D01*
G54D33*
X56496Y-40804D02*
X56359Y-40815D01*
X56359Y-40815D02*
X56338Y-40836D01*
X56663Y-40610D02*
X56496Y-40492D01*
X56496Y-40492D02*
X56582Y-40492D01*
X56582Y-40492D02*
X56663Y-40383D01*
X56338Y-40383D02*
X56496Y-40492D01*
G54D32*
X41712Y-41377D02*
X41712Y-41762D01*
X41712Y-41762D02*
X42050Y-42100D01*
X42050Y-42100D02*
X42050Y-42625D01*
G54D34*
X49193Y-45216D02*
X49625Y-45216D01*
G54D36*
X49625Y-45216D02*
X49724Y-45314D01*
G54D32*
X41750Y-39409D02*
X41750Y-38997D01*
X43413Y-38622D02*
X44094Y-37940D01*
X42125Y-38622D02*
X43413Y-38622D01*
X41750Y-38997D02*
X42125Y-38622D01*
X41750Y-39409D02*
X41750Y-41339D01*
X41750Y-41339D02*
X41712Y-41377D01*
X57840Y-41155D02*
X57670Y-41155D01*
X57303Y-40590D02*
X57090Y-40590D01*
X57421Y-40708D02*
X57303Y-40590D01*
X57421Y-40905D02*
X57421Y-40708D01*
X57670Y-41155D02*
X57421Y-40905D01*
G54D34*
X51977Y-40402D02*
X51977Y-40402D01*
X52980Y-39440D02*
X55325Y-39440D01*
X52940Y-39440D02*
X52980Y-39440D01*
X51977Y-40402D02*
X52940Y-39440D01*
G54D36*
X57090Y-40500D02*
X57090Y-40590D01*
X57090Y-40590D02*
X57090Y-40600D01*
X57090Y-40600D02*
X57090Y-40696D01*
G54D32*
X57840Y-42120D02*
X57840Y-41155D01*
X51977Y-41732D02*
X52407Y-41732D01*
X52407Y-41732D02*
X53100Y-41040D01*
X53100Y-41040D02*
X53600Y-41040D01*
X53600Y-41040D02*
X53900Y-41340D01*
X53900Y-41340D02*
X53900Y-42140D01*
X53900Y-42140D02*
X54320Y-42560D01*
X54320Y-42560D02*
X57400Y-42560D01*
X57400Y-42560D02*
X57676Y-42283D01*
X57676Y-42283D02*
X57840Y-42120D01*
G54D36*
X55909Y-40500D02*
X55720Y-40500D01*
X55552Y-40192D02*
X55314Y-40192D01*
X55620Y-40260D02*
X55552Y-40192D01*
X55620Y-40400D02*
X55620Y-40260D01*
X55720Y-40500D02*
X55620Y-40400D01*
G54D32*
X55314Y-40192D02*
X55314Y-39450D01*
X55314Y-39450D02*
X55325Y-39440D01*
G54D34*
X51977Y-41732D02*
X51977Y-42607D01*
X51977Y-42607D02*
X51977Y-43080D01*
X51977Y-43080D02*
X52244Y-43346D01*
X50125Y-39366D02*
X50941Y-39366D01*
X51425Y-39850D02*
X51977Y-40402D01*
X51977Y-40402D02*
X51977Y-40442D01*
X50941Y-39366D02*
X51425Y-39850D01*
X51977Y-40442D02*
X51977Y-41732D01*
G54D32*
X49283Y-38900D02*
X49350Y-38900D01*
G54D34*
X49816Y-39366D02*
X50125Y-39366D01*
X49350Y-38900D02*
X49816Y-39366D01*
G54D32*
X57480Y-45678D02*
X58455Y-45678D01*
X58700Y-45433D02*
X58975Y-45433D01*
X58455Y-45678D02*
X58700Y-45433D01*
G54D36*
X57100Y-42080D02*
X56360Y-42080D01*
G54D35*
X57086Y-38784D02*
X56314Y-38784D01*
G54D32*
X56314Y-38784D02*
X56299Y-38799D01*
G54D34*
X57090Y-40106D02*
X57090Y-39925D01*
X57090Y-39925D02*
X56885Y-39720D01*
X56885Y-39720D02*
X56700Y-39720D01*
X56700Y-39720D02*
X56580Y-39600D01*
X56580Y-39600D02*
X56580Y-39080D01*
X56580Y-39080D02*
X56299Y-38799D01*
G54D32*
X56359Y-38799D02*
X56299Y-38799D01*
G54D37*
X54015Y-38799D02*
X56359Y-38799D01*
X56359Y-38799D02*
X56360Y-38800D01*
G54D36*
X57090Y-40303D02*
X57090Y-40211D01*
X57090Y-40211D02*
X57090Y-40106D01*
G54D35*
X57060Y-38180D02*
X58239Y-38180D01*
X58239Y-38180D02*
X58346Y-38287D01*
G54D34*
X58346Y-38287D02*
X59901Y-38287D01*
G54D32*
X53346Y-42560D02*
X53346Y-42866D01*
X53346Y-42866D02*
X53609Y-43129D01*
X53609Y-43129D02*
X54311Y-43129D01*
G54D33*
X54429Y-45532D02*
X53741Y-45532D01*
X54311Y-43129D02*
X54310Y-43130D01*
X53741Y-45532D02*
X53385Y-45177D01*
G54D32*
X54429Y-45532D02*
X54585Y-45532D01*
X55038Y-45079D02*
X55877Y-45079D01*
X54585Y-45532D02*
X55038Y-45079D01*
X44100Y-43925D02*
X44100Y-45145D01*
X44100Y-45145D02*
X44130Y-45175D01*
G54D34*
X44130Y-45175D02*
X44130Y-44105D01*
X44130Y-44105D02*
X44125Y-44100D01*
G54D32*
X46967Y-44224D02*
X46550Y-44224D01*
G54D36*
X44130Y-44595D02*
X44130Y-45175D01*
G54D34*
X44375Y-44350D02*
X44130Y-44595D01*
X46425Y-44350D02*
X44375Y-44350D01*
X46550Y-44224D02*
X46425Y-44350D01*
G54D32*
X44866Y-43600D02*
X44866Y-43533D01*
G54D34*
X44866Y-43533D02*
X45300Y-43100D01*
G54D32*
X44325Y-43100D02*
X44100Y-43325D01*
G54D34*
X45300Y-43100D02*
X44325Y-43100D01*
X45300Y-43100D02*
X45300Y-42180D01*
G54D36*
X45300Y-42180D02*
X45413Y-42066D01*
G54D32*
X47717Y-44224D02*
X47717Y-43267D01*
X47717Y-43267D02*
X47700Y-43250D01*
X46475Y-43800D02*
X47697Y-43800D01*
X47717Y-44224D02*
X47717Y-44417D01*
X47775Y-44475D02*
X48375Y-44475D01*
X47717Y-44417D02*
X47775Y-44475D01*
X47697Y-43800D02*
X47717Y-43819D01*
X47717Y-43819D02*
X47717Y-44224D01*
G54D34*
X47736Y-39350D02*
X47966Y-39350D01*
X47966Y-39350D02*
X48416Y-38900D01*
X47728Y-40393D02*
X47728Y-39358D01*
G54D32*
X47728Y-39358D02*
X47736Y-39350D01*
G54D34*
X50125Y-40233D02*
X48888Y-40233D01*
G54D32*
X48888Y-40233D02*
X48728Y-40393D01*
G54D34*
X48591Y-41375D02*
X48591Y-40530D01*
G54D32*
X48591Y-40530D02*
X48728Y-40393D01*
X42500Y-39409D02*
X42684Y-39409D01*
X42684Y-39409D02*
X43225Y-39950D01*
G54D33*
X42538Y-41377D02*
X44547Y-41377D01*
X44940Y-40984D02*
X45177Y-40984D01*
X44547Y-41377D02*
X44940Y-40984D01*
X42500Y-43346D02*
X42500Y-42892D01*
X42500Y-42892D02*
X43070Y-42322D01*
X43385Y-40984D02*
X43366Y-40964D01*
G54D34*
X55314Y-40792D02*
X55122Y-40792D01*
X54547Y-40216D02*
X54015Y-40216D01*
X55122Y-40792D02*
X54547Y-40216D01*
G54D36*
X55909Y-40696D02*
X55720Y-40696D01*
X55625Y-40792D02*
X55314Y-40792D01*
X55720Y-40696D02*
X55625Y-40792D01*
G54D32*
X58760Y-44260D02*
X59220Y-44260D01*
X59310Y-44170D02*
X59310Y-44000D01*
X59220Y-44260D02*
X59310Y-44170D01*
G54D33*
X59310Y-44000D02*
X59160Y-44000D01*
X58980Y-44180D02*
X58760Y-44180D01*
G54D36*
X58760Y-44180D02*
X58380Y-43800D01*
X58380Y-43800D02*
X57160Y-43800D01*
G54D32*
X57480Y-45078D02*
X56878Y-45078D01*
X56878Y-45078D02*
X56877Y-45079D01*
X57480Y-45078D02*
X57480Y-44479D01*
X57700Y-44260D02*
X58120Y-44260D01*
X57480Y-44479D02*
X57700Y-44260D01*
G54D33*
X57090Y-40893D02*
X57090Y-41470D01*
X57090Y-41470D02*
X57100Y-41480D01*
G54D37*
X60420Y-42540D02*
X60420Y-42760D01*
X60420Y-41440D02*
X60420Y-42540D01*
X59882Y-40902D02*
X60420Y-41440D01*
X59882Y-40826D02*
X59882Y-40902D01*
X56060Y-43600D02*
X55060Y-43600D01*
X56340Y-43320D02*
X56060Y-43600D01*
X59860Y-43320D02*
X56340Y-43320D01*
X60420Y-42760D02*
X59860Y-43320D01*
G54D32*
X55240Y-42860D02*
X55240Y-43420D01*
X55240Y-43420D02*
X55060Y-43600D01*
G54D37*
X55060Y-43600D02*
X54940Y-43600D01*
X50574Y-44685D02*
X50574Y-45314D01*
X51120Y-44140D02*
X50574Y-44685D01*
X54400Y-44140D02*
X51120Y-44140D01*
X54940Y-43600D02*
X54400Y-44140D01*
X59882Y-40826D02*
X59882Y-40038D01*
G54D32*
X59882Y-40038D02*
X59901Y-40019D01*
X50574Y-45314D02*
X50285Y-45314D01*
G54D34*
X48511Y-45224D02*
X47717Y-45224D01*
G54D32*
X48518Y-45216D02*
X48511Y-45224D01*
X50285Y-45314D02*
X49950Y-45650D01*
X49950Y-45650D02*
X48625Y-45650D01*
X48625Y-45650D02*
X48518Y-45543D01*
X48518Y-45543D02*
X48518Y-45216D01*
G54D34*
X46045Y-44925D02*
X46400Y-44925D01*
X46699Y-45224D02*
X46967Y-45224D01*
X46400Y-44925D02*
X46699Y-45224D01*
X46967Y-45224D02*
X47717Y-45224D01*
G54D32*
X55240Y-41560D02*
X55020Y-41560D01*
X55020Y-41560D02*
X54880Y-41420D01*
X54880Y-41420D02*
X54360Y-41420D01*
X54360Y-41420D02*
X53780Y-40840D01*
X55240Y-42260D02*
X55240Y-41560D01*
G54D36*
X55240Y-41560D02*
X55240Y-41420D01*
X55909Y-41030D02*
X55909Y-40893D01*
X55840Y-41100D02*
X55909Y-41030D01*
X55560Y-41100D02*
X55840Y-41100D01*
X55240Y-41420D02*
X55560Y-41100D01*
M02*
