%FSLAX34Y34*%
G04 Gerber Fmt 3.4, Leading zero omitted, Abs format*
G04 (created by PCBNEW (2013-11-03 BZR 4430)-product) date Fri 08 Nov 2013 11:28:15 PM CST*
%MOIN*%
G01*
G70*
G90*
G04 APERTURE LIST*
%ADD10C,0.005906*%
%ADD11C,0.009843*%
%ADD12R,0.016000X0.060000*%
%ADD13R,0.060000X0.016000*%
%ADD14R,0.030000X0.020000*%
%ADD15R,0.025000X0.045000*%
%ADD16R,0.045000X0.025000*%
%ADD17R,0.055000X0.055000*%
%ADD18C,0.055000*%
%ADD19R,0.060000X0.060000*%
%ADD20C,0.060000*%
%ADD21R,0.053100X0.015700*%
%ADD22R,0.035000X0.055000*%
%ADD23R,0.055000X0.035000*%
%ADD24R,0.045000X0.020000*%
%ADD25R,0.023622X0.023622*%
%ADD26R,0.039370X0.035433*%
%ADD27O,0.009843X0.035433*%
%ADD28O,0.035433X0.009843*%
%ADD29R,0.027559X0.027559*%
%ADD30O,0.031496X0.009843*%
%ADD31O,0.009843X0.031496*%
%ADD32C,0.021654*%
%ADD33C,0.019685*%
%ADD34C,0.006890*%
%ADD35C,0.010000*%
G04 APERTURE END LIST*
G54D10*
G54D11*
X44679Y-45475D02*
X44660Y-45494D01*
X44604Y-45512D01*
X44566Y-45512D01*
X44510Y-45494D01*
X44473Y-45456D01*
X44454Y-45419D01*
X44435Y-45344D01*
X44435Y-45287D01*
X44454Y-45212D01*
X44473Y-45175D01*
X44510Y-45137D01*
X44566Y-45119D01*
X44604Y-45119D01*
X44660Y-45137D01*
X44679Y-45156D01*
X44904Y-45512D02*
X44866Y-45494D01*
X44848Y-45475D01*
X44829Y-45437D01*
X44829Y-45325D01*
X44848Y-45287D01*
X44866Y-45269D01*
X44904Y-45250D01*
X44960Y-45250D01*
X44998Y-45269D01*
X45016Y-45287D01*
X45035Y-45325D01*
X45035Y-45437D01*
X45016Y-45475D01*
X44998Y-45494D01*
X44960Y-45512D01*
X44904Y-45512D01*
X45204Y-45250D02*
X45204Y-45512D01*
X45204Y-45287D02*
X45223Y-45269D01*
X45260Y-45250D01*
X45316Y-45250D01*
X45354Y-45269D01*
X45373Y-45306D01*
X45373Y-45512D01*
X45560Y-45250D02*
X45560Y-45512D01*
X45560Y-45287D02*
X45579Y-45269D01*
X45616Y-45250D01*
X45673Y-45250D01*
X45710Y-45269D01*
X45729Y-45306D01*
X45729Y-45512D01*
X45973Y-45512D02*
X45935Y-45494D01*
X45916Y-45475D01*
X45898Y-45437D01*
X45898Y-45325D01*
X45916Y-45287D01*
X45935Y-45269D01*
X45973Y-45250D01*
X46029Y-45250D01*
X46066Y-45269D01*
X46085Y-45287D01*
X46104Y-45325D01*
X46104Y-45437D01*
X46085Y-45475D01*
X46066Y-45494D01*
X46029Y-45512D01*
X45973Y-45512D01*
X46272Y-45512D02*
X46272Y-45250D01*
X46272Y-45325D02*
X46291Y-45287D01*
X46310Y-45269D01*
X46347Y-45250D01*
X46385Y-45250D01*
X47041Y-45475D02*
X47022Y-45494D01*
X46966Y-45512D01*
X46929Y-45512D01*
X46872Y-45494D01*
X46835Y-45456D01*
X46816Y-45419D01*
X46797Y-45344D01*
X46797Y-45287D01*
X46816Y-45212D01*
X46835Y-45175D01*
X46872Y-45137D01*
X46929Y-45119D01*
X46966Y-45119D01*
X47022Y-45137D01*
X47041Y-45156D01*
X47210Y-45512D02*
X47210Y-45250D01*
X47210Y-45325D02*
X47229Y-45287D01*
X47247Y-45269D01*
X47285Y-45250D01*
X47322Y-45250D01*
X47604Y-45494D02*
X47566Y-45512D01*
X47491Y-45512D01*
X47454Y-45494D01*
X47435Y-45456D01*
X47435Y-45306D01*
X47454Y-45269D01*
X47491Y-45250D01*
X47566Y-45250D01*
X47604Y-45269D01*
X47622Y-45306D01*
X47622Y-45344D01*
X47435Y-45381D01*
X47791Y-45250D02*
X47791Y-45512D01*
X47791Y-45287D02*
X47810Y-45269D01*
X47847Y-45250D01*
X47904Y-45250D01*
X47941Y-45269D01*
X47960Y-45306D01*
X47960Y-45512D01*
X48128Y-45494D02*
X48166Y-45512D01*
X48241Y-45512D01*
X48278Y-45494D01*
X48297Y-45456D01*
X48297Y-45437D01*
X48278Y-45400D01*
X48241Y-45381D01*
X48185Y-45381D01*
X48147Y-45362D01*
X48128Y-45325D01*
X48128Y-45306D01*
X48147Y-45269D01*
X48185Y-45250D01*
X48241Y-45250D01*
X48278Y-45269D01*
X48466Y-45512D02*
X48466Y-45119D01*
X48635Y-45512D02*
X48635Y-45306D01*
X48616Y-45269D01*
X48578Y-45250D01*
X48522Y-45250D01*
X48485Y-45269D01*
X48466Y-45287D01*
X48991Y-45512D02*
X48991Y-45306D01*
X48972Y-45269D01*
X48935Y-45250D01*
X48860Y-45250D01*
X48822Y-45269D01*
X48991Y-45494D02*
X48953Y-45512D01*
X48860Y-45512D01*
X48822Y-45494D01*
X48803Y-45456D01*
X48803Y-45419D01*
X48822Y-45381D01*
X48860Y-45362D01*
X48953Y-45362D01*
X48991Y-45344D01*
X49141Y-45250D02*
X49216Y-45512D01*
X49291Y-45325D01*
X49366Y-45512D01*
X49441Y-45250D01*
G54D12*
X53149Y-39521D03*
X52834Y-39521D03*
X52519Y-39521D03*
X52204Y-39521D03*
X51889Y-39521D03*
X51574Y-39521D03*
X53464Y-39521D03*
X53779Y-39521D03*
X54094Y-39521D03*
X54409Y-39521D03*
X54724Y-39521D03*
X53149Y-44021D03*
X52834Y-44021D03*
X52519Y-44021D03*
X52204Y-44021D03*
X51889Y-44021D03*
X51574Y-44021D03*
X53464Y-44021D03*
X53779Y-44021D03*
X54094Y-44021D03*
X54409Y-44021D03*
X54724Y-44021D03*
G54D13*
X50899Y-41771D03*
X55399Y-41771D03*
X50899Y-42086D03*
X55399Y-42086D03*
X55399Y-42401D03*
X50899Y-42401D03*
X50899Y-42716D03*
X55399Y-42716D03*
X55399Y-43031D03*
X50899Y-43031D03*
X50899Y-43346D03*
X55399Y-43346D03*
X55399Y-41456D03*
X50899Y-41456D03*
X50899Y-41141D03*
X55399Y-41141D03*
X55399Y-40826D03*
X50899Y-40826D03*
X50899Y-40511D03*
X55399Y-40511D03*
X55399Y-40196D03*
X50899Y-40196D03*
G54D14*
X42019Y-44152D03*
X42019Y-44902D03*
X43019Y-44152D03*
X42019Y-44527D03*
X43019Y-44902D03*
G54D15*
X59620Y-43280D03*
X59020Y-43280D03*
G54D16*
X50846Y-37425D03*
X50846Y-36825D03*
G54D15*
X49880Y-44520D03*
X49280Y-44520D03*
G54D16*
X48350Y-42075D03*
X48350Y-42675D03*
X56299Y-41471D03*
X56299Y-42071D03*
G54D15*
X44000Y-39409D03*
X43400Y-39409D03*
X46362Y-40196D03*
X45762Y-40196D03*
X42819Y-43346D03*
X42219Y-43346D03*
X41650Y-41750D03*
X42250Y-41750D03*
X41650Y-41100D03*
X42250Y-41100D03*
X46362Y-40984D03*
X45762Y-40984D03*
X44788Y-41771D03*
X44188Y-41771D03*
X44188Y-42559D03*
X44788Y-42559D03*
G54D16*
X48350Y-43250D03*
X48350Y-43850D03*
G54D15*
X50743Y-38818D03*
X51343Y-38818D03*
G54D16*
X46811Y-38774D03*
X46811Y-39374D03*
X44094Y-44227D03*
X44094Y-44827D03*
X49586Y-40093D03*
X49586Y-40693D03*
X54724Y-44719D03*
X54724Y-45319D03*
X53937Y-45014D03*
X53937Y-45614D03*
G54D15*
X56599Y-38228D03*
X55999Y-38228D03*
X54818Y-37047D03*
X55418Y-37047D03*
X55999Y-37047D03*
X56599Y-37047D03*
X55418Y-38228D03*
X54818Y-38228D03*
X52662Y-38228D03*
X52062Y-38228D03*
X53843Y-38228D03*
X53243Y-38228D03*
X52062Y-37047D03*
X52662Y-37047D03*
X53341Y-37047D03*
X53941Y-37047D03*
G54D17*
X48728Y-40393D03*
G54D18*
X47728Y-40393D03*
X50574Y-45314D03*
X52574Y-45314D03*
G54D19*
X46094Y-36940D03*
G54D20*
X46094Y-37940D03*
X45094Y-36940D03*
X45094Y-37940D03*
X44094Y-36940D03*
X44094Y-37940D03*
X43094Y-36940D03*
X43094Y-37940D03*
X42094Y-36940D03*
X42094Y-37940D03*
G54D15*
X60075Y-38400D03*
X60675Y-38400D03*
G54D16*
X57165Y-37180D03*
X57165Y-37780D03*
X60675Y-37025D03*
X60675Y-37625D03*
G54D21*
X44546Y-40974D03*
X44546Y-40718D03*
X44546Y-40462D03*
X44546Y-40206D03*
X42854Y-40206D03*
X42854Y-40462D03*
X42854Y-40718D03*
X42854Y-40974D03*
G54D22*
X55975Y-43800D03*
X56725Y-43800D03*
G54D23*
X57874Y-37855D03*
X57874Y-37105D03*
X60350Y-44900D03*
X60350Y-44150D03*
G54D15*
X55762Y-39586D03*
X56362Y-39586D03*
G54D16*
X51791Y-45418D03*
X51791Y-44818D03*
G54D15*
X49266Y-41299D03*
X49866Y-41299D03*
G54D24*
X50157Y-37399D03*
X50157Y-37899D03*
X50157Y-38399D03*
X50157Y-38899D03*
X47480Y-38899D03*
X47480Y-38399D03*
X47480Y-37899D03*
X47480Y-37399D03*
X60155Y-42484D03*
X60155Y-41984D03*
X60155Y-41484D03*
X60155Y-40984D03*
X60155Y-40484D03*
X60155Y-39984D03*
X60155Y-39484D03*
X58055Y-39484D03*
X58055Y-39984D03*
X58055Y-40484D03*
X58055Y-40984D03*
X58055Y-41484D03*
X58055Y-41984D03*
X58055Y-42484D03*
G54D16*
X58460Y-43960D03*
X58460Y-43360D03*
G54D15*
X56680Y-43040D03*
X56080Y-43040D03*
G54D25*
X43650Y-42583D03*
X43650Y-41716D03*
G54D26*
X49848Y-43269D03*
X49001Y-43269D03*
X49001Y-43880D03*
X49848Y-43880D03*
G54D21*
X57538Y-45206D03*
X57538Y-44950D03*
X57538Y-44694D03*
X57538Y-44438D03*
X55846Y-44438D03*
X55846Y-44694D03*
X55846Y-44950D03*
X55846Y-45206D03*
G54D27*
X58956Y-38070D03*
X58759Y-38070D03*
X59153Y-38070D03*
X59350Y-38070D03*
X59350Y-36811D03*
X59153Y-36811D03*
X58759Y-36811D03*
X58956Y-36811D03*
G54D28*
X58425Y-37342D03*
X58425Y-37145D03*
X58425Y-37539D03*
X58425Y-37736D03*
X59685Y-37736D03*
X59685Y-37539D03*
X59685Y-37145D03*
X59685Y-37342D03*
G54D29*
X59192Y-37578D03*
X58917Y-37578D03*
X58917Y-37303D03*
X59192Y-37303D03*
G54D30*
X58443Y-44628D03*
X58443Y-44825D03*
X58439Y-45021D03*
X58443Y-45218D03*
X58443Y-44431D03*
X59620Y-44431D03*
X59620Y-45218D03*
X59616Y-45021D03*
X59620Y-44825D03*
X59620Y-44628D03*
G54D31*
X58853Y-44254D03*
X59050Y-44254D03*
X59246Y-44254D03*
X59246Y-45395D03*
X59050Y-45395D03*
X58853Y-45395D03*
G54D32*
X57360Y-42840D03*
X58940Y-43920D03*
X43188Y-42992D03*
X53350Y-41350D03*
X50255Y-41358D03*
X46259Y-39724D03*
X43503Y-40393D03*
X57840Y-42840D03*
X60560Y-43620D03*
X52340Y-37500D03*
X57075Y-37475D03*
X60708Y-40984D03*
X55118Y-45629D03*
X55354Y-44409D03*
X60360Y-44520D03*
X56338Y-40157D03*
X56663Y-40157D03*
X57140Y-39180D03*
X57140Y-39420D03*
X58720Y-42007D03*
X54803Y-41771D03*
X57519Y-36673D03*
X42519Y-44625D03*
X52050Y-37650D03*
X50177Y-36830D03*
X47992Y-38779D03*
X47047Y-40295D03*
X46633Y-41692D03*
X60350Y-45275D03*
X56338Y-44409D03*
X45118Y-40000D03*
X53267Y-44645D03*
X52550Y-40550D03*
X50350Y-44125D03*
X60225Y-37525D03*
X47350Y-44675D03*
X56338Y-40610D03*
X56663Y-40836D03*
X50157Y-41771D03*
X56338Y-40836D03*
X56663Y-40610D03*
X56663Y-40383D03*
X56338Y-40383D03*
X49724Y-45314D03*
X54409Y-37559D03*
X54409Y-38267D03*
X52244Y-43346D03*
X41750Y-42250D03*
X55375Y-37750D03*
X56775Y-37625D03*
X59800Y-36675D03*
X54311Y-43129D03*
X53385Y-45177D03*
X43225Y-39950D03*
X45177Y-40984D03*
X43070Y-42322D03*
X43385Y-40984D03*
X50899Y-39856D03*
X46830Y-37913D03*
X48779Y-37893D03*
X50413Y-39803D03*
X58200Y-45400D03*
X56300Y-45425D03*
X55050Y-44200D03*
X59300Y-44825D03*
X54881Y-41141D03*
X54566Y-40826D03*
X43475Y-43825D03*
X44803Y-38976D03*
X57160Y-43800D03*
X56338Y-37559D03*
X58740Y-41496D03*
X58444Y-40334D03*
X55850Y-37725D03*
X59763Y-41496D03*
X52650Y-37550D03*
X47677Y-41181D03*
X49566Y-42755D03*
X50275Y-43070D03*
X48188Y-40826D03*
X53780Y-40840D03*
G54D11*
X58940Y-43920D02*
X58820Y-43920D01*
G54D33*
X56591Y-42071D02*
X57360Y-42840D01*
X56299Y-42071D02*
X56591Y-42071D01*
G54D11*
X58780Y-43960D02*
X58460Y-43960D01*
X58820Y-43920D02*
X58780Y-43960D01*
X58443Y-44431D02*
X58443Y-43976D01*
G54D34*
X58443Y-43976D02*
X58460Y-43960D01*
G54D33*
X43188Y-42992D02*
X43181Y-42984D01*
X55399Y-42086D02*
X54527Y-42086D01*
X54527Y-42086D02*
X54527Y-42086D01*
G54D34*
X51343Y-38818D02*
X51574Y-38818D01*
X53464Y-39133D02*
X53464Y-39521D01*
X53346Y-39015D02*
X53464Y-39133D01*
X51771Y-39015D02*
X53346Y-39015D01*
X51574Y-38818D02*
X51771Y-39015D01*
X46811Y-39374D02*
X48007Y-39374D01*
X47986Y-38399D02*
X47480Y-38399D01*
X48307Y-38720D02*
X47986Y-38399D01*
X48307Y-39074D02*
X48307Y-38720D01*
X48007Y-39374D02*
X48307Y-39074D01*
X46811Y-39374D02*
X46540Y-39374D01*
X46540Y-39374D02*
X46094Y-38929D01*
X46094Y-38929D02*
X46094Y-37940D01*
X50157Y-37399D02*
X50820Y-37399D01*
X50820Y-37399D02*
X50846Y-37425D01*
X51343Y-38818D02*
X51343Y-38351D01*
X51343Y-38351D02*
X50846Y-37854D01*
X50846Y-37854D02*
X50846Y-37425D01*
X50157Y-37899D02*
X50157Y-37399D01*
G54D33*
X50255Y-41358D02*
X50255Y-41338D01*
X50216Y-41299D02*
X49866Y-41299D01*
X50255Y-41338D02*
X50216Y-41299D01*
X50899Y-41456D02*
X50354Y-41456D01*
X50354Y-41456D02*
X50255Y-41358D01*
G54D11*
X49866Y-41299D02*
X49866Y-40974D01*
X49866Y-40974D02*
X49586Y-40693D01*
G54D33*
X53149Y-44021D02*
X53149Y-43188D01*
X53149Y-44021D02*
X53149Y-44370D01*
X53149Y-44370D02*
X52716Y-44803D01*
X52716Y-44803D02*
X51855Y-44803D01*
X53464Y-39521D02*
X53464Y-40196D01*
X53464Y-40196D02*
X53464Y-40196D01*
X50899Y-41456D02*
X51535Y-41456D01*
X51535Y-41456D02*
X51535Y-41456D01*
X42819Y-43346D02*
X42819Y-44118D01*
X42853Y-44152D02*
X43019Y-44152D01*
X42819Y-44118D02*
X42853Y-44152D01*
G54D34*
X42854Y-40206D02*
X42043Y-40206D01*
X41650Y-40600D02*
X41650Y-41100D01*
X42043Y-40206D02*
X41650Y-40600D01*
X46362Y-40196D02*
X46362Y-39827D01*
X46362Y-39827D02*
X46259Y-39724D01*
X43316Y-40206D02*
X42854Y-40206D01*
X43503Y-40393D02*
X43316Y-40206D01*
G54D33*
X44188Y-42559D02*
X43607Y-42559D01*
X43607Y-42559D02*
X43181Y-42984D01*
X43181Y-42984D02*
X42819Y-43346D01*
G54D35*
X43400Y-39409D02*
X42854Y-39955D01*
X42854Y-39955D02*
X42854Y-40206D01*
X56299Y-42071D02*
X56284Y-42086D01*
G54D33*
X56284Y-42086D02*
X55399Y-42086D01*
G54D34*
X57840Y-42840D02*
X57840Y-43460D01*
X57840Y-43460D02*
X57740Y-43560D01*
X57740Y-43560D02*
X57740Y-44060D01*
X57740Y-44060D02*
X57538Y-44261D01*
X57538Y-44261D02*
X57538Y-44438D01*
G54D11*
X58580Y-38360D02*
X58900Y-38360D01*
G54D33*
X57075Y-37475D02*
X57775Y-37475D01*
X57900Y-37600D02*
X57900Y-37775D01*
X57900Y-37775D02*
X57900Y-38160D01*
X57900Y-38160D02*
X58038Y-38299D01*
X57900Y-37600D02*
X57775Y-37475D01*
X58519Y-38299D02*
X58580Y-38360D01*
X58038Y-38299D02*
X58519Y-38299D01*
G54D11*
X58956Y-38303D02*
X58956Y-38070D01*
X58900Y-38360D02*
X58956Y-38303D01*
G54D34*
X52062Y-37047D02*
X52062Y-37222D01*
X52062Y-37222D02*
X52340Y-37500D01*
G54D33*
X59620Y-43280D02*
X59620Y-42020D01*
X59795Y-40984D02*
X60155Y-40984D01*
X59440Y-41340D02*
X59795Y-40984D01*
X59440Y-41840D02*
X59440Y-41340D01*
X59620Y-42020D02*
X59440Y-41840D01*
X60708Y-40984D02*
X60355Y-40984D01*
X60355Y-40984D02*
X60155Y-40984D01*
G54D34*
X57075Y-37475D02*
X56925Y-37475D01*
X52062Y-36837D02*
X52062Y-37047D01*
X52250Y-36650D02*
X52062Y-36837D01*
X54100Y-36650D02*
X52250Y-36650D01*
X54300Y-36850D02*
X54100Y-36650D01*
X54300Y-37100D02*
X54300Y-36850D01*
X54700Y-37500D02*
X54300Y-37100D01*
X55950Y-37500D02*
X54700Y-37500D01*
X56250Y-37800D02*
X55950Y-37500D01*
X56400Y-37800D02*
X56250Y-37800D01*
X56550Y-37650D02*
X56400Y-37800D01*
X56550Y-37500D02*
X56550Y-37650D01*
X56650Y-37400D02*
X56550Y-37500D01*
X56850Y-37400D02*
X56650Y-37400D01*
X56925Y-37475D02*
X56850Y-37400D01*
X60355Y-40984D02*
X60078Y-40984D01*
G54D35*
X58956Y-38070D02*
X59055Y-38070D01*
X59055Y-38070D02*
X59153Y-38070D01*
G54D34*
X54807Y-45319D02*
X55118Y-45629D01*
X54724Y-45319D02*
X54807Y-45319D01*
G54D33*
X55846Y-44438D02*
X55846Y-43928D01*
X55846Y-43928D02*
X55975Y-43800D01*
X55383Y-44438D02*
X55846Y-44438D01*
G54D34*
X55354Y-44409D02*
X55383Y-44438D01*
G54D11*
X53937Y-45614D02*
X54429Y-45614D01*
X54429Y-45614D02*
X54724Y-45319D01*
G54D33*
X59900Y-44225D02*
X59800Y-44125D01*
X59800Y-44125D02*
X59375Y-44125D01*
X60350Y-44150D02*
X60350Y-44510D01*
X60350Y-44510D02*
X60360Y-44520D01*
X60350Y-44225D02*
X59900Y-44225D01*
X59375Y-44125D02*
X59246Y-44254D01*
G54D34*
X59246Y-45395D02*
X59246Y-45196D01*
X59246Y-44428D02*
X59246Y-44254D01*
X59075Y-44600D02*
X59246Y-44428D01*
X59075Y-45025D02*
X59075Y-44600D01*
X59246Y-45196D02*
X59075Y-45025D01*
X59050Y-44254D02*
X59246Y-44254D01*
G54D33*
X56362Y-39586D02*
X56555Y-39586D01*
X56663Y-39694D02*
X56663Y-40157D01*
X56555Y-39586D02*
X56663Y-39694D01*
X58720Y-42007D02*
X58720Y-41899D01*
X59020Y-43280D02*
X59020Y-42860D01*
X58720Y-42560D02*
X59020Y-42860D01*
X58720Y-42007D02*
X58720Y-42560D01*
X58664Y-40984D02*
X58055Y-40984D01*
X59020Y-41340D02*
X58664Y-40984D01*
X59020Y-41600D02*
X59020Y-41340D01*
X58720Y-41899D02*
X59020Y-41600D01*
G54D34*
X58853Y-44254D02*
X58853Y-45003D01*
X58853Y-45003D02*
X58975Y-45125D01*
G54D33*
X58460Y-43360D02*
X58940Y-43360D01*
G54D34*
X58940Y-43360D02*
X59020Y-43280D01*
G54D33*
X55399Y-41771D02*
X54803Y-41771D01*
X57519Y-37175D02*
X57519Y-36673D01*
G54D34*
X44188Y-41771D02*
X44188Y-41861D01*
X42219Y-42830D02*
X42219Y-43346D01*
X42950Y-42100D02*
X42219Y-42830D01*
X43950Y-42100D02*
X42950Y-42100D01*
X44188Y-41861D02*
X43950Y-42100D01*
X52062Y-38228D02*
X52062Y-37662D01*
X52062Y-37662D02*
X52050Y-37650D01*
X50846Y-36825D02*
X50181Y-36825D01*
X50181Y-36825D02*
X50177Y-36830D01*
X47872Y-38899D02*
X47992Y-38779D01*
X47872Y-38899D02*
X47480Y-38899D01*
G54D11*
X47022Y-40270D02*
X47047Y-40295D01*
G54D33*
X56725Y-44259D02*
X56725Y-43800D01*
X56574Y-44409D02*
X56725Y-44259D01*
X56338Y-44409D02*
X56574Y-44409D01*
G54D11*
X56338Y-44625D02*
X56338Y-44409D01*
X56269Y-44694D02*
X56338Y-44625D01*
X55846Y-44694D02*
X56269Y-44694D01*
G54D34*
X44911Y-40206D02*
X44546Y-40206D01*
X44911Y-40206D02*
X45118Y-40000D01*
G54D33*
X49266Y-41299D02*
X49266Y-41771D01*
X52574Y-45314D02*
X52263Y-45314D01*
X52160Y-45418D02*
X51791Y-45418D01*
X52263Y-45314D02*
X52160Y-45418D01*
X53464Y-44448D02*
X53464Y-44021D01*
X53464Y-44448D02*
X53267Y-44645D01*
X48350Y-42075D02*
X48909Y-42075D01*
X49212Y-41771D02*
X49266Y-41771D01*
X49266Y-41771D02*
X49704Y-41771D01*
X48909Y-42075D02*
X49212Y-41771D01*
X49704Y-41771D02*
X50157Y-41771D01*
X53149Y-39521D02*
X53149Y-39950D01*
X53149Y-39950D02*
X52550Y-40550D01*
X58525Y-36570D02*
X58429Y-36570D01*
G54D11*
X59055Y-36630D02*
X58946Y-36521D01*
X58946Y-36521D02*
X58525Y-36521D01*
X59055Y-36811D02*
X59055Y-36630D01*
X58525Y-36521D02*
X58525Y-36570D01*
G54D33*
X58429Y-36570D02*
X57900Y-37100D01*
X57200Y-37175D02*
X57519Y-37175D01*
X57519Y-37175D02*
X57525Y-37175D01*
X57525Y-37175D02*
X57900Y-37175D01*
G54D34*
X60350Y-44825D02*
X60425Y-44825D01*
X60425Y-44825D02*
X60575Y-44975D01*
X49875Y-44475D02*
X50000Y-44475D01*
X50000Y-44475D02*
X50350Y-44125D01*
G54D11*
X59685Y-37539D02*
X60210Y-37539D01*
X60625Y-37675D02*
X60675Y-37625D01*
G54D34*
X60375Y-37675D02*
X60625Y-37675D01*
X60225Y-37525D02*
X60375Y-37675D01*
G54D11*
X60210Y-37539D02*
X60225Y-37525D01*
X59050Y-45395D02*
X59050Y-45700D01*
G54D33*
X60350Y-45275D02*
X59875Y-45750D01*
X59875Y-45750D02*
X59100Y-45750D01*
X60350Y-45275D02*
X60350Y-44825D01*
G54D11*
X59050Y-45700D02*
X59100Y-45750D01*
G54D34*
X59616Y-45021D02*
X59853Y-45021D01*
G54D33*
X59853Y-45021D02*
X60050Y-44825D01*
X60350Y-44825D02*
X60050Y-44825D01*
G54D34*
X59853Y-44628D02*
X59620Y-44628D01*
G54D33*
X60050Y-44825D02*
X59853Y-44628D01*
G54D34*
X58443Y-45218D02*
X58656Y-45218D01*
X59050Y-45200D02*
X59050Y-45395D01*
X58975Y-45125D02*
X59050Y-45200D01*
X58750Y-45125D02*
X58975Y-45125D01*
X58656Y-45218D02*
X58750Y-45125D01*
X59620Y-44431D02*
X59620Y-44628D01*
X60675Y-38400D02*
X60675Y-37625D01*
G54D33*
X56599Y-37047D02*
X57072Y-37047D01*
X57072Y-37047D02*
X57200Y-37175D01*
X50899Y-41771D02*
X50157Y-41771D01*
G54D34*
X52062Y-38440D02*
X52062Y-38228D01*
G54D33*
X54818Y-38228D02*
X54448Y-38228D01*
G54D34*
X54448Y-38228D02*
X54409Y-38267D01*
X53941Y-37047D02*
X53941Y-37091D01*
G54D33*
X53941Y-37091D02*
X54409Y-37559D01*
G54D35*
X58956Y-36811D02*
X59055Y-36811D01*
X59055Y-36811D02*
X59153Y-36811D01*
X42019Y-44902D02*
X42038Y-44921D01*
X42038Y-44921D02*
X42224Y-44921D01*
X42224Y-44921D02*
X42519Y-44625D01*
X42519Y-44625D02*
X42519Y-43937D01*
X42519Y-43937D02*
X42224Y-43641D01*
X42224Y-43641D02*
X42224Y-43351D01*
X42224Y-43351D02*
X42219Y-43346D01*
X44546Y-40206D02*
X44488Y-40147D01*
X44488Y-39896D02*
X44000Y-39409D01*
X44488Y-40147D02*
X44488Y-39896D01*
G54D33*
X55399Y-41771D02*
X56003Y-41771D01*
G54D35*
X56003Y-41771D02*
X56003Y-41766D01*
G54D33*
X56003Y-41766D02*
X56299Y-41471D01*
G54D34*
X41650Y-42150D02*
X41750Y-42250D01*
X41650Y-42150D02*
X41650Y-41750D01*
X49001Y-43880D02*
X49001Y-43641D01*
X48350Y-43450D02*
X48350Y-43250D01*
X48480Y-43580D02*
X48350Y-43450D01*
X48940Y-43580D02*
X48480Y-43580D01*
X49001Y-43641D02*
X48940Y-43580D01*
X48350Y-43250D02*
X48350Y-42675D01*
X48350Y-42675D02*
X48725Y-42675D01*
X49313Y-42086D02*
X50899Y-42086D01*
X48725Y-42675D02*
X49313Y-42086D01*
X60675Y-37025D02*
X60337Y-37025D01*
X60337Y-37025D02*
X60216Y-37145D01*
X59685Y-37145D02*
X60216Y-37145D01*
X54818Y-36520D02*
X54818Y-37047D01*
X54960Y-36377D02*
X54818Y-36520D01*
X60000Y-36377D02*
X54960Y-36377D01*
X60275Y-36653D02*
X60000Y-36377D01*
X60275Y-37086D02*
X60275Y-36653D01*
X60216Y-37145D02*
X60275Y-37086D01*
X56599Y-38228D02*
X57637Y-38228D01*
X57637Y-38228D02*
X57992Y-38582D01*
X57992Y-38582D02*
X59173Y-38582D01*
X59173Y-38582D02*
X59350Y-38405D01*
X59350Y-38405D02*
X59350Y-38400D01*
X60075Y-38400D02*
X59350Y-38400D01*
X59350Y-38400D02*
X59350Y-38070D01*
X55375Y-37750D02*
X54550Y-37750D01*
X54550Y-37750D02*
X54071Y-38228D01*
X55375Y-37750D02*
X55335Y-37710D01*
X56875Y-37725D02*
X56775Y-37625D01*
X59663Y-36811D02*
X59800Y-36675D01*
X59350Y-36811D02*
X59663Y-36811D01*
X54071Y-38228D02*
X53843Y-38228D01*
X57200Y-37725D02*
X56875Y-37725D01*
G54D33*
X55762Y-39586D02*
X55762Y-39857D01*
X55689Y-41456D02*
X55399Y-41456D01*
X55984Y-41161D02*
X55689Y-41456D01*
X55984Y-40078D02*
X55984Y-41161D01*
X55762Y-39857D02*
X55984Y-40078D01*
G54D34*
X49280Y-44520D02*
X48720Y-44520D01*
X48350Y-44150D02*
X48350Y-43850D01*
X48720Y-44520D02*
X48350Y-44150D01*
X49280Y-44520D02*
X49280Y-44220D01*
X49440Y-43339D02*
X49509Y-43269D01*
X49440Y-44060D02*
X49440Y-43339D01*
X49280Y-44220D02*
X49440Y-44060D01*
X49848Y-43269D02*
X49509Y-43269D01*
X49578Y-42401D02*
X50899Y-42401D01*
X49340Y-42640D02*
X49578Y-42401D01*
X49340Y-42820D02*
X49340Y-42640D01*
X49440Y-42920D02*
X49340Y-42820D01*
X49440Y-43200D02*
X49440Y-42920D01*
X49509Y-43269D02*
X49440Y-43200D01*
X43650Y-41716D02*
X42283Y-41716D01*
X42283Y-41716D02*
X42250Y-41750D01*
X42019Y-44152D02*
X42019Y-43869D01*
X42250Y-42500D02*
X42250Y-41750D01*
X41850Y-42900D02*
X42250Y-42500D01*
X41850Y-43700D02*
X41850Y-42900D01*
X42019Y-43869D02*
X41850Y-43700D01*
X44087Y-40462D02*
X44546Y-40462D01*
X43700Y-40075D02*
X44087Y-40462D01*
X43350Y-40075D02*
X43700Y-40075D01*
X43225Y-39950D02*
X43350Y-40075D01*
X44546Y-40462D02*
X45497Y-40462D01*
X45497Y-40462D02*
X45762Y-40196D01*
X45177Y-40984D02*
X45762Y-40984D01*
X43385Y-40984D02*
X42864Y-40984D01*
X42864Y-40984D02*
X42854Y-40974D01*
X42854Y-40974D02*
X42525Y-40974D01*
X42525Y-40974D02*
X42500Y-41000D01*
X42500Y-41000D02*
X42500Y-41050D01*
X42500Y-41050D02*
X42450Y-41100D01*
X42450Y-41100D02*
X42250Y-41100D01*
X45574Y-37460D02*
X45094Y-37940D01*
X46377Y-37460D02*
X45574Y-37460D01*
X46830Y-37913D02*
X46377Y-37460D01*
X50157Y-38899D02*
X50157Y-39114D01*
X50157Y-39114D02*
X50899Y-39856D01*
X50157Y-38899D02*
X50509Y-38899D01*
X50590Y-38818D02*
X50743Y-38818D01*
X50509Y-38899D02*
X50590Y-38818D01*
X50899Y-40196D02*
X50899Y-39856D01*
X50899Y-39856D02*
X50157Y-39114D01*
X58439Y-45021D02*
X58278Y-45021D01*
X55846Y-45426D02*
X55846Y-45206D01*
X56060Y-45640D02*
X55846Y-45426D01*
X56440Y-45640D02*
X56060Y-45640D01*
X56560Y-45520D02*
X56440Y-45640D01*
X57780Y-45520D02*
X56560Y-45520D01*
X58278Y-45021D02*
X57780Y-45520D01*
G54D11*
X53937Y-45014D02*
X55014Y-45014D01*
X55206Y-45206D02*
X55846Y-45206D01*
X55014Y-45014D02*
X55206Y-45206D01*
G54D35*
X53779Y-44021D02*
X53779Y-44857D01*
X53779Y-44857D02*
X53937Y-45014D01*
G54D34*
X46811Y-38774D02*
X46811Y-38267D01*
X46811Y-38267D02*
X47185Y-37893D01*
X47474Y-37893D02*
X47185Y-37893D01*
X47185Y-37893D02*
X46692Y-37401D01*
X46692Y-37401D02*
X46692Y-37066D01*
X46692Y-37066D02*
X46566Y-36940D01*
X50899Y-40511D02*
X50590Y-40511D01*
X48773Y-37899D02*
X47480Y-37899D01*
X48779Y-37893D02*
X48773Y-37899D01*
X50413Y-40334D02*
X50413Y-39803D01*
X50590Y-40511D02*
X50413Y-40334D01*
X47480Y-37899D02*
X47474Y-37893D01*
X46566Y-36940D02*
X46094Y-36940D01*
X58200Y-45400D02*
X58200Y-45450D01*
X58853Y-45546D02*
X58775Y-45625D01*
X58775Y-45625D02*
X58375Y-45625D01*
X56300Y-45425D02*
X56250Y-45375D01*
X56250Y-45375D02*
X56250Y-45000D01*
X56250Y-45000D02*
X56200Y-44950D01*
X55846Y-44950D02*
X56200Y-44950D01*
X58853Y-45546D02*
X58853Y-45395D01*
X58200Y-45450D02*
X58375Y-45625D01*
G54D11*
X54724Y-44719D02*
X54325Y-44719D01*
X54094Y-44488D02*
X54094Y-44021D01*
X54325Y-44719D02*
X54094Y-44488D01*
X54724Y-44719D02*
X55211Y-44719D01*
X55442Y-44950D02*
X55846Y-44950D01*
X55211Y-44719D02*
X55442Y-44950D01*
G54D34*
X59620Y-44825D02*
X59300Y-44825D01*
X55399Y-43850D02*
X55399Y-43346D01*
X55050Y-44200D02*
X55399Y-43850D01*
G54D11*
X55399Y-43031D02*
X56071Y-43031D01*
X56071Y-43031D02*
X56080Y-43040D01*
G54D34*
X50157Y-38399D02*
X49580Y-38399D01*
X45094Y-36677D02*
X45094Y-36940D01*
X45393Y-36377D02*
X45094Y-36677D01*
X46496Y-36377D02*
X45393Y-36377D01*
X46929Y-36811D02*
X46496Y-36377D01*
X46929Y-37362D02*
X46929Y-36811D01*
X47204Y-37637D02*
X46929Y-37362D01*
X48818Y-37637D02*
X47204Y-37637D01*
X49580Y-38399D02*
X48818Y-37637D01*
X49586Y-40093D02*
X49586Y-38641D01*
X49828Y-38399D02*
X50157Y-38399D01*
X49586Y-38641D02*
X49828Y-38399D01*
G54D11*
X49586Y-40093D02*
X49896Y-40093D01*
X50472Y-40826D02*
X50899Y-40826D01*
X50354Y-40708D02*
X50472Y-40826D01*
X50354Y-40551D02*
X50354Y-40708D01*
X49896Y-40093D02*
X50354Y-40551D01*
X55399Y-41141D02*
X54881Y-41141D01*
X54881Y-41141D02*
X54881Y-41141D01*
G54D34*
X55399Y-40826D02*
X54567Y-40826D01*
X44094Y-44227D02*
X44094Y-43956D01*
X44094Y-43956D02*
X44232Y-43818D01*
X50432Y-41141D02*
X50899Y-41141D01*
X50157Y-40866D02*
X50432Y-41141D01*
X50157Y-40590D02*
X50157Y-40866D01*
X49960Y-40393D02*
X50157Y-40590D01*
X49271Y-40393D02*
X49960Y-40393D01*
X49192Y-40472D02*
X49271Y-40393D01*
X49192Y-40807D02*
X49192Y-40472D01*
X49114Y-40885D02*
X49192Y-40807D01*
X48661Y-40885D02*
X49114Y-40885D01*
X47559Y-41988D02*
X48661Y-40885D01*
X47559Y-42578D02*
X47559Y-41988D01*
X47342Y-42795D02*
X47559Y-42578D01*
X45295Y-42795D02*
X47342Y-42795D01*
X44960Y-43129D02*
X45295Y-42795D01*
X44960Y-43484D02*
X44960Y-43129D01*
X44625Y-43818D02*
X44960Y-43484D01*
X44232Y-43818D02*
X44625Y-43818D01*
X44575Y-38748D02*
X44803Y-38976D01*
X44094Y-37044D02*
X44094Y-36940D01*
X44575Y-37525D02*
X44575Y-38250D01*
X44094Y-37044D02*
X44575Y-37525D01*
X44575Y-38250D02*
X44575Y-38748D01*
X43962Y-43825D02*
X43475Y-43825D01*
X44094Y-43956D02*
X43962Y-43825D01*
X47480Y-37399D02*
X48856Y-37399D01*
X51332Y-39521D02*
X51574Y-39521D01*
X51043Y-39232D02*
X51332Y-39521D01*
X51043Y-38444D02*
X51043Y-39232D01*
X50748Y-38149D02*
X51043Y-38444D01*
X49606Y-38149D02*
X50748Y-38149D01*
X48856Y-37399D02*
X49606Y-38149D01*
G54D11*
X56680Y-43040D02*
X56800Y-43040D01*
X56800Y-43040D02*
X57160Y-43400D01*
X57160Y-43400D02*
X57160Y-43800D01*
G54D33*
X58728Y-41484D02*
X58740Y-41496D01*
G54D34*
X58728Y-41484D02*
X58740Y-41496D01*
X56338Y-37559D02*
X55999Y-37219D01*
X55999Y-37219D02*
X55999Y-37047D01*
G54D33*
X58055Y-41484D02*
X58728Y-41484D01*
G54D34*
X55418Y-37047D02*
X55999Y-37047D01*
G54D33*
X58055Y-40484D02*
X58295Y-40484D01*
X58295Y-40484D02*
X58444Y-40334D01*
G54D34*
X55999Y-38228D02*
X55999Y-37874D01*
X55999Y-37874D02*
X55850Y-37725D01*
X55999Y-38228D02*
X55418Y-38228D01*
G54D33*
X60155Y-41484D02*
X59775Y-41484D01*
X59775Y-41484D02*
X59763Y-41496D01*
G54D34*
X52650Y-37550D02*
X52662Y-37562D01*
X52662Y-38228D02*
X52662Y-37562D01*
X52662Y-38228D02*
X53243Y-38228D01*
X60155Y-40484D02*
X60500Y-40484D01*
X53341Y-37396D02*
X53341Y-37047D01*
X53543Y-37598D02*
X53341Y-37396D01*
X53543Y-38503D02*
X53543Y-37598D01*
X53661Y-38622D02*
X53543Y-38503D01*
X57755Y-38622D02*
X53661Y-38622D01*
X57874Y-38740D02*
X57755Y-38622D01*
X60157Y-38740D02*
X57874Y-38740D01*
X60590Y-39173D02*
X60157Y-38740D01*
X60590Y-40393D02*
X60590Y-39173D01*
X60500Y-40484D02*
X60590Y-40393D01*
X52662Y-37047D02*
X53341Y-37047D01*
X44788Y-42559D02*
X44788Y-41771D01*
X44055Y-40718D02*
X44055Y-41062D01*
X44788Y-41441D02*
X44788Y-41771D01*
X44685Y-41338D02*
X44788Y-41441D01*
X44330Y-41338D02*
X44685Y-41338D01*
X44055Y-41062D02*
X44330Y-41338D01*
X42854Y-40718D02*
X44055Y-40718D01*
X44055Y-40718D02*
X44546Y-40718D01*
X42019Y-44527D02*
X41977Y-44527D01*
X42187Y-40462D02*
X42854Y-40462D01*
X41950Y-40700D02*
X42187Y-40462D01*
X41950Y-42100D02*
X41950Y-40700D01*
X42000Y-42150D02*
X41950Y-42100D01*
X42000Y-42350D02*
X42000Y-42150D01*
X41700Y-42650D02*
X42000Y-42350D01*
X41700Y-44250D02*
X41700Y-42650D01*
X41977Y-44527D02*
X41700Y-44250D01*
X57538Y-45206D02*
X57873Y-45206D01*
X60155Y-43444D02*
X60155Y-42484D01*
X59920Y-43680D02*
X60155Y-43444D01*
X58160Y-43680D02*
X59920Y-43680D01*
X58060Y-43780D02*
X58160Y-43680D01*
X58060Y-44160D02*
X58060Y-43780D01*
X58160Y-44260D02*
X58060Y-44160D01*
X58160Y-44920D02*
X58160Y-44260D01*
X57873Y-45206D02*
X58160Y-44920D01*
G54D33*
X60155Y-42484D02*
X60155Y-41984D01*
G54D34*
X57538Y-44950D02*
X57909Y-44950D01*
X58055Y-43544D02*
X58055Y-42484D01*
X57920Y-43680D02*
X58055Y-43544D01*
X57920Y-44260D02*
X57920Y-43680D01*
X58020Y-44360D02*
X57920Y-44260D01*
X58020Y-44840D02*
X58020Y-44360D01*
X57909Y-44950D02*
X58020Y-44840D01*
G54D33*
X58055Y-42484D02*
X58055Y-41984D01*
X60155Y-39984D02*
X60155Y-39484D01*
G54D34*
X57538Y-44694D02*
X57274Y-44694D01*
X57695Y-39984D02*
X58055Y-39984D01*
X57580Y-40100D02*
X57695Y-39984D01*
X57580Y-43680D02*
X57580Y-40100D01*
X57120Y-44140D02*
X57580Y-43680D01*
X57120Y-44540D02*
X57120Y-44140D01*
X57274Y-44694D02*
X57120Y-44540D01*
G54D33*
X58055Y-39984D02*
X58055Y-39484D01*
G54D34*
X43094Y-38173D02*
X43858Y-38937D01*
X46102Y-41417D02*
X47440Y-41417D01*
X47440Y-41417D02*
X47677Y-41181D01*
X49566Y-42755D02*
X49606Y-42716D01*
X49606Y-42716D02*
X50747Y-42716D01*
X43094Y-37940D02*
X43094Y-38173D01*
X46102Y-39881D02*
X46102Y-41417D01*
X45905Y-39685D02*
X46102Y-39881D01*
X44921Y-39685D02*
X45905Y-39685D01*
X44173Y-38937D02*
X44921Y-39685D01*
X43858Y-38937D02*
X44173Y-38937D01*
X44546Y-40974D02*
X44675Y-40974D01*
X45118Y-41417D02*
X46102Y-41417D01*
X44675Y-40974D02*
X45118Y-41417D01*
X43019Y-44902D02*
X44019Y-44902D01*
X44019Y-44902D02*
X44094Y-44827D01*
X43094Y-36940D02*
X43094Y-37188D01*
X46732Y-39881D02*
X46732Y-40984D01*
X46220Y-39370D02*
X46732Y-39881D01*
X44803Y-39370D02*
X46220Y-39370D01*
X43582Y-38149D02*
X44803Y-39370D01*
X43582Y-37677D02*
X43582Y-38149D01*
X43094Y-37188D02*
X43582Y-37677D01*
X46362Y-40984D02*
X46732Y-40984D01*
X46732Y-40984D02*
X47283Y-40984D01*
X50314Y-43031D02*
X50899Y-43031D01*
X50275Y-43070D02*
X50314Y-43031D01*
X47440Y-40826D02*
X48188Y-40826D01*
X47283Y-40984D02*
X47440Y-40826D01*
G54D33*
X53780Y-40840D02*
X53779Y-40839D01*
X53779Y-40839D02*
X53779Y-39521D01*
G54D10*
G36*
X54950Y-43550D02*
X54566Y-43550D01*
X54566Y-43079D01*
X54528Y-42985D01*
X54456Y-42913D01*
X54362Y-42874D01*
X54260Y-42873D01*
X54166Y-42912D01*
X54094Y-42984D01*
X54055Y-43078D01*
X54055Y-43180D01*
X54093Y-43274D01*
X54165Y-43346D01*
X54259Y-43385D01*
X54361Y-43385D01*
X54455Y-43346D01*
X54527Y-43275D01*
X54566Y-43181D01*
X54566Y-43079D01*
X54566Y-43550D01*
X53411Y-43550D01*
X53370Y-43510D01*
X53279Y-43472D01*
X53251Y-43472D01*
X53189Y-43534D01*
X53189Y-43550D01*
X53109Y-43550D01*
X53109Y-43534D01*
X53047Y-43472D01*
X53020Y-43472D01*
X52928Y-43510D01*
X52888Y-43550D01*
X52401Y-43550D01*
X52460Y-43491D01*
X52499Y-43397D01*
X52500Y-43295D01*
X52461Y-43201D01*
X52389Y-43129D01*
X52295Y-43090D01*
X52193Y-43090D01*
X52099Y-43129D01*
X52027Y-43201D01*
X51988Y-43295D01*
X51988Y-43397D01*
X52027Y-43491D01*
X52086Y-43550D01*
X51349Y-43550D01*
X51349Y-41739D01*
X51410Y-41677D01*
X51448Y-41586D01*
X51448Y-41558D01*
X51386Y-41496D01*
X51349Y-41496D01*
X51349Y-41416D01*
X51386Y-41416D01*
X51448Y-41354D01*
X51448Y-41327D01*
X51410Y-41235D01*
X51349Y-41173D01*
X51349Y-39999D01*
X52752Y-39999D01*
X52428Y-40323D01*
X52405Y-40332D01*
X52333Y-40404D01*
X52294Y-40498D01*
X52294Y-40600D01*
X52332Y-40694D01*
X52404Y-40766D01*
X52498Y-40805D01*
X52600Y-40805D01*
X52694Y-40767D01*
X52766Y-40695D01*
X52776Y-40671D01*
X53323Y-40124D01*
X53359Y-40070D01*
X53362Y-40070D01*
X53424Y-40008D01*
X53424Y-39999D01*
X53504Y-39999D01*
X53504Y-40008D01*
X53533Y-40037D01*
X53533Y-40766D01*
X53524Y-40788D01*
X53524Y-40890D01*
X53562Y-40984D01*
X53634Y-41056D01*
X53728Y-41095D01*
X53830Y-41095D01*
X53924Y-41057D01*
X53996Y-40985D01*
X54035Y-40891D01*
X54035Y-40789D01*
X54025Y-40764D01*
X54025Y-39999D01*
X54950Y-39999D01*
X54950Y-40644D01*
X54746Y-40644D01*
X54712Y-40609D01*
X54618Y-40570D01*
X54516Y-40570D01*
X54422Y-40609D01*
X54350Y-40681D01*
X54311Y-40775D01*
X54310Y-40877D01*
X54349Y-40971D01*
X54421Y-41043D01*
X54515Y-41082D01*
X54617Y-41082D01*
X54631Y-41076D01*
X54626Y-41090D01*
X54625Y-41192D01*
X54664Y-41286D01*
X54736Y-41358D01*
X54830Y-41397D01*
X54932Y-41397D01*
X54950Y-41390D01*
X54950Y-41525D01*
X54877Y-41525D01*
X54854Y-41515D01*
X54752Y-41515D01*
X54658Y-41554D01*
X54586Y-41626D01*
X54547Y-41720D01*
X54547Y-41822D01*
X54586Y-41916D01*
X54658Y-41988D01*
X54752Y-42027D01*
X54850Y-42027D01*
X54853Y-42027D01*
X54877Y-42017D01*
X54883Y-42017D01*
X54912Y-42046D01*
X54950Y-42046D01*
X54950Y-42126D01*
X54912Y-42126D01*
X54850Y-42188D01*
X54850Y-42216D01*
X54888Y-42307D01*
X54950Y-42370D01*
X54950Y-43550D01*
X54950Y-43550D01*
G37*
G54D11*
X54950Y-43550D02*
X54566Y-43550D01*
X54566Y-43079D01*
X54528Y-42985D01*
X54456Y-42913D01*
X54362Y-42874D01*
X54260Y-42873D01*
X54166Y-42912D01*
X54094Y-42984D01*
X54055Y-43078D01*
X54055Y-43180D01*
X54093Y-43274D01*
X54165Y-43346D01*
X54259Y-43385D01*
X54361Y-43385D01*
X54455Y-43346D01*
X54527Y-43275D01*
X54566Y-43181D01*
X54566Y-43079D01*
X54566Y-43550D01*
X53411Y-43550D01*
X53370Y-43510D01*
X53279Y-43472D01*
X53251Y-43472D01*
X53189Y-43534D01*
X53189Y-43550D01*
X53109Y-43550D01*
X53109Y-43534D01*
X53047Y-43472D01*
X53020Y-43472D01*
X52928Y-43510D01*
X52888Y-43550D01*
X52401Y-43550D01*
X52460Y-43491D01*
X52499Y-43397D01*
X52500Y-43295D01*
X52461Y-43201D01*
X52389Y-43129D01*
X52295Y-43090D01*
X52193Y-43090D01*
X52099Y-43129D01*
X52027Y-43201D01*
X51988Y-43295D01*
X51988Y-43397D01*
X52027Y-43491D01*
X52086Y-43550D01*
X51349Y-43550D01*
X51349Y-41739D01*
X51410Y-41677D01*
X51448Y-41586D01*
X51448Y-41558D01*
X51386Y-41496D01*
X51349Y-41496D01*
X51349Y-41416D01*
X51386Y-41416D01*
X51448Y-41354D01*
X51448Y-41327D01*
X51410Y-41235D01*
X51349Y-41173D01*
X51349Y-39999D01*
X52752Y-39999D01*
X52428Y-40323D01*
X52405Y-40332D01*
X52333Y-40404D01*
X52294Y-40498D01*
X52294Y-40600D01*
X52332Y-40694D01*
X52404Y-40766D01*
X52498Y-40805D01*
X52600Y-40805D01*
X52694Y-40767D01*
X52766Y-40695D01*
X52776Y-40671D01*
X53323Y-40124D01*
X53359Y-40070D01*
X53362Y-40070D01*
X53424Y-40008D01*
X53424Y-39999D01*
X53504Y-39999D01*
X53504Y-40008D01*
X53533Y-40037D01*
X53533Y-40766D01*
X53524Y-40788D01*
X53524Y-40890D01*
X53562Y-40984D01*
X53634Y-41056D01*
X53728Y-41095D01*
X53830Y-41095D01*
X53924Y-41057D01*
X53996Y-40985D01*
X54035Y-40891D01*
X54035Y-40789D01*
X54025Y-40764D01*
X54025Y-39999D01*
X54950Y-39999D01*
X54950Y-40644D01*
X54746Y-40644D01*
X54712Y-40609D01*
X54618Y-40570D01*
X54516Y-40570D01*
X54422Y-40609D01*
X54350Y-40681D01*
X54311Y-40775D01*
X54310Y-40877D01*
X54349Y-40971D01*
X54421Y-41043D01*
X54515Y-41082D01*
X54617Y-41082D01*
X54631Y-41076D01*
X54626Y-41090D01*
X54625Y-41192D01*
X54664Y-41286D01*
X54736Y-41358D01*
X54830Y-41397D01*
X54932Y-41397D01*
X54950Y-41390D01*
X54950Y-41525D01*
X54877Y-41525D01*
X54854Y-41515D01*
X54752Y-41515D01*
X54658Y-41554D01*
X54586Y-41626D01*
X54547Y-41720D01*
X54547Y-41822D01*
X54586Y-41916D01*
X54658Y-41988D01*
X54752Y-42027D01*
X54850Y-42027D01*
X54853Y-42027D01*
X54877Y-42017D01*
X54883Y-42017D01*
X54912Y-42046D01*
X54950Y-42046D01*
X54950Y-42126D01*
X54912Y-42126D01*
X54850Y-42188D01*
X54850Y-42216D01*
X54888Y-42307D01*
X54950Y-42370D01*
X54950Y-43550D01*
M02*
