%FSLAX34Y34*%
G04 Gerber Fmt 3.4, Leading zero omitted, Abs format*
G04 (created by PCBNEW (2013-11-03 BZR 4430)-product) date Fri 08 Nov 2013 11:28:15 PM CST*
%MOIN*%
G01*
G70*
G90*
G04 APERTURE LIST*
%ADD10C,0.005906*%
%ADD11R,0.055000X0.055000*%
%ADD12C,0.055000*%
%ADD13R,0.060000X0.060000*%
%ADD14C,0.060000*%
%ADD15C,0.021654*%
%ADD16C,0.019685*%
%ADD17C,0.006890*%
G04 APERTURE END LIST*
G54D10*
G54D11*
X48728Y-40393D03*
G54D12*
X47728Y-40393D03*
X50574Y-45314D03*
X52574Y-45314D03*
G54D13*
X46094Y-36940D03*
G54D14*
X46094Y-37940D03*
X45094Y-36940D03*
X45094Y-37940D03*
X44094Y-36940D03*
X44094Y-37940D03*
X43094Y-36940D03*
X43094Y-37940D03*
X42094Y-36940D03*
X42094Y-37940D03*
G54D15*
X57360Y-42840D03*
X58940Y-43920D03*
X43188Y-42992D03*
X53350Y-41350D03*
X50255Y-41358D03*
X46259Y-39724D03*
X43503Y-40393D03*
X57840Y-42840D03*
X60560Y-43620D03*
X52340Y-37500D03*
X57075Y-37475D03*
X60708Y-40984D03*
X55118Y-45629D03*
X55354Y-44409D03*
X60360Y-44520D03*
X56338Y-40157D03*
X56663Y-40157D03*
X57140Y-39180D03*
X57140Y-39420D03*
X58720Y-42007D03*
X54803Y-41771D03*
X57519Y-36673D03*
X42519Y-44625D03*
X52050Y-37650D03*
X50177Y-36830D03*
X47992Y-38779D03*
X47047Y-40295D03*
X46633Y-41692D03*
X60350Y-45275D03*
X56338Y-44409D03*
X45118Y-40000D03*
X53267Y-44645D03*
X52550Y-40550D03*
X50350Y-44125D03*
X60225Y-37525D03*
X47350Y-44675D03*
X56338Y-40610D03*
X56663Y-40836D03*
X50157Y-41771D03*
X56338Y-40836D03*
X56663Y-40610D03*
X56663Y-40383D03*
X56338Y-40383D03*
X49724Y-45314D03*
X54409Y-37559D03*
X54409Y-38267D03*
X52244Y-43346D03*
X41750Y-42250D03*
X55375Y-37750D03*
X56775Y-37625D03*
X59800Y-36675D03*
X54311Y-43129D03*
X53385Y-45177D03*
X43225Y-39950D03*
X45177Y-40984D03*
X43070Y-42322D03*
X43385Y-40984D03*
X50899Y-39856D03*
X46830Y-37913D03*
X48779Y-37893D03*
X50413Y-39803D03*
X58200Y-45400D03*
X56300Y-45425D03*
X55050Y-44200D03*
X59300Y-44825D03*
X54881Y-41141D03*
X54566Y-40826D03*
X43475Y-43825D03*
X44803Y-38976D03*
X57160Y-43800D03*
X56338Y-37559D03*
X58740Y-41496D03*
X58444Y-40334D03*
X55850Y-37725D03*
X59763Y-41496D03*
X52650Y-37550D03*
X47677Y-41181D03*
X49566Y-42755D03*
X50275Y-43070D03*
X48188Y-40826D03*
X53780Y-40840D03*
G54D16*
X57360Y-42840D02*
X57620Y-43100D01*
X57620Y-43100D02*
X57620Y-43680D01*
X57620Y-43680D02*
X57860Y-43920D01*
X57860Y-43920D02*
X58940Y-43920D01*
X45866Y-38700D02*
X45866Y-38169D01*
X45866Y-38169D02*
X46094Y-37940D01*
X43503Y-40393D02*
X43503Y-39606D01*
X45866Y-38700D02*
X46094Y-38929D01*
X44409Y-38700D02*
X45866Y-38700D01*
X43503Y-39606D02*
X44409Y-38700D01*
X42755Y-41456D02*
X42755Y-42637D01*
X43169Y-40393D02*
X42755Y-40807D01*
X42755Y-40807D02*
X42755Y-41456D01*
X43503Y-40393D02*
X43169Y-40393D01*
X43110Y-42992D02*
X43188Y-42992D01*
X42755Y-42637D02*
X43110Y-42992D01*
X46692Y-39527D02*
X48956Y-39527D01*
X50255Y-40826D02*
X50255Y-41358D01*
X48956Y-39527D02*
X50255Y-40826D01*
G54D17*
X46732Y-39527D02*
X46692Y-39527D01*
G54D16*
X46692Y-39527D02*
X46094Y-38929D01*
X46456Y-39527D02*
X46732Y-39527D01*
X46259Y-39724D02*
X46456Y-39527D01*
G54D17*
X58020Y-42660D02*
X57840Y-42840D01*
X58020Y-38700D02*
X58020Y-42660D01*
X57820Y-38500D02*
X58020Y-38700D01*
X54280Y-38500D02*
X57820Y-38500D01*
X54100Y-38320D02*
X54280Y-38500D01*
X52500Y-38320D02*
X54100Y-38320D01*
X52340Y-38160D02*
X52500Y-38320D01*
X52340Y-38080D02*
X52340Y-38160D01*
X52340Y-38080D02*
X52340Y-38100D01*
G54D16*
X60708Y-43471D02*
X60560Y-43620D01*
X60708Y-42952D02*
X60708Y-40984D01*
X60708Y-43471D02*
X60708Y-42952D01*
G54D17*
X52340Y-37500D02*
X52340Y-38080D01*
G54D16*
X57075Y-37475D02*
X58850Y-37475D01*
X59803Y-38428D02*
X58850Y-37475D01*
X59803Y-40708D02*
X59803Y-40787D01*
X59803Y-40787D02*
X59881Y-40866D01*
X59881Y-40866D02*
X60590Y-40866D01*
X60590Y-40866D02*
X60708Y-40984D01*
X59803Y-40203D02*
X59803Y-38428D01*
X59803Y-40203D02*
X59803Y-40708D01*
X55118Y-45629D02*
X55690Y-45629D01*
X59760Y-45120D02*
X60360Y-44520D01*
X59140Y-45120D02*
X59760Y-45120D01*
X58800Y-44780D02*
X59140Y-45120D01*
X56540Y-44780D02*
X58800Y-44780D01*
X55690Y-45629D02*
X56540Y-44780D01*
X55118Y-45629D02*
X55354Y-45393D01*
X55354Y-45393D02*
X55354Y-44409D01*
G54D17*
X52244Y-43346D02*
X52244Y-43385D01*
X41750Y-44348D02*
X41750Y-42250D01*
X42322Y-44921D02*
X41750Y-44348D01*
X50708Y-44921D02*
X42322Y-44921D01*
X52244Y-43385D02*
X50708Y-44921D01*
X56650Y-36450D02*
X55956Y-37156D01*
X57524Y-36450D02*
X56650Y-36450D01*
X56306Y-37156D02*
X55956Y-37156D01*
X56775Y-37625D02*
X56306Y-37156D01*
X55956Y-37156D02*
X55375Y-37750D01*
X59575Y-36450D02*
X57524Y-36450D01*
X59800Y-36675D02*
X59575Y-36450D01*
X54311Y-44251D02*
X54311Y-43129D01*
X53385Y-45177D02*
X54311Y-44251D01*
X43385Y-41102D02*
X43385Y-40984D01*
X43602Y-41318D02*
X43385Y-41102D01*
X43602Y-42204D02*
X43602Y-41318D01*
X43484Y-42322D02*
X43602Y-42204D01*
X43070Y-42322D02*
X43484Y-42322D01*
X47185Y-36968D02*
X47125Y-36968D01*
X48543Y-36968D02*
X47185Y-36968D01*
X49311Y-37736D02*
X48543Y-36968D01*
X49311Y-38267D02*
X49311Y-37736D01*
X50899Y-39856D02*
X49311Y-38267D01*
X46830Y-37263D02*
X46830Y-37913D01*
X47125Y-36968D02*
X46830Y-37263D01*
X48779Y-38169D02*
X48779Y-37893D01*
X50413Y-39803D02*
X48779Y-38169D01*
X58200Y-45400D02*
X58175Y-45425D01*
X58175Y-45425D02*
X56300Y-45425D01*
X58675Y-44200D02*
X55050Y-44200D01*
X59300Y-44825D02*
X58675Y-44200D01*
X42094Y-43078D02*
X42094Y-37940D01*
X54881Y-41141D02*
X53976Y-41141D01*
X53976Y-41141D02*
X50708Y-44409D01*
X50708Y-44409D02*
X43425Y-44409D01*
X43425Y-44409D02*
X42094Y-43078D01*
X50000Y-40196D02*
X49960Y-40196D01*
X54566Y-40826D02*
X53937Y-40196D01*
X53937Y-40196D02*
X50000Y-40196D01*
X42594Y-37440D02*
X42094Y-36940D01*
X42614Y-37460D02*
X42594Y-37440D01*
X46358Y-37460D02*
X42614Y-37460D01*
X46594Y-37696D02*
X46358Y-37460D01*
X46594Y-38602D02*
X46594Y-37696D01*
X47244Y-39251D02*
X46594Y-38602D01*
X49015Y-39251D02*
X47244Y-39251D01*
X49960Y-40196D02*
X49015Y-39251D01*
X43475Y-43200D02*
X43475Y-43825D01*
X44150Y-42525D02*
X43475Y-43200D01*
X44150Y-39625D02*
X44150Y-42525D01*
X44803Y-38976D02*
X44150Y-39625D01*
X58740Y-41496D02*
X59071Y-41496D01*
X56654Y-37875D02*
X56338Y-37559D01*
X57050Y-37875D02*
X56654Y-37875D01*
X57257Y-37667D02*
X57050Y-37875D01*
X58750Y-37667D02*
X57257Y-37667D01*
X59600Y-38517D02*
X58750Y-37667D01*
X59600Y-40900D02*
X59600Y-38517D01*
X59775Y-41075D02*
X59600Y-40900D01*
X60075Y-41075D02*
X59775Y-41075D01*
X60375Y-41375D02*
X60075Y-41075D01*
X60375Y-41625D02*
X60375Y-41375D01*
X60025Y-41975D02*
X60375Y-41625D01*
X59550Y-41975D02*
X60025Y-41975D01*
X59071Y-41496D02*
X59550Y-41975D01*
X59000Y-41150D02*
X59000Y-40889D01*
X59000Y-40889D02*
X58444Y-40334D01*
X59625Y-41775D02*
X59950Y-41775D01*
X59000Y-41150D02*
X59625Y-41775D01*
X60100Y-41625D02*
X60100Y-41425D01*
X59950Y-41775D02*
X60100Y-41625D01*
X59450Y-40975D02*
X59450Y-38575D01*
X59925Y-41250D02*
X59725Y-41250D01*
X60100Y-41425D02*
X59925Y-41250D01*
X59725Y-41250D02*
X59450Y-40975D01*
X57025Y-38174D02*
X57035Y-38174D01*
X58762Y-37862D02*
X57350Y-37859D01*
X59450Y-38575D02*
X58762Y-37862D01*
X57035Y-38174D02*
X57350Y-37859D01*
X56300Y-38175D02*
X57025Y-38174D01*
X57025Y-38174D02*
X57025Y-38174D01*
X55850Y-37725D02*
X56300Y-38175D01*
X59763Y-41496D02*
X59592Y-41496D01*
X59696Y-41496D02*
X59763Y-41496D01*
X59313Y-41216D02*
X59312Y-38675D01*
X59592Y-41496D02*
X59313Y-41216D01*
X59312Y-38620D02*
X58771Y-38078D01*
X54050Y-37550D02*
X54525Y-38025D01*
X54525Y-38025D02*
X55725Y-38025D01*
X59312Y-38620D02*
X59312Y-38675D01*
X56003Y-38303D02*
X55725Y-38025D01*
X57103Y-38303D02*
X56003Y-38303D01*
X57328Y-38078D02*
X57103Y-38303D01*
X58771Y-38078D02*
X57328Y-38078D01*
X59312Y-38675D02*
X59312Y-38665D01*
X52650Y-37550D02*
X54050Y-37550D01*
X47677Y-41181D02*
X49251Y-42755D01*
X49251Y-42755D02*
X49566Y-42755D01*
X50157Y-42952D02*
X50275Y-43070D01*
X50157Y-42795D02*
X50157Y-42952D01*
X48188Y-40826D02*
X50157Y-42795D01*
M02*
