%FSLAX34Y34*%
G04 Gerber Fmt 3.4, Leading zero omitted, Abs format*
G04 (created by PCBNEW (2013-11-03 BZR 4430)-product) date Fri 08 Nov 2013 11:28:15 PM CST*
%MOIN*%
G01*
G70*
G90*
G04 APERTURE LIST*
%ADD10C,0.005906*%
%ADD11C,0.012000*%
%ADD12C,0.008000*%
%ADD13C,0.005000*%
%ADD14C,0.004700*%
%ADD15C,0.003800*%
%ADD16C,0.003900*%
%ADD17C,0.000100*%
%ADD18C,0.006890*%
%ADD19C,0.004500*%
%ADD20C,0.004300*%
%ADD21R,0.024000X0.068000*%
%ADD22R,0.068000X0.024000*%
%ADD23R,0.038000X0.028000*%
%ADD24R,0.033000X0.053000*%
%ADD25R,0.053000X0.033000*%
%ADD26R,0.063000X0.063000*%
%ADD27C,0.063000*%
%ADD28R,0.068000X0.068000*%
%ADD29C,0.068000*%
%ADD30R,0.055900X0.018500*%
%ADD31R,0.043000X0.063000*%
%ADD32R,0.063000X0.043000*%
%ADD33R,0.053000X0.028000*%
%ADD34R,0.031622X0.031622*%
%ADD35R,0.047370X0.043433*%
%ADD36O,0.012643X0.038233*%
%ADD37O,0.038233X0.012643*%
%ADD38R,0.035559X0.035559*%
%ADD39O,0.034296X0.012643*%
%ADD40O,0.039496X0.017843*%
%ADD41O,0.012643X0.034296*%
G04 APERTURE END LIST*
G54D10*
G54D11*
X55119Y-39801D02*
X55119Y-43741D01*
X55119Y-43741D02*
X51179Y-43741D01*
X51179Y-39991D02*
X51179Y-43741D01*
X51369Y-39801D02*
X55119Y-39801D01*
X51179Y-39991D02*
X51369Y-39801D01*
G54D12*
X51899Y-40271D02*
G75*
G03X51899Y-40271I-250J0D01*
G74*
G01*
G54D13*
X42869Y-45127D02*
X42169Y-45127D01*
X42169Y-45127D02*
X42169Y-43927D01*
X42169Y-43927D02*
X42869Y-43927D01*
X42869Y-43927D02*
X42869Y-45127D01*
G54D14*
X59123Y-43024D02*
X58848Y-43024D01*
X59517Y-43024D02*
X59792Y-43024D01*
X59123Y-43536D02*
X58848Y-43536D01*
X59792Y-43536D02*
X59517Y-43536D01*
X58848Y-43530D02*
X58848Y-43030D01*
X59792Y-43030D02*
X59792Y-43530D01*
X51102Y-36928D02*
X51102Y-36653D01*
X51102Y-37322D02*
X51102Y-37597D01*
X50590Y-36928D02*
X50590Y-36653D01*
X50590Y-37597D02*
X50590Y-37322D01*
X50596Y-36653D02*
X51096Y-36653D01*
X51096Y-37597D02*
X50596Y-37597D01*
X49383Y-44264D02*
X49108Y-44264D01*
X49777Y-44264D02*
X50052Y-44264D01*
X49383Y-44776D02*
X49108Y-44776D01*
X50052Y-44776D02*
X49777Y-44776D01*
X49108Y-44770D02*
X49108Y-44270D01*
X50052Y-44270D02*
X50052Y-44770D01*
X48094Y-42572D02*
X48094Y-42847D01*
X48094Y-42178D02*
X48094Y-41903D01*
X48606Y-42572D02*
X48606Y-42847D01*
X48606Y-41903D02*
X48606Y-42178D01*
X48600Y-42847D02*
X48100Y-42847D01*
X48100Y-41903D02*
X48600Y-41903D01*
X56043Y-41968D02*
X56043Y-42243D01*
X56043Y-41574D02*
X56043Y-41299D01*
X56555Y-41968D02*
X56555Y-42243D01*
X56555Y-41299D02*
X56555Y-41574D01*
X56549Y-42243D02*
X56049Y-42243D01*
X56049Y-41299D02*
X56549Y-41299D01*
X43503Y-39153D02*
X43228Y-39153D01*
X43897Y-39153D02*
X44172Y-39153D01*
X43503Y-39665D02*
X43228Y-39665D01*
X44172Y-39665D02*
X43897Y-39665D01*
X43228Y-39659D02*
X43228Y-39159D01*
X44172Y-39159D02*
X44172Y-39659D01*
G54D13*
X46512Y-40446D02*
X45612Y-40446D01*
X45612Y-40446D02*
X45612Y-39946D01*
X45612Y-39946D02*
X46512Y-39946D01*
X46512Y-39946D02*
X46512Y-40446D01*
X42969Y-43596D02*
X42069Y-43596D01*
X42069Y-43596D02*
X42069Y-43096D01*
X42069Y-43096D02*
X42969Y-43096D01*
X42969Y-43096D02*
X42969Y-43596D01*
X41500Y-41500D02*
X42400Y-41500D01*
X42400Y-41500D02*
X42400Y-42000D01*
X42400Y-42000D02*
X41500Y-42000D01*
X41500Y-42000D02*
X41500Y-41500D01*
X41500Y-40850D02*
X42400Y-40850D01*
X42400Y-40850D02*
X42400Y-41350D01*
X42400Y-41350D02*
X41500Y-41350D01*
X41500Y-41350D02*
X41500Y-40850D01*
X46512Y-41234D02*
X45612Y-41234D01*
X45612Y-41234D02*
X45612Y-40734D01*
X45612Y-40734D02*
X46512Y-40734D01*
X46512Y-40734D02*
X46512Y-41234D01*
X44938Y-42021D02*
X44038Y-42021D01*
X44038Y-42021D02*
X44038Y-41521D01*
X44038Y-41521D02*
X44938Y-41521D01*
X44938Y-41521D02*
X44938Y-42021D01*
X44038Y-42309D02*
X44938Y-42309D01*
X44938Y-42309D02*
X44938Y-42809D01*
X44938Y-42809D02*
X44038Y-42809D01*
X44038Y-42809D02*
X44038Y-42309D01*
X48600Y-43100D02*
X48600Y-44000D01*
X48600Y-44000D02*
X48100Y-44000D01*
X48100Y-44000D02*
X48100Y-43100D01*
X48100Y-43100D02*
X48600Y-43100D01*
X50593Y-38568D02*
X51493Y-38568D01*
X51493Y-38568D02*
X51493Y-39068D01*
X51493Y-39068D02*
X50593Y-39068D01*
X50593Y-39068D02*
X50593Y-38568D01*
X47061Y-38624D02*
X47061Y-39524D01*
X47061Y-39524D02*
X46561Y-39524D01*
X46561Y-39524D02*
X46561Y-38624D01*
X46561Y-38624D02*
X47061Y-38624D01*
X44344Y-44077D02*
X44344Y-44977D01*
X44344Y-44977D02*
X43844Y-44977D01*
X43844Y-44977D02*
X43844Y-44077D01*
X43844Y-44077D02*
X44344Y-44077D01*
X49836Y-39943D02*
X49836Y-40843D01*
X49836Y-40843D02*
X49336Y-40843D01*
X49336Y-40843D02*
X49336Y-39943D01*
X49336Y-39943D02*
X49836Y-39943D01*
X54974Y-44569D02*
X54974Y-45469D01*
X54974Y-45469D02*
X54474Y-45469D01*
X54474Y-45469D02*
X54474Y-44569D01*
X54474Y-44569D02*
X54974Y-44569D01*
X54187Y-44864D02*
X54187Y-45764D01*
X54187Y-45764D02*
X53687Y-45764D01*
X53687Y-45764D02*
X53687Y-44864D01*
X53687Y-44864D02*
X54187Y-44864D01*
X56749Y-38478D02*
X55849Y-38478D01*
X55849Y-38478D02*
X55849Y-37978D01*
X55849Y-37978D02*
X56749Y-37978D01*
X56749Y-37978D02*
X56749Y-38478D01*
X54668Y-36797D02*
X55568Y-36797D01*
X55568Y-36797D02*
X55568Y-37297D01*
X55568Y-37297D02*
X54668Y-37297D01*
X54668Y-37297D02*
X54668Y-36797D01*
X55849Y-36797D02*
X56749Y-36797D01*
X56749Y-36797D02*
X56749Y-37297D01*
X56749Y-37297D02*
X55849Y-37297D01*
X55849Y-37297D02*
X55849Y-36797D01*
X55568Y-38478D02*
X54668Y-38478D01*
X54668Y-38478D02*
X54668Y-37978D01*
X54668Y-37978D02*
X55568Y-37978D01*
X55568Y-37978D02*
X55568Y-38478D01*
X52812Y-38478D02*
X51912Y-38478D01*
X51912Y-38478D02*
X51912Y-37978D01*
X51912Y-37978D02*
X52812Y-37978D01*
X52812Y-37978D02*
X52812Y-38478D01*
X53993Y-38478D02*
X53093Y-38478D01*
X53093Y-38478D02*
X53093Y-37978D01*
X53093Y-37978D02*
X53993Y-37978D01*
X53993Y-37978D02*
X53993Y-38478D01*
X51912Y-36797D02*
X52812Y-36797D01*
X52812Y-36797D02*
X52812Y-37297D01*
X52812Y-37297D02*
X51912Y-37297D01*
X51912Y-37297D02*
X51912Y-36797D01*
X53191Y-36797D02*
X54091Y-36797D01*
X54091Y-36797D02*
X54091Y-37297D01*
X54091Y-37297D02*
X53191Y-37297D01*
X53191Y-37297D02*
X53191Y-36797D01*
G54D11*
X46594Y-38440D02*
X41594Y-38440D01*
X41594Y-38440D02*
X41594Y-36440D01*
X41594Y-36440D02*
X46594Y-36440D01*
X46594Y-36440D02*
X46594Y-38440D01*
G54D14*
X60572Y-38656D02*
X60847Y-38656D01*
X60178Y-38656D02*
X59903Y-38656D01*
X60572Y-38144D02*
X60847Y-38144D01*
X59903Y-38144D02*
X60178Y-38144D01*
X60847Y-38150D02*
X60847Y-38650D01*
X59903Y-38650D02*
X59903Y-38150D01*
X56909Y-37677D02*
X56909Y-37952D01*
X56909Y-37283D02*
X56909Y-37008D01*
X57421Y-37677D02*
X57421Y-37952D01*
X57421Y-37008D02*
X57421Y-37283D01*
X57415Y-37952D02*
X56915Y-37952D01*
X56915Y-37008D02*
X57415Y-37008D01*
X60419Y-37522D02*
X60419Y-37797D01*
X60419Y-37128D02*
X60419Y-36853D01*
X60931Y-37522D02*
X60931Y-37797D01*
X60931Y-36853D02*
X60931Y-37128D01*
X60925Y-37797D02*
X60425Y-37797D01*
X60425Y-36853D02*
X60925Y-36853D01*
G54D15*
X44291Y-41181D02*
X43109Y-41181D01*
X43109Y-41181D02*
X43109Y-39999D01*
X43109Y-39999D02*
X44291Y-39999D01*
X44291Y-39999D02*
X44291Y-41181D01*
G54D16*
X55750Y-44100D02*
G75*
G03X55750Y-44100I-50J0D01*
G74*
G01*
X56150Y-44100D02*
X55750Y-44100D01*
X55750Y-44100D02*
X55750Y-43500D01*
X55750Y-43500D02*
X56150Y-43500D01*
X56550Y-43500D02*
X56950Y-43500D01*
X56950Y-43500D02*
X56950Y-44100D01*
X56950Y-44100D02*
X56550Y-44100D01*
X58224Y-38130D02*
G75*
G03X58224Y-38130I-50J0D01*
G74*
G01*
X58174Y-37680D02*
X58174Y-38080D01*
X58174Y-38080D02*
X57574Y-38080D01*
X57574Y-38080D02*
X57574Y-37680D01*
X57574Y-37280D02*
X57574Y-36880D01*
X57574Y-36880D02*
X58174Y-36880D01*
X58174Y-36880D02*
X58174Y-37280D01*
X60700Y-45175D02*
G75*
G03X60700Y-45175I-50J0D01*
G74*
G01*
X60650Y-44725D02*
X60650Y-45125D01*
X60650Y-45125D02*
X60050Y-45125D01*
X60050Y-45125D02*
X60050Y-44725D01*
X60050Y-44325D02*
X60050Y-43925D01*
X60050Y-43925D02*
X60650Y-43925D01*
X60650Y-43925D02*
X60650Y-44325D01*
G54D14*
X56259Y-39842D02*
X56534Y-39842D01*
X55865Y-39842D02*
X55590Y-39842D01*
X56259Y-39330D02*
X56534Y-39330D01*
X55590Y-39330D02*
X55865Y-39330D01*
X56534Y-39336D02*
X56534Y-39836D01*
X55590Y-39836D02*
X55590Y-39336D01*
X52047Y-44921D02*
X52047Y-44646D01*
X52047Y-45315D02*
X52047Y-45590D01*
X51535Y-44921D02*
X51535Y-44646D01*
X51535Y-45590D02*
X51535Y-45315D01*
X51541Y-44646D02*
X52041Y-44646D01*
X52041Y-45590D02*
X51541Y-45590D01*
X49763Y-41555D02*
X50038Y-41555D01*
X49369Y-41555D02*
X49094Y-41555D01*
X49763Y-41043D02*
X50038Y-41043D01*
X49094Y-41043D02*
X49369Y-41043D01*
X50038Y-41049D02*
X50038Y-41549D01*
X49094Y-41549D02*
X49094Y-41049D01*
G54D13*
X49842Y-36732D02*
X49842Y-39566D01*
X49842Y-39566D02*
X47795Y-39566D01*
X47795Y-39566D02*
X47795Y-36732D01*
X47795Y-36732D02*
X49842Y-36732D01*
X49118Y-36755D02*
X49118Y-36955D01*
X49118Y-36955D02*
X48618Y-36955D01*
X48618Y-36955D02*
X48618Y-36755D01*
G54D12*
X58355Y-42884D02*
X58355Y-39084D01*
X58355Y-39084D02*
X59855Y-39084D01*
X59855Y-39084D02*
X59855Y-42884D01*
X59855Y-42884D02*
X58355Y-42884D01*
X58855Y-42884D02*
X58855Y-42584D01*
X58855Y-42584D02*
X59255Y-42584D01*
X59255Y-42584D02*
X59255Y-42884D01*
G54D14*
X58716Y-43463D02*
X58716Y-43188D01*
X58716Y-43857D02*
X58716Y-44132D01*
X58204Y-43463D02*
X58204Y-43188D01*
X58204Y-44132D02*
X58204Y-43857D01*
X58210Y-43188D02*
X58710Y-43188D01*
X58710Y-44132D02*
X58210Y-44132D01*
G54D17*
G36*
X47694Y-43921D02*
X47686Y-43940D01*
X47666Y-43968D01*
X47649Y-43986D01*
X47649Y-43952D01*
X47639Y-43952D01*
X47618Y-43957D01*
X47608Y-43959D01*
X47571Y-43965D01*
X47548Y-43959D01*
X47539Y-43941D01*
X47539Y-43938D01*
X47539Y-43918D01*
X47509Y-43938D01*
X47489Y-43950D01*
X47456Y-43967D01*
X47447Y-43972D01*
X47447Y-43937D01*
X47436Y-43935D01*
X47412Y-43944D01*
X47376Y-43965D01*
X47369Y-43969D01*
X47334Y-43990D01*
X47301Y-44010D01*
X47277Y-44024D01*
X47272Y-44026D01*
X47256Y-44036D01*
X47252Y-44041D01*
X47253Y-44041D01*
X47264Y-44037D01*
X47288Y-44027D01*
X47322Y-44011D01*
X47359Y-43994D01*
X47404Y-43971D01*
X47434Y-43954D01*
X47447Y-43942D01*
X47447Y-43937D01*
X47447Y-43972D01*
X47415Y-43989D01*
X47371Y-44011D01*
X47366Y-44013D01*
X47254Y-44064D01*
X47240Y-44070D01*
X47240Y-44046D01*
X47235Y-44041D01*
X47230Y-44046D01*
X47235Y-44050D01*
X47240Y-44046D01*
X47240Y-44070D01*
X47221Y-44077D01*
X47221Y-44055D01*
X47216Y-44050D01*
X47212Y-44055D01*
X47216Y-44060D01*
X47221Y-44055D01*
X47221Y-44077D01*
X47134Y-44112D01*
X47010Y-44155D01*
X46883Y-44193D01*
X46756Y-44226D01*
X46632Y-44253D01*
X46513Y-44273D01*
X46402Y-44285D01*
X46302Y-44290D01*
X46215Y-44287D01*
X46200Y-44285D01*
X46112Y-44269D01*
X46039Y-44246D01*
X45981Y-44215D01*
X45935Y-44176D01*
X45908Y-44140D01*
X45895Y-44116D01*
X45886Y-44095D01*
X45882Y-44071D01*
X45880Y-44038D01*
X45880Y-44010D01*
X45881Y-43965D01*
X45884Y-43936D01*
X45890Y-43923D01*
X45892Y-43922D01*
X45898Y-43925D01*
X45902Y-43942D01*
X45903Y-43974D01*
X45903Y-43986D01*
X45907Y-44047D01*
X45917Y-44096D01*
X45937Y-44137D01*
X45952Y-44158D01*
X45988Y-44193D01*
X46033Y-44220D01*
X46088Y-44239D01*
X46156Y-44252D01*
X46239Y-44259D01*
X46315Y-44260D01*
X46477Y-44251D01*
X46644Y-44225D01*
X46814Y-44184D01*
X46984Y-44128D01*
X47152Y-44057D01*
X47282Y-43992D01*
X47322Y-43968D01*
X47364Y-43943D01*
X47404Y-43918D01*
X47439Y-43895D01*
X47465Y-43876D01*
X47480Y-43863D01*
X47483Y-43859D01*
X47474Y-43861D01*
X47452Y-43867D01*
X47418Y-43877D01*
X47376Y-43891D01*
X47371Y-43892D01*
X47274Y-43922D01*
X47274Y-43895D01*
X47268Y-43892D01*
X47248Y-43897D01*
X47240Y-43901D01*
X47232Y-43908D01*
X47239Y-43909D01*
X47257Y-43904D01*
X47263Y-43901D01*
X47274Y-43895D01*
X47274Y-43922D01*
X47260Y-43926D01*
X47151Y-43956D01*
X47044Y-43982D01*
X46942Y-44004D01*
X46845Y-44021D01*
X46758Y-44034D01*
X46680Y-44041D01*
X46614Y-44043D01*
X46562Y-44040D01*
X46526Y-44030D01*
X46522Y-44028D01*
X46501Y-44016D01*
X46492Y-44007D01*
X46498Y-44001D01*
X46518Y-43998D01*
X46555Y-43997D01*
X46609Y-43999D01*
X46630Y-43999D01*
X46689Y-44002D01*
X46734Y-44003D01*
X46773Y-44001D01*
X46810Y-43997D01*
X46850Y-43990D01*
X46867Y-43986D01*
X46934Y-43972D01*
X47004Y-43954D01*
X47073Y-43934D01*
X47139Y-43914D01*
X47198Y-43893D01*
X47249Y-43873D01*
X47288Y-43855D01*
X47312Y-43840D01*
X47314Y-43838D01*
X47323Y-43828D01*
X47316Y-43828D01*
X47305Y-43830D01*
X47217Y-43853D01*
X47136Y-43869D01*
X47052Y-43879D01*
X47029Y-43881D01*
X47029Y-43854D01*
X47028Y-43853D01*
X47015Y-43849D01*
X46989Y-43848D01*
X46947Y-43849D01*
X46911Y-43852D01*
X46805Y-43861D01*
X46922Y-43862D01*
X46973Y-43862D01*
X47007Y-43861D01*
X47025Y-43858D01*
X47029Y-43854D01*
X47029Y-43881D01*
X47020Y-43882D01*
X46949Y-43885D01*
X46884Y-43885D01*
X46825Y-43882D01*
X46775Y-43876D01*
X46738Y-43868D01*
X46714Y-43857D01*
X46707Y-43846D01*
X46716Y-43843D01*
X46740Y-43840D01*
X46777Y-43835D01*
X46824Y-43831D01*
X46864Y-43828D01*
X46942Y-43822D01*
X47009Y-43814D01*
X47062Y-43804D01*
X47100Y-43793D01*
X47120Y-43782D01*
X47123Y-43779D01*
X47117Y-43775D01*
X47093Y-43772D01*
X47053Y-43771D01*
X47004Y-43770D01*
X46953Y-43770D01*
X46914Y-43768D01*
X46883Y-43765D01*
X46855Y-43759D01*
X46824Y-43750D01*
X46789Y-43738D01*
X46623Y-43687D01*
X46459Y-43655D01*
X46297Y-43640D01*
X46137Y-43644D01*
X45977Y-43667D01*
X45896Y-43685D01*
X45862Y-43693D01*
X45836Y-43696D01*
X45823Y-43695D01*
X45823Y-43694D01*
X45825Y-43682D01*
X45836Y-43659D01*
X45854Y-43628D01*
X45876Y-43593D01*
X45900Y-43558D01*
X45924Y-43527D01*
X45940Y-43509D01*
X45968Y-43476D01*
X45993Y-43439D01*
X46005Y-43420D01*
X46017Y-43394D01*
X46024Y-43369D01*
X46028Y-43340D01*
X46029Y-43300D01*
X46029Y-43289D01*
X46028Y-43244D01*
X46025Y-43212D01*
X46018Y-43187D01*
X46009Y-43166D01*
X45970Y-43112D01*
X45918Y-43069D01*
X45856Y-43038D01*
X45787Y-43020D01*
X45714Y-43017D01*
X45674Y-43022D01*
X45597Y-43044D01*
X45526Y-43081D01*
X45465Y-43131D01*
X45417Y-43190D01*
X45400Y-43222D01*
X45380Y-43262D01*
X45280Y-43278D01*
X45236Y-43284D01*
X45197Y-43290D01*
X45167Y-43293D01*
X45155Y-43293D01*
X45130Y-43299D01*
X45114Y-43306D01*
X45103Y-43317D01*
X45103Y-43330D01*
X45110Y-43346D01*
X45120Y-43362D01*
X45132Y-43376D01*
X45149Y-43385D01*
X45174Y-43393D01*
X45208Y-43398D01*
X45255Y-43401D01*
X45316Y-43404D01*
X45375Y-43406D01*
X45572Y-43410D01*
X45570Y-43434D01*
X45566Y-43453D01*
X45555Y-43483D01*
X45540Y-43521D01*
X45531Y-43542D01*
X45492Y-43638D01*
X45467Y-43729D01*
X45454Y-43818D01*
X45451Y-43882D01*
X45458Y-43992D01*
X45481Y-44091D01*
X45519Y-44182D01*
X45573Y-44263D01*
X45643Y-44336D01*
X45729Y-44401D01*
X45832Y-44457D01*
X45952Y-44506D01*
X45990Y-44518D01*
X46028Y-44531D01*
X46058Y-44544D01*
X46077Y-44554D01*
X46081Y-44558D01*
X46074Y-44583D01*
X46059Y-44614D01*
X46039Y-44645D01*
X46017Y-44669D01*
X46016Y-44670D01*
X45985Y-44689D01*
X45948Y-44695D01*
X45902Y-44689D01*
X45865Y-44677D01*
X45788Y-44657D01*
X45719Y-44653D01*
X45659Y-44666D01*
X45605Y-44695D01*
X45600Y-44699D01*
X45573Y-44721D01*
X45606Y-44727D01*
X45642Y-44740D01*
X45662Y-44760D01*
X45666Y-44785D01*
X45653Y-44812D01*
X45623Y-44838D01*
X45620Y-44840D01*
X45581Y-44864D01*
X45623Y-44864D01*
X45656Y-44867D01*
X45683Y-44876D01*
X45687Y-44879D01*
X45700Y-44890D01*
X45706Y-44904D01*
X45706Y-44928D01*
X45705Y-44944D01*
X45704Y-44972D01*
X45705Y-44990D01*
X45707Y-44994D01*
X45716Y-44989D01*
X45736Y-44973D01*
X45761Y-44951D01*
X45770Y-44943D01*
X45827Y-44896D01*
X45880Y-44865D01*
X45928Y-44848D01*
X45961Y-44845D01*
X46000Y-44842D01*
X46032Y-44832D01*
X46059Y-44813D01*
X46083Y-44783D01*
X46107Y-44739D01*
X46133Y-44678D01*
X46133Y-44678D01*
X46150Y-44637D01*
X46166Y-44606D01*
X46183Y-44585D01*
X46205Y-44573D01*
X46235Y-44567D01*
X46276Y-44566D01*
X46331Y-44568D01*
X46362Y-44570D01*
X46444Y-44574D01*
X46515Y-44574D01*
X46570Y-44570D01*
X46625Y-44564D01*
X46665Y-44562D01*
X46693Y-44562D01*
X46714Y-44567D01*
X46730Y-44576D01*
X46745Y-44588D01*
X46776Y-44625D01*
X46803Y-44668D01*
X46821Y-44709D01*
X46823Y-44719D01*
X46821Y-44752D01*
X46803Y-44780D01*
X46772Y-44801D01*
X46754Y-44807D01*
X46726Y-44812D01*
X46682Y-44813D01*
X46626Y-44813D01*
X46593Y-44811D01*
X46534Y-44809D01*
X46491Y-44809D01*
X46460Y-44812D01*
X46441Y-44817D01*
X46423Y-44826D01*
X46422Y-44830D01*
X46431Y-44833D01*
X46465Y-44840D01*
X46485Y-44846D01*
X46499Y-44853D01*
X46506Y-44860D01*
X46517Y-44883D01*
X46519Y-44913D01*
X46512Y-44943D01*
X46507Y-44954D01*
X46500Y-44964D01*
X46501Y-44969D01*
X46514Y-44967D01*
X46542Y-44960D01*
X46575Y-44954D01*
X46604Y-44952D01*
X46616Y-44953D01*
X46647Y-44968D01*
X46669Y-44996D01*
X46677Y-45030D01*
X46677Y-45039D01*
X46676Y-45060D01*
X46682Y-45067D01*
X46700Y-45065D01*
X46702Y-45064D01*
X46729Y-45056D01*
X46760Y-45044D01*
X46771Y-45039D01*
X46802Y-45020D01*
X46830Y-44994D01*
X46836Y-44987D01*
X46856Y-44963D01*
X46882Y-44931D01*
X46905Y-44905D01*
X46928Y-44878D01*
X46946Y-44852D01*
X46955Y-44836D01*
X46957Y-44798D01*
X46944Y-44754D01*
X46916Y-44710D01*
X46894Y-44677D01*
X46873Y-44641D01*
X46856Y-44606D01*
X46844Y-44575D01*
X46840Y-44555D01*
X46841Y-44551D01*
X46852Y-44543D01*
X46877Y-44535D01*
X46906Y-44528D01*
X46975Y-44513D01*
X47041Y-44491D01*
X47096Y-44466D01*
X47113Y-44456D01*
X47132Y-44442D01*
X47161Y-44416D01*
X47196Y-44383D01*
X47237Y-44344D01*
X47277Y-44304D01*
X47328Y-44253D01*
X47386Y-44196D01*
X47446Y-44140D01*
X47501Y-44089D01*
X47528Y-44065D01*
X47567Y-44029D01*
X47601Y-43998D01*
X47628Y-43974D01*
X47644Y-43957D01*
X47649Y-43952D01*
X47649Y-43986D01*
X47632Y-44004D01*
X47585Y-44049D01*
X47541Y-44088D01*
X47494Y-44131D01*
X47440Y-44182D01*
X47382Y-44238D01*
X47326Y-44293D01*
X47286Y-44332D01*
X47237Y-44381D01*
X47199Y-44419D01*
X47168Y-44447D01*
X47141Y-44468D01*
X47118Y-44483D01*
X47095Y-44496D01*
X47090Y-44498D01*
X47045Y-44517D01*
X46996Y-44534D01*
X46950Y-44547D01*
X46912Y-44554D01*
X46897Y-44555D01*
X46878Y-44559D01*
X46871Y-44564D01*
X46871Y-44578D01*
X46881Y-44604D01*
X46898Y-44636D01*
X46921Y-44671D01*
X46937Y-44694D01*
X46968Y-44743D01*
X46982Y-44789D01*
X46979Y-44833D01*
X46958Y-44878D01*
X46923Y-44924D01*
X46896Y-44955D01*
X46871Y-44986D01*
X46854Y-45006D01*
X46823Y-45036D01*
X46779Y-45063D01*
X46728Y-45083D01*
X46686Y-45092D01*
X46641Y-45099D01*
X46647Y-45053D01*
X46650Y-45024D01*
X46647Y-45007D01*
X46637Y-44995D01*
X46631Y-44991D01*
X46609Y-44980D01*
X46583Y-44977D01*
X46550Y-44984D01*
X46515Y-44995D01*
X46486Y-45005D01*
X46465Y-45009D01*
X46457Y-45009D01*
X46457Y-44998D01*
X46466Y-44976D01*
X46478Y-44951D01*
X46492Y-44923D01*
X46498Y-44906D01*
X46497Y-44895D01*
X46490Y-44885D01*
X46486Y-44881D01*
X46459Y-44866D01*
X46416Y-44857D01*
X46414Y-44857D01*
X46383Y-44852D01*
X46365Y-44845D01*
X46361Y-44841D01*
X46369Y-44830D01*
X46388Y-44815D01*
X46401Y-44807D01*
X46416Y-44799D01*
X46432Y-44793D01*
X46450Y-44788D01*
X46474Y-44786D01*
X46507Y-44785D01*
X46554Y-44784D01*
X46601Y-44784D01*
X46660Y-44784D01*
X46703Y-44783D01*
X46734Y-44782D01*
X46754Y-44779D01*
X46768Y-44775D01*
X46778Y-44769D01*
X46781Y-44766D01*
X46795Y-44749D01*
X46801Y-44735D01*
X46795Y-44712D01*
X46780Y-44681D01*
X46760Y-44648D01*
X46737Y-44619D01*
X46729Y-44610D01*
X46698Y-44580D01*
X46618Y-44592D01*
X46568Y-44597D01*
X46508Y-44600D01*
X46436Y-44599D01*
X46377Y-44598D01*
X46315Y-44596D01*
X46269Y-44595D01*
X46237Y-44596D01*
X46216Y-44598D01*
X46204Y-44602D01*
X46201Y-44604D01*
X46190Y-44617D01*
X46176Y-44644D01*
X46160Y-44679D01*
X46152Y-44699D01*
X46123Y-44763D01*
X46095Y-44810D01*
X46065Y-44843D01*
X46030Y-44863D01*
X45988Y-44872D01*
X45963Y-44873D01*
X45909Y-44881D01*
X45857Y-44906D01*
X45805Y-44948D01*
X45768Y-44980D01*
X45732Y-45007D01*
X45701Y-45025D01*
X45679Y-45032D01*
X45678Y-45032D01*
X45667Y-45031D01*
X45662Y-45026D01*
X45663Y-45014D01*
X45670Y-44989D01*
X45676Y-44970D01*
X45685Y-44936D01*
X45684Y-44914D01*
X45673Y-44901D01*
X45648Y-44894D01*
X45607Y-44892D01*
X45594Y-44892D01*
X45555Y-44890D01*
X45530Y-44887D01*
X45520Y-44882D01*
X45520Y-44882D01*
X45528Y-44873D01*
X45547Y-44857D01*
X45574Y-44839D01*
X45576Y-44837D01*
X45605Y-44818D01*
X45627Y-44801D01*
X45637Y-44789D01*
X45637Y-44789D01*
X45635Y-44772D01*
X45616Y-44758D01*
X45583Y-44748D01*
X45575Y-44747D01*
X45549Y-44739D01*
X45540Y-44727D01*
X45549Y-44710D01*
X45569Y-44690D01*
X45627Y-44653D01*
X45693Y-44633D01*
X45764Y-44629D01*
X45842Y-44643D01*
X45857Y-44648D01*
X45909Y-44662D01*
X45949Y-44667D01*
X45979Y-44662D01*
X46003Y-44647D01*
X46009Y-44642D01*
X46028Y-44617D01*
X46042Y-44593D01*
X46042Y-44591D01*
X46046Y-44580D01*
X46045Y-44572D01*
X46037Y-44564D01*
X46019Y-44556D01*
X45988Y-44544D01*
X45953Y-44532D01*
X45836Y-44487D01*
X45736Y-44436D01*
X45652Y-44379D01*
X45581Y-44315D01*
X45525Y-44243D01*
X45480Y-44161D01*
X45457Y-44105D01*
X45446Y-44071D01*
X45439Y-44039D01*
X45433Y-44002D01*
X45430Y-43955D01*
X45429Y-43914D01*
X45427Y-43860D01*
X45428Y-43818D01*
X45431Y-43783D01*
X45436Y-43749D01*
X45446Y-43710D01*
X45448Y-43699D01*
X45464Y-43646D01*
X45483Y-43589D01*
X45504Y-43536D01*
X45510Y-43523D01*
X45525Y-43487D01*
X45536Y-43457D01*
X45542Y-43439D01*
X45542Y-43434D01*
X45532Y-43433D01*
X45506Y-43432D01*
X45467Y-43431D01*
X45420Y-43431D01*
X45379Y-43432D01*
X45313Y-43433D01*
X45262Y-43432D01*
X45224Y-43430D01*
X45194Y-43426D01*
X45170Y-43420D01*
X45125Y-43401D01*
X45096Y-43376D01*
X45083Y-43341D01*
X45083Y-43317D01*
X45086Y-43279D01*
X45190Y-43264D01*
X45249Y-43256D01*
X45293Y-43249D01*
X45324Y-43243D01*
X45345Y-43237D01*
X45359Y-43229D01*
X45369Y-43219D01*
X45378Y-43207D01*
X45384Y-43195D01*
X45436Y-43122D01*
X45497Y-43066D01*
X45567Y-43027D01*
X45647Y-43003D01*
X45736Y-42996D01*
X45758Y-42996D01*
X45838Y-43007D01*
X45906Y-43030D01*
X45962Y-43067D01*
X46008Y-43118D01*
X46033Y-43158D01*
X46045Y-43185D01*
X46053Y-43211D01*
X46056Y-43242D01*
X46057Y-43284D01*
X46056Y-43327D01*
X46053Y-43359D01*
X46045Y-43387D01*
X46031Y-43420D01*
X46028Y-43424D01*
X46007Y-43463D01*
X45980Y-43502D01*
X45959Y-43527D01*
X45938Y-43552D01*
X45915Y-43582D01*
X45894Y-43611D01*
X45877Y-43637D01*
X45868Y-43656D01*
X45867Y-43662D01*
X45877Y-43662D01*
X45901Y-43658D01*
X45934Y-43651D01*
X45945Y-43648D01*
X46092Y-43622D01*
X46245Y-43614D01*
X46403Y-43622D01*
X46564Y-43648D01*
X46727Y-43690D01*
X46773Y-43704D01*
X46817Y-43719D01*
X46852Y-43729D01*
X46885Y-43736D01*
X46920Y-43740D01*
X46963Y-43743D01*
X47016Y-43745D01*
X47066Y-43747D01*
X47110Y-43750D01*
X47146Y-43753D01*
X47168Y-43756D01*
X47172Y-43756D01*
X47190Y-43766D01*
X47189Y-43778D01*
X47171Y-43792D01*
X47135Y-43808D01*
X47076Y-43830D01*
X47118Y-43836D01*
X47168Y-43837D01*
X47228Y-43825D01*
X47295Y-43803D01*
X47309Y-43797D01*
X47342Y-43786D01*
X47361Y-43786D01*
X47365Y-43798D01*
X47355Y-43822D01*
X47348Y-43834D01*
X47334Y-43858D01*
X47325Y-43874D01*
X47324Y-43877D01*
X47332Y-43876D01*
X47355Y-43870D01*
X47387Y-43859D01*
X47427Y-43846D01*
X47468Y-43832D01*
X47501Y-43823D01*
X47525Y-43817D01*
X47535Y-43818D01*
X47533Y-43831D01*
X47522Y-43851D01*
X47505Y-43873D01*
X47486Y-43892D01*
X47482Y-43895D01*
X47470Y-43908D01*
X47473Y-43915D01*
X47487Y-43914D01*
X47508Y-43904D01*
X47519Y-43897D01*
X47541Y-43883D01*
X47557Y-43874D01*
X47560Y-43873D01*
X47565Y-43881D01*
X47567Y-43901D01*
X47567Y-43906D01*
X47569Y-43928D01*
X47577Y-43937D01*
X47587Y-43938D01*
X47607Y-43934D01*
X47634Y-43923D01*
X47643Y-43918D01*
X47669Y-43906D01*
X47685Y-43905D01*
X47690Y-43908D01*
X47694Y-43921D01*
X47694Y-43921D01*
X47694Y-43921D01*
G37*
G36*
X45763Y-43204D02*
X45754Y-43228D01*
X45735Y-43249D01*
X45708Y-43264D01*
X45675Y-43271D01*
X45640Y-43267D01*
X45626Y-43261D01*
X45594Y-43240D01*
X45579Y-43214D01*
X45581Y-43185D01*
X45599Y-43157D01*
X45628Y-43140D01*
X45666Y-43134D01*
X45705Y-43138D01*
X45738Y-43153D01*
X45739Y-43154D01*
X45758Y-43178D01*
X45763Y-43204D01*
X45763Y-43204D01*
X45763Y-43204D01*
G37*
G54D13*
X56830Y-43290D02*
X55930Y-43290D01*
X55930Y-43290D02*
X55930Y-42790D01*
X55930Y-42790D02*
X56830Y-42790D01*
X56830Y-42790D02*
X56830Y-43290D01*
G54D18*
X44000Y-42838D02*
G75*
G03X44000Y-42838I-55J0D01*
G74*
G01*
X43915Y-41480D02*
X43915Y-42819D01*
X43384Y-41480D02*
X43384Y-42819D01*
X43915Y-42819D02*
X43384Y-42819D01*
X43915Y-41480D02*
X43384Y-41480D01*
X50153Y-44165D02*
X50153Y-42984D01*
X50153Y-42984D02*
X48696Y-42984D01*
X48696Y-42984D02*
X48696Y-44165D01*
X48696Y-44165D02*
X50153Y-44165D01*
G54D10*
X56850Y-45413D02*
X56850Y-45295D01*
X56850Y-45295D02*
X56574Y-45295D01*
X56574Y-45295D02*
X56574Y-45413D01*
X57283Y-45413D02*
X56101Y-45413D01*
X56101Y-45413D02*
X56101Y-44231D01*
X56101Y-44231D02*
X57283Y-44231D01*
X57283Y-44231D02*
X57283Y-45413D01*
G54D18*
X58464Y-38031D02*
X58464Y-37874D01*
X58464Y-38031D02*
X58622Y-38031D01*
X58464Y-36850D02*
X58622Y-36850D01*
X58464Y-36850D02*
X58464Y-37007D01*
X59645Y-36850D02*
X59488Y-36850D01*
X59645Y-36850D02*
X59645Y-37007D01*
X59645Y-38031D02*
X59645Y-37874D01*
X59645Y-38031D02*
X59488Y-38031D01*
X59571Y-37913D02*
G75*
G03X59571Y-37913I-44J0D01*
G74*
G01*
X58459Y-45415D02*
X58459Y-45356D01*
X58459Y-45415D02*
X58715Y-45415D01*
X59640Y-45415D02*
X59640Y-45356D01*
X59640Y-45415D02*
X59384Y-45415D01*
X59640Y-44234D02*
X59640Y-44293D01*
X59640Y-44234D02*
X59384Y-44234D01*
X58459Y-44234D02*
X58459Y-44293D01*
X58459Y-44234D02*
X58695Y-44234D01*
X58931Y-44608D02*
G75*
G03X58931Y-44608I-98J0D01*
G74*
G01*
G54D12*
X50554Y-44818D02*
X50554Y-44218D01*
X50973Y-44761D02*
X50954Y-44790D01*
X50897Y-44818D01*
X50859Y-44818D01*
X50802Y-44790D01*
X50763Y-44732D01*
X50744Y-44675D01*
X50725Y-44561D01*
X50725Y-44475D01*
X50744Y-44361D01*
X50763Y-44304D01*
X50802Y-44247D01*
X50859Y-44218D01*
X50897Y-44218D01*
X50954Y-44247D01*
X50973Y-44275D01*
X51354Y-44818D02*
X51125Y-44818D01*
X51240Y-44818D02*
X51240Y-44218D01*
X51202Y-44304D01*
X51163Y-44361D01*
X51125Y-44390D01*
G54D13*
X42190Y-45213D02*
X42190Y-45415D01*
X42202Y-45439D01*
X42214Y-45451D01*
X42238Y-45463D01*
X42285Y-45463D01*
X42309Y-45451D01*
X42321Y-45439D01*
X42333Y-45415D01*
X42333Y-45213D01*
X42583Y-45463D02*
X42440Y-45463D01*
X42511Y-45463D02*
X42511Y-45213D01*
X42488Y-45248D01*
X42464Y-45272D01*
X42440Y-45284D01*
X42738Y-45213D02*
X42761Y-45213D01*
X42785Y-45225D01*
X42797Y-45236D01*
X42809Y-45260D01*
X42821Y-45308D01*
X42821Y-45367D01*
X42809Y-45415D01*
X42797Y-45439D01*
X42785Y-45451D01*
X42761Y-45463D01*
X42738Y-45463D01*
X42714Y-45451D01*
X42702Y-45439D01*
X42690Y-45415D01*
X42678Y-45367D01*
X42678Y-45308D01*
X42690Y-45260D01*
X42702Y-45236D01*
X42714Y-45225D01*
X42738Y-45213D01*
G54D19*
X59284Y-43804D02*
X59276Y-43814D01*
X59250Y-43824D01*
X59233Y-43824D01*
X59207Y-43814D01*
X59190Y-43795D01*
X59182Y-43776D01*
X59173Y-43738D01*
X59173Y-43709D01*
X59182Y-43671D01*
X59190Y-43652D01*
X59207Y-43633D01*
X59233Y-43624D01*
X59250Y-43624D01*
X59276Y-43633D01*
X59284Y-43643D01*
X59387Y-43709D02*
X59370Y-43700D01*
X59362Y-43690D01*
X59353Y-43671D01*
X59353Y-43662D01*
X59362Y-43643D01*
X59370Y-43633D01*
X59387Y-43624D01*
X59422Y-43624D01*
X59439Y-43633D01*
X59447Y-43643D01*
X59456Y-43662D01*
X59456Y-43671D01*
X59447Y-43690D01*
X59439Y-43700D01*
X59422Y-43709D01*
X59387Y-43709D01*
X59370Y-43719D01*
X59362Y-43728D01*
X59353Y-43747D01*
X59353Y-43785D01*
X59362Y-43804D01*
X59370Y-43814D01*
X59387Y-43824D01*
X59422Y-43824D01*
X59439Y-43814D01*
X59447Y-43804D01*
X59456Y-43785D01*
X59456Y-43747D01*
X59447Y-43728D01*
X59439Y-43719D01*
X59422Y-43709D01*
X50736Y-37807D02*
X50728Y-37816D01*
X50702Y-37826D01*
X50685Y-37826D01*
X50659Y-37816D01*
X50642Y-37797D01*
X50633Y-37778D01*
X50625Y-37740D01*
X50625Y-37711D01*
X50633Y-37673D01*
X50642Y-37654D01*
X50659Y-37635D01*
X50685Y-37626D01*
X50702Y-37626D01*
X50728Y-37635D01*
X50736Y-37645D01*
X50908Y-37826D02*
X50805Y-37826D01*
X50856Y-37826D02*
X50856Y-37626D01*
X50839Y-37654D01*
X50822Y-37673D01*
X50805Y-37683D01*
X51019Y-37626D02*
X51036Y-37626D01*
X51053Y-37635D01*
X51062Y-37645D01*
X51071Y-37664D01*
X51079Y-37702D01*
X51079Y-37749D01*
X51071Y-37788D01*
X51062Y-37807D01*
X51053Y-37816D01*
X51036Y-37826D01*
X51019Y-37826D01*
X51002Y-37816D01*
X50993Y-37807D01*
X50985Y-37788D01*
X50976Y-37749D01*
X50976Y-37702D01*
X50985Y-37664D01*
X50993Y-37645D01*
X51002Y-37635D01*
X51019Y-37626D01*
X49556Y-45026D02*
X49547Y-45035D01*
X49521Y-45045D01*
X49504Y-45045D01*
X49478Y-45035D01*
X49461Y-45016D01*
X49453Y-44997D01*
X49444Y-44959D01*
X49444Y-44931D01*
X49453Y-44893D01*
X49461Y-44874D01*
X49478Y-44855D01*
X49504Y-44845D01*
X49521Y-44845D01*
X49547Y-44855D01*
X49556Y-44864D01*
X49616Y-44845D02*
X49727Y-44845D01*
X49667Y-44921D01*
X49693Y-44921D01*
X49710Y-44931D01*
X49718Y-44940D01*
X49727Y-44959D01*
X49727Y-45007D01*
X49718Y-45026D01*
X49710Y-45035D01*
X49693Y-45045D01*
X49641Y-45045D01*
X49624Y-45035D01*
X49616Y-45026D01*
X47961Y-42385D02*
X47970Y-42394D01*
X47980Y-42419D01*
X47980Y-42437D01*
X47970Y-42462D01*
X47951Y-42479D01*
X47932Y-42488D01*
X47894Y-42497D01*
X47866Y-42497D01*
X47828Y-42488D01*
X47809Y-42479D01*
X47789Y-42462D01*
X47780Y-42437D01*
X47780Y-42419D01*
X47789Y-42394D01*
X47799Y-42385D01*
X47799Y-42317D02*
X47789Y-42308D01*
X47780Y-42291D01*
X47780Y-42248D01*
X47789Y-42231D01*
X47799Y-42222D01*
X47818Y-42214D01*
X47837Y-42214D01*
X47866Y-42222D01*
X47980Y-42325D01*
X47980Y-42214D01*
X56720Y-41846D02*
X56711Y-41855D01*
X56685Y-41865D01*
X56668Y-41865D01*
X56642Y-41855D01*
X56625Y-41836D01*
X56617Y-41817D01*
X56608Y-41779D01*
X56608Y-41751D01*
X56617Y-41713D01*
X56625Y-41694D01*
X56642Y-41675D01*
X56668Y-41665D01*
X56685Y-41665D01*
X56711Y-41675D01*
X56720Y-41684D01*
X56874Y-41732D02*
X56874Y-41865D01*
X56831Y-41655D02*
X56788Y-41798D01*
X56900Y-41798D01*
X43584Y-39021D02*
X43575Y-39030D01*
X43550Y-39040D01*
X43532Y-39040D01*
X43507Y-39030D01*
X43490Y-39011D01*
X43481Y-38992D01*
X43472Y-38954D01*
X43472Y-38926D01*
X43481Y-38888D01*
X43490Y-38869D01*
X43507Y-38850D01*
X43532Y-38840D01*
X43550Y-38840D01*
X43575Y-38850D01*
X43584Y-38859D01*
X43755Y-39040D02*
X43652Y-39040D01*
X43704Y-39040D02*
X43704Y-38840D01*
X43687Y-38869D01*
X43670Y-38888D01*
X43652Y-38897D01*
X43841Y-39040D02*
X43875Y-39040D01*
X43892Y-39030D01*
X43901Y-39021D01*
X43918Y-38992D01*
X43927Y-38954D01*
X43927Y-38878D01*
X43918Y-38859D01*
X43910Y-38850D01*
X43892Y-38840D01*
X43858Y-38840D01*
X43841Y-38850D01*
X43832Y-38859D01*
X43824Y-38878D01*
X43824Y-38926D01*
X43832Y-38945D01*
X43841Y-38954D01*
X43858Y-38964D01*
X43892Y-38964D01*
X43910Y-38954D01*
X43918Y-38945D01*
X43927Y-38926D01*
X45709Y-39815D02*
X45649Y-39720D01*
X45606Y-39815D02*
X45606Y-39615D01*
X45675Y-39615D01*
X45692Y-39625D01*
X45700Y-39634D01*
X45709Y-39653D01*
X45709Y-39682D01*
X45700Y-39701D01*
X45692Y-39710D01*
X45675Y-39720D01*
X45606Y-39720D01*
X45777Y-39634D02*
X45786Y-39625D01*
X45803Y-39615D01*
X45846Y-39615D01*
X45863Y-39625D01*
X45872Y-39634D01*
X45880Y-39653D01*
X45880Y-39672D01*
X45872Y-39701D01*
X45769Y-39815D01*
X45880Y-39815D01*
X45940Y-39615D02*
X46060Y-39615D01*
X45983Y-39815D01*
X42234Y-42996D02*
X42225Y-43005D01*
X42200Y-43015D01*
X42182Y-43015D01*
X42157Y-43005D01*
X42140Y-42986D01*
X42131Y-42967D01*
X42122Y-42929D01*
X42122Y-42901D01*
X42131Y-42863D01*
X42140Y-42844D01*
X42157Y-42825D01*
X42182Y-42815D01*
X42200Y-42815D01*
X42225Y-42825D01*
X42234Y-42834D01*
X42302Y-42834D02*
X42311Y-42825D01*
X42328Y-42815D01*
X42371Y-42815D01*
X42388Y-42825D01*
X42397Y-42834D01*
X42405Y-42853D01*
X42405Y-42872D01*
X42397Y-42901D01*
X42294Y-43015D01*
X42405Y-43015D01*
X42577Y-43015D02*
X42474Y-43015D01*
X42525Y-43015D02*
X42525Y-42815D01*
X42508Y-42844D01*
X42491Y-42863D01*
X42474Y-42872D01*
X42084Y-42290D02*
X42024Y-42195D01*
X41981Y-42290D02*
X41981Y-42090D01*
X42050Y-42090D01*
X42067Y-42100D01*
X42075Y-42109D01*
X42084Y-42128D01*
X42084Y-42157D01*
X42075Y-42176D01*
X42067Y-42185D01*
X42050Y-42195D01*
X41981Y-42195D01*
X42255Y-42290D02*
X42152Y-42290D01*
X42204Y-42290D02*
X42204Y-42090D01*
X42187Y-42119D01*
X42170Y-42138D01*
X42152Y-42147D01*
X42341Y-42290D02*
X42375Y-42290D01*
X42392Y-42280D01*
X42401Y-42271D01*
X42418Y-42242D01*
X42427Y-42204D01*
X42427Y-42128D01*
X42418Y-42109D01*
X42410Y-42100D01*
X42392Y-42090D01*
X42358Y-42090D01*
X42341Y-42100D01*
X42332Y-42109D01*
X42324Y-42128D01*
X42324Y-42176D01*
X42332Y-42195D01*
X42341Y-42204D01*
X42358Y-42214D01*
X42392Y-42214D01*
X42410Y-42204D01*
X42418Y-42195D01*
X42427Y-42176D01*
X41858Y-40698D02*
X41798Y-40603D01*
X41755Y-40698D02*
X41755Y-40498D01*
X41824Y-40498D01*
X41841Y-40508D01*
X41849Y-40517D01*
X41858Y-40536D01*
X41858Y-40565D01*
X41849Y-40584D01*
X41841Y-40593D01*
X41824Y-40603D01*
X41755Y-40603D01*
X41926Y-40517D02*
X41935Y-40508D01*
X41952Y-40498D01*
X41995Y-40498D01*
X42012Y-40508D01*
X42021Y-40517D01*
X42029Y-40536D01*
X42029Y-40555D01*
X42021Y-40584D01*
X41918Y-40698D01*
X42029Y-40698D01*
X42115Y-40698D02*
X42149Y-40698D01*
X42166Y-40689D01*
X42175Y-40679D01*
X42192Y-40651D01*
X42201Y-40613D01*
X42201Y-40536D01*
X42192Y-40517D01*
X42184Y-40508D01*
X42166Y-40498D01*
X42132Y-40498D01*
X42115Y-40508D01*
X42106Y-40517D01*
X42098Y-40536D01*
X42098Y-40584D01*
X42106Y-40603D01*
X42115Y-40613D01*
X42132Y-40622D01*
X42166Y-40622D01*
X42184Y-40613D01*
X42192Y-40603D01*
X42201Y-40584D01*
X45984Y-41540D02*
X45924Y-41445D01*
X45881Y-41540D02*
X45881Y-41340D01*
X45950Y-41340D01*
X45967Y-41350D01*
X45975Y-41359D01*
X45984Y-41378D01*
X45984Y-41407D01*
X45975Y-41426D01*
X45967Y-41435D01*
X45950Y-41445D01*
X45881Y-41445D01*
X46052Y-41359D02*
X46061Y-41350D01*
X46078Y-41340D01*
X46121Y-41340D01*
X46138Y-41350D01*
X46147Y-41359D01*
X46155Y-41378D01*
X46155Y-41397D01*
X46147Y-41426D01*
X46044Y-41540D01*
X46155Y-41540D01*
X46258Y-41426D02*
X46241Y-41416D01*
X46232Y-41407D01*
X46224Y-41388D01*
X46224Y-41378D01*
X46232Y-41359D01*
X46241Y-41350D01*
X46258Y-41340D01*
X46292Y-41340D01*
X46310Y-41350D01*
X46318Y-41359D01*
X46327Y-41378D01*
X46327Y-41388D01*
X46318Y-41407D01*
X46310Y-41416D01*
X46292Y-41426D01*
X46258Y-41426D01*
X46241Y-41435D01*
X46232Y-41445D01*
X46224Y-41464D01*
X46224Y-41502D01*
X46232Y-41521D01*
X46241Y-41530D01*
X46258Y-41540D01*
X46292Y-41540D01*
X46310Y-41530D01*
X46318Y-41521D01*
X46327Y-41502D01*
X46327Y-41464D01*
X46318Y-41445D01*
X46310Y-41435D01*
X46292Y-41426D01*
X45159Y-41865D02*
X45099Y-41770D01*
X45056Y-41865D02*
X45056Y-41665D01*
X45125Y-41665D01*
X45142Y-41675D01*
X45150Y-41684D01*
X45159Y-41703D01*
X45159Y-41732D01*
X45150Y-41751D01*
X45142Y-41760D01*
X45125Y-41770D01*
X45056Y-41770D01*
X45227Y-41684D02*
X45236Y-41675D01*
X45253Y-41665D01*
X45296Y-41665D01*
X45313Y-41675D01*
X45322Y-41684D01*
X45330Y-41703D01*
X45330Y-41722D01*
X45322Y-41751D01*
X45219Y-41865D01*
X45330Y-41865D01*
X45485Y-41732D02*
X45485Y-41865D01*
X45442Y-41655D02*
X45399Y-41798D01*
X45510Y-41798D01*
X45184Y-42665D02*
X45124Y-42570D01*
X45081Y-42665D02*
X45081Y-42465D01*
X45150Y-42465D01*
X45167Y-42475D01*
X45175Y-42484D01*
X45184Y-42503D01*
X45184Y-42532D01*
X45175Y-42551D01*
X45167Y-42560D01*
X45150Y-42570D01*
X45081Y-42570D01*
X45252Y-42484D02*
X45261Y-42475D01*
X45278Y-42465D01*
X45321Y-42465D01*
X45338Y-42475D01*
X45347Y-42484D01*
X45355Y-42503D01*
X45355Y-42522D01*
X45347Y-42551D01*
X45244Y-42665D01*
X45355Y-42665D01*
X45415Y-42465D02*
X45527Y-42465D01*
X45467Y-42541D01*
X45492Y-42541D01*
X45510Y-42551D01*
X45518Y-42560D01*
X45527Y-42579D01*
X45527Y-42627D01*
X45518Y-42646D01*
X45510Y-42655D01*
X45492Y-42665D01*
X45441Y-42665D01*
X45424Y-42655D01*
X45415Y-42646D01*
X47980Y-43585D02*
X47885Y-43645D01*
X47980Y-43688D02*
X47780Y-43688D01*
X47780Y-43620D01*
X47789Y-43603D01*
X47799Y-43594D01*
X47818Y-43585D01*
X47847Y-43585D01*
X47866Y-43594D01*
X47875Y-43603D01*
X47885Y-43620D01*
X47885Y-43688D01*
X47799Y-43517D02*
X47789Y-43508D01*
X47780Y-43491D01*
X47780Y-43448D01*
X47789Y-43431D01*
X47799Y-43423D01*
X47818Y-43414D01*
X47837Y-43414D01*
X47866Y-43423D01*
X47980Y-43525D01*
X47980Y-43414D01*
X50915Y-39325D02*
X50855Y-39229D01*
X50812Y-39325D02*
X50812Y-39125D01*
X50881Y-39125D01*
X50898Y-39134D01*
X50906Y-39144D01*
X50915Y-39163D01*
X50915Y-39191D01*
X50906Y-39210D01*
X50898Y-39220D01*
X50881Y-39229D01*
X50812Y-39229D01*
X51086Y-39325D02*
X50983Y-39325D01*
X51035Y-39325D02*
X51035Y-39125D01*
X51018Y-39153D01*
X51001Y-39172D01*
X50983Y-39182D01*
X51155Y-39144D02*
X51163Y-39134D01*
X51181Y-39125D01*
X51223Y-39125D01*
X51241Y-39134D01*
X51249Y-39144D01*
X51258Y-39163D01*
X51258Y-39182D01*
X51249Y-39210D01*
X51146Y-39325D01*
X51258Y-39325D01*
X46480Y-39092D02*
X46384Y-39152D01*
X46480Y-39194D02*
X46280Y-39194D01*
X46280Y-39126D01*
X46289Y-39109D01*
X46299Y-39100D01*
X46318Y-39092D01*
X46346Y-39092D01*
X46365Y-39100D01*
X46375Y-39109D01*
X46384Y-39126D01*
X46384Y-39194D01*
X46280Y-38937D02*
X46280Y-38972D01*
X46289Y-38989D01*
X46299Y-38997D01*
X46327Y-39014D01*
X46365Y-39023D01*
X46441Y-39023D01*
X46460Y-39014D01*
X46470Y-39006D01*
X46480Y-38989D01*
X46480Y-38954D01*
X46470Y-38937D01*
X46460Y-38929D01*
X46441Y-38920D01*
X46394Y-38920D01*
X46375Y-38929D01*
X46365Y-38937D01*
X46356Y-38954D01*
X46356Y-38989D01*
X46365Y-39006D01*
X46375Y-39014D01*
X46394Y-39023D01*
X44070Y-45290D02*
X44010Y-45195D01*
X43967Y-45290D02*
X43967Y-45090D01*
X44035Y-45090D01*
X44052Y-45100D01*
X44061Y-45109D01*
X44070Y-45128D01*
X44070Y-45157D01*
X44061Y-45176D01*
X44052Y-45185D01*
X44035Y-45195D01*
X43967Y-45195D01*
X44241Y-45290D02*
X44138Y-45290D01*
X44190Y-45290D02*
X44190Y-45090D01*
X44172Y-45119D01*
X44155Y-45138D01*
X44138Y-45147D01*
X50018Y-40474D02*
X49958Y-40379D01*
X49915Y-40474D02*
X49915Y-40274D01*
X49984Y-40274D01*
X50001Y-40284D01*
X50010Y-40293D01*
X50018Y-40312D01*
X50018Y-40341D01*
X50010Y-40360D01*
X50001Y-40369D01*
X49984Y-40379D01*
X49915Y-40379D01*
X50181Y-40274D02*
X50095Y-40274D01*
X50087Y-40369D01*
X50095Y-40360D01*
X50113Y-40350D01*
X50155Y-40350D01*
X50173Y-40360D01*
X50181Y-40369D01*
X50190Y-40388D01*
X50190Y-40436D01*
X50181Y-40455D01*
X50173Y-40465D01*
X50155Y-40474D01*
X50113Y-40474D01*
X50095Y-40465D01*
X50087Y-40455D01*
X54695Y-45740D02*
X54635Y-45645D01*
X54592Y-45740D02*
X54592Y-45540D01*
X54660Y-45540D01*
X54677Y-45550D01*
X54686Y-45559D01*
X54695Y-45578D01*
X54695Y-45607D01*
X54686Y-45626D01*
X54677Y-45635D01*
X54660Y-45645D01*
X54592Y-45645D01*
X54797Y-45626D02*
X54780Y-45616D01*
X54772Y-45607D01*
X54763Y-45588D01*
X54763Y-45578D01*
X54772Y-45559D01*
X54780Y-45550D01*
X54797Y-45540D01*
X54832Y-45540D01*
X54849Y-45550D01*
X54857Y-45559D01*
X54866Y-45578D01*
X54866Y-45588D01*
X54857Y-45607D01*
X54849Y-45616D01*
X54832Y-45626D01*
X54797Y-45626D01*
X54780Y-45635D01*
X54772Y-45645D01*
X54763Y-45664D01*
X54763Y-45702D01*
X54772Y-45721D01*
X54780Y-45730D01*
X54797Y-45740D01*
X54832Y-45740D01*
X54849Y-45730D01*
X54857Y-45721D01*
X54866Y-45702D01*
X54866Y-45664D01*
X54857Y-45645D01*
X54849Y-45635D01*
X54832Y-45626D01*
X53895Y-44790D02*
X53835Y-44695D01*
X53792Y-44790D02*
X53792Y-44590D01*
X53860Y-44590D01*
X53877Y-44600D01*
X53886Y-44609D01*
X53895Y-44628D01*
X53895Y-44657D01*
X53886Y-44676D01*
X53877Y-44685D01*
X53860Y-44695D01*
X53792Y-44695D01*
X53955Y-44590D02*
X54075Y-44590D01*
X53997Y-44790D01*
X56270Y-37890D02*
X56210Y-37795D01*
X56167Y-37890D02*
X56167Y-37690D01*
X56235Y-37690D01*
X56252Y-37700D01*
X56261Y-37709D01*
X56270Y-37728D01*
X56270Y-37757D01*
X56261Y-37776D01*
X56252Y-37785D01*
X56235Y-37795D01*
X56167Y-37795D01*
X56355Y-37890D02*
X56390Y-37890D01*
X56407Y-37880D01*
X56415Y-37871D01*
X56432Y-37842D01*
X56441Y-37804D01*
X56441Y-37728D01*
X56432Y-37709D01*
X56424Y-37700D01*
X56407Y-37690D01*
X56372Y-37690D01*
X56355Y-37700D01*
X56347Y-37709D01*
X56338Y-37728D01*
X56338Y-37776D01*
X56347Y-37795D01*
X56355Y-37804D01*
X56372Y-37814D01*
X56407Y-37814D01*
X56424Y-37804D01*
X56432Y-37795D01*
X56441Y-37776D01*
X55009Y-36690D02*
X54949Y-36595D01*
X54906Y-36690D02*
X54906Y-36490D01*
X54975Y-36490D01*
X54992Y-36500D01*
X55000Y-36509D01*
X55009Y-36528D01*
X55009Y-36557D01*
X55000Y-36576D01*
X54992Y-36585D01*
X54975Y-36595D01*
X54906Y-36595D01*
X55180Y-36690D02*
X55077Y-36690D01*
X55129Y-36690D02*
X55129Y-36490D01*
X55112Y-36519D01*
X55095Y-36538D01*
X55077Y-36547D01*
X55292Y-36490D02*
X55309Y-36490D01*
X55326Y-36500D01*
X55335Y-36509D01*
X55343Y-36528D01*
X55352Y-36566D01*
X55352Y-36614D01*
X55343Y-36652D01*
X55335Y-36671D01*
X55326Y-36680D01*
X55309Y-36690D01*
X55292Y-36690D01*
X55275Y-36680D01*
X55266Y-36671D01*
X55257Y-36652D01*
X55249Y-36614D01*
X55249Y-36566D01*
X55257Y-36528D01*
X55266Y-36509D01*
X55275Y-36500D01*
X55292Y-36490D01*
X56184Y-36690D02*
X56124Y-36595D01*
X56081Y-36690D02*
X56081Y-36490D01*
X56150Y-36490D01*
X56167Y-36500D01*
X56175Y-36509D01*
X56184Y-36528D01*
X56184Y-36557D01*
X56175Y-36576D01*
X56167Y-36585D01*
X56150Y-36595D01*
X56081Y-36595D01*
X56355Y-36690D02*
X56252Y-36690D01*
X56304Y-36690D02*
X56304Y-36490D01*
X56287Y-36519D01*
X56270Y-36538D01*
X56252Y-36547D01*
X56510Y-36557D02*
X56510Y-36690D01*
X56467Y-36480D02*
X56424Y-36623D01*
X56535Y-36623D01*
X55009Y-37865D02*
X54949Y-37770D01*
X54906Y-37865D02*
X54906Y-37665D01*
X54975Y-37665D01*
X54992Y-37675D01*
X55000Y-37684D01*
X55009Y-37703D01*
X55009Y-37732D01*
X55000Y-37751D01*
X54992Y-37760D01*
X54975Y-37770D01*
X54906Y-37770D01*
X55180Y-37865D02*
X55077Y-37865D01*
X55129Y-37865D02*
X55129Y-37665D01*
X55112Y-37694D01*
X55095Y-37713D01*
X55077Y-37722D01*
X55240Y-37665D02*
X55352Y-37665D01*
X55292Y-37741D01*
X55317Y-37741D01*
X55335Y-37751D01*
X55343Y-37760D01*
X55352Y-37779D01*
X55352Y-37827D01*
X55343Y-37846D01*
X55335Y-37855D01*
X55317Y-37865D01*
X55266Y-37865D01*
X55249Y-37855D01*
X55240Y-37846D01*
X52234Y-37890D02*
X52174Y-37795D01*
X52131Y-37890D02*
X52131Y-37690D01*
X52200Y-37690D01*
X52217Y-37700D01*
X52225Y-37709D01*
X52234Y-37728D01*
X52234Y-37757D01*
X52225Y-37776D01*
X52217Y-37785D01*
X52200Y-37795D01*
X52131Y-37795D01*
X52405Y-37890D02*
X52302Y-37890D01*
X52354Y-37890D02*
X52354Y-37690D01*
X52337Y-37719D01*
X52320Y-37738D01*
X52302Y-37747D01*
X52568Y-37690D02*
X52482Y-37690D01*
X52474Y-37785D01*
X52482Y-37776D01*
X52500Y-37766D01*
X52542Y-37766D01*
X52560Y-37776D01*
X52568Y-37785D01*
X52577Y-37804D01*
X52577Y-37852D01*
X52568Y-37871D01*
X52560Y-37880D01*
X52542Y-37890D01*
X52500Y-37890D01*
X52482Y-37880D01*
X52474Y-37871D01*
X53434Y-37865D02*
X53374Y-37770D01*
X53331Y-37865D02*
X53331Y-37665D01*
X53400Y-37665D01*
X53417Y-37675D01*
X53425Y-37684D01*
X53434Y-37703D01*
X53434Y-37732D01*
X53425Y-37751D01*
X53417Y-37760D01*
X53400Y-37770D01*
X53331Y-37770D01*
X53605Y-37865D02*
X53502Y-37865D01*
X53554Y-37865D02*
X53554Y-37665D01*
X53537Y-37694D01*
X53520Y-37713D01*
X53502Y-37722D01*
X53760Y-37665D02*
X53725Y-37665D01*
X53708Y-37675D01*
X53700Y-37684D01*
X53682Y-37713D01*
X53674Y-37751D01*
X53674Y-37827D01*
X53682Y-37846D01*
X53691Y-37855D01*
X53708Y-37865D01*
X53742Y-37865D01*
X53760Y-37855D01*
X53768Y-37846D01*
X53777Y-37827D01*
X53777Y-37779D01*
X53768Y-37760D01*
X53760Y-37751D01*
X53742Y-37741D01*
X53708Y-37741D01*
X53691Y-37751D01*
X53682Y-37760D01*
X53674Y-37779D01*
X52234Y-36690D02*
X52174Y-36595D01*
X52131Y-36690D02*
X52131Y-36490D01*
X52200Y-36490D01*
X52217Y-36500D01*
X52225Y-36509D01*
X52234Y-36528D01*
X52234Y-36557D01*
X52225Y-36576D01*
X52217Y-36585D01*
X52200Y-36595D01*
X52131Y-36595D01*
X52405Y-36690D02*
X52302Y-36690D01*
X52354Y-36690D02*
X52354Y-36490D01*
X52337Y-36519D01*
X52320Y-36538D01*
X52302Y-36547D01*
X52508Y-36576D02*
X52491Y-36566D01*
X52482Y-36557D01*
X52474Y-36538D01*
X52474Y-36528D01*
X52482Y-36509D01*
X52491Y-36500D01*
X52508Y-36490D01*
X52542Y-36490D01*
X52560Y-36500D01*
X52568Y-36509D01*
X52577Y-36528D01*
X52577Y-36538D01*
X52568Y-36557D01*
X52560Y-36566D01*
X52542Y-36576D01*
X52508Y-36576D01*
X52491Y-36585D01*
X52482Y-36595D01*
X52474Y-36614D01*
X52474Y-36652D01*
X52482Y-36671D01*
X52491Y-36680D01*
X52508Y-36690D01*
X52542Y-36690D01*
X52560Y-36680D01*
X52568Y-36671D01*
X52577Y-36652D01*
X52577Y-36614D01*
X52568Y-36595D01*
X52560Y-36585D01*
X52542Y-36576D01*
X53534Y-36690D02*
X53474Y-36595D01*
X53431Y-36690D02*
X53431Y-36490D01*
X53500Y-36490D01*
X53517Y-36500D01*
X53525Y-36509D01*
X53534Y-36528D01*
X53534Y-36557D01*
X53525Y-36576D01*
X53517Y-36585D01*
X53500Y-36595D01*
X53431Y-36595D01*
X53705Y-36690D02*
X53602Y-36690D01*
X53654Y-36690D02*
X53654Y-36490D01*
X53637Y-36519D01*
X53620Y-36538D01*
X53602Y-36547D01*
X53765Y-36490D02*
X53885Y-36490D01*
X53808Y-36690D01*
G54D12*
X41629Y-39005D02*
X41629Y-38605D01*
X41782Y-38605D01*
X41820Y-38625D01*
X41839Y-38644D01*
X41858Y-38682D01*
X41858Y-38739D01*
X41839Y-38777D01*
X41820Y-38796D01*
X41782Y-38815D01*
X41629Y-38815D01*
X42239Y-39005D02*
X42010Y-39005D01*
X42125Y-39005D02*
X42125Y-38605D01*
X42086Y-38663D01*
X42048Y-38701D01*
X42010Y-38720D01*
G54D19*
X60259Y-38921D02*
X60250Y-38930D01*
X60225Y-38940D01*
X60207Y-38940D01*
X60182Y-38930D01*
X60165Y-38911D01*
X60156Y-38892D01*
X60147Y-38854D01*
X60147Y-38826D01*
X60156Y-38788D01*
X60165Y-38769D01*
X60182Y-38750D01*
X60207Y-38740D01*
X60225Y-38740D01*
X60250Y-38750D01*
X60259Y-38759D01*
X60327Y-38759D02*
X60336Y-38750D01*
X60353Y-38740D01*
X60396Y-38740D01*
X60413Y-38750D01*
X60422Y-38759D01*
X60430Y-38778D01*
X60430Y-38797D01*
X60422Y-38826D01*
X60319Y-38940D01*
X60430Y-38940D01*
X60585Y-38807D02*
X60585Y-38940D01*
X60542Y-38730D02*
X60499Y-38873D01*
X60610Y-38873D01*
X57074Y-38251D02*
X57066Y-38261D01*
X57040Y-38270D01*
X57023Y-38270D01*
X56997Y-38261D01*
X56980Y-38242D01*
X56971Y-38223D01*
X56963Y-38185D01*
X56963Y-38156D01*
X56971Y-38118D01*
X56980Y-38099D01*
X56997Y-38080D01*
X57023Y-38070D01*
X57040Y-38070D01*
X57066Y-38080D01*
X57074Y-38089D01*
X57143Y-38089D02*
X57151Y-38080D01*
X57168Y-38070D01*
X57211Y-38070D01*
X57228Y-38080D01*
X57237Y-38089D01*
X57246Y-38108D01*
X57246Y-38127D01*
X57237Y-38156D01*
X57134Y-38270D01*
X57246Y-38270D01*
X57408Y-38070D02*
X57323Y-38070D01*
X57314Y-38166D01*
X57323Y-38156D01*
X57340Y-38146D01*
X57383Y-38146D01*
X57400Y-38156D01*
X57408Y-38166D01*
X57417Y-38185D01*
X57417Y-38232D01*
X57408Y-38251D01*
X57400Y-38261D01*
X57383Y-38270D01*
X57340Y-38270D01*
X57323Y-38261D01*
X57314Y-38251D01*
X60559Y-36771D02*
X60550Y-36780D01*
X60525Y-36790D01*
X60507Y-36790D01*
X60482Y-36780D01*
X60465Y-36761D01*
X60456Y-36742D01*
X60447Y-36704D01*
X60447Y-36676D01*
X60456Y-36638D01*
X60465Y-36619D01*
X60482Y-36600D01*
X60507Y-36590D01*
X60525Y-36590D01*
X60550Y-36600D01*
X60559Y-36609D01*
X60627Y-36609D02*
X60636Y-36600D01*
X60653Y-36590D01*
X60696Y-36590D01*
X60713Y-36600D01*
X60722Y-36609D01*
X60730Y-36628D01*
X60730Y-36647D01*
X60722Y-36676D01*
X60619Y-36790D01*
X60730Y-36790D01*
X60790Y-36590D02*
X60902Y-36590D01*
X60842Y-36666D01*
X60867Y-36666D01*
X60885Y-36676D01*
X60893Y-36685D01*
X60902Y-36704D01*
X60902Y-36752D01*
X60893Y-36771D01*
X60885Y-36780D01*
X60867Y-36790D01*
X60816Y-36790D01*
X60799Y-36780D01*
X60790Y-36771D01*
G54D13*
X43247Y-41240D02*
X43247Y-41402D01*
X43257Y-41421D01*
X43266Y-41430D01*
X43285Y-41440D01*
X43323Y-41440D01*
X43342Y-41430D01*
X43352Y-41421D01*
X43361Y-41402D01*
X43361Y-41240D01*
X43466Y-41440D02*
X43504Y-41440D01*
X43523Y-41430D01*
X43533Y-41421D01*
X43552Y-41392D01*
X43561Y-41354D01*
X43561Y-41278D01*
X43552Y-41259D01*
X43542Y-41250D01*
X43523Y-41240D01*
X43485Y-41240D01*
X43466Y-41250D01*
X43457Y-41259D01*
X43447Y-41278D01*
X43447Y-41326D01*
X43457Y-41345D01*
X43466Y-41354D01*
X43485Y-41364D01*
X43523Y-41364D01*
X43542Y-41354D01*
X43552Y-41345D01*
X43561Y-41326D01*
G54D20*
X57133Y-43610D02*
X57123Y-43619D01*
X57095Y-43629D01*
X57077Y-43629D01*
X57048Y-43619D01*
X57030Y-43600D01*
X57020Y-43582D01*
X57011Y-43544D01*
X57011Y-43516D01*
X57020Y-43479D01*
X57030Y-43460D01*
X57048Y-43441D01*
X57077Y-43432D01*
X57095Y-43432D01*
X57123Y-43441D01*
X57133Y-43450D01*
X57320Y-43629D02*
X57208Y-43629D01*
X57264Y-43629D02*
X57264Y-43432D01*
X57245Y-43460D01*
X57227Y-43479D01*
X57208Y-43488D01*
X57508Y-43629D02*
X57396Y-43629D01*
X57452Y-43629D02*
X57452Y-43432D01*
X57433Y-43460D01*
X57414Y-43479D01*
X57396Y-43488D01*
X57747Y-36775D02*
X57737Y-36785D01*
X57709Y-36794D01*
X57691Y-36794D01*
X57662Y-36785D01*
X57644Y-36766D01*
X57634Y-36747D01*
X57625Y-36710D01*
X57625Y-36681D01*
X57634Y-36644D01*
X57644Y-36625D01*
X57662Y-36606D01*
X57691Y-36597D01*
X57709Y-36597D01*
X57737Y-36606D01*
X57747Y-36616D01*
X57934Y-36794D02*
X57822Y-36794D01*
X57878Y-36794D02*
X57878Y-36597D01*
X57859Y-36625D01*
X57841Y-36644D01*
X57822Y-36653D01*
X58000Y-36597D02*
X58122Y-36597D01*
X58056Y-36672D01*
X58085Y-36672D01*
X58103Y-36681D01*
X58113Y-36691D01*
X58122Y-36710D01*
X58122Y-36756D01*
X58113Y-36775D01*
X58103Y-36785D01*
X58085Y-36794D01*
X58028Y-36794D01*
X58010Y-36785D01*
X58000Y-36775D01*
X60033Y-43810D02*
X60023Y-43819D01*
X59995Y-43829D01*
X59977Y-43829D01*
X59948Y-43819D01*
X59930Y-43800D01*
X59920Y-43782D01*
X59911Y-43744D01*
X59911Y-43716D01*
X59920Y-43679D01*
X59930Y-43660D01*
X59948Y-43641D01*
X59977Y-43632D01*
X59995Y-43632D01*
X60023Y-43641D01*
X60033Y-43650D01*
X60220Y-43829D02*
X60108Y-43829D01*
X60164Y-43829D02*
X60164Y-43632D01*
X60145Y-43660D01*
X60127Y-43679D01*
X60108Y-43688D01*
X60389Y-43697D02*
X60389Y-43829D01*
X60342Y-43622D02*
X60296Y-43763D01*
X60417Y-43763D01*
G54D19*
X55947Y-39165D02*
X55938Y-39175D01*
X55912Y-39184D01*
X55895Y-39184D01*
X55870Y-39175D01*
X55852Y-39156D01*
X55844Y-39137D01*
X55835Y-39099D01*
X55835Y-39070D01*
X55844Y-39032D01*
X55852Y-39013D01*
X55870Y-38994D01*
X55895Y-38984D01*
X55912Y-38984D01*
X55938Y-38994D01*
X55947Y-39004D01*
X56015Y-39004D02*
X56024Y-38994D01*
X56041Y-38984D01*
X56084Y-38984D01*
X56101Y-38994D01*
X56110Y-39004D01*
X56118Y-39023D01*
X56118Y-39042D01*
X56110Y-39070D01*
X56007Y-39184D01*
X56118Y-39184D01*
X56272Y-38984D02*
X56238Y-38984D01*
X56221Y-38994D01*
X56212Y-39004D01*
X56195Y-39032D01*
X56187Y-39070D01*
X56187Y-39146D01*
X56195Y-39165D01*
X56204Y-39175D01*
X56221Y-39184D01*
X56255Y-39184D01*
X56272Y-39175D01*
X56281Y-39165D01*
X56290Y-39146D01*
X56290Y-39099D01*
X56281Y-39080D01*
X56272Y-39070D01*
X56255Y-39061D01*
X56221Y-39061D01*
X56204Y-39070D01*
X56195Y-39080D01*
X56187Y-39099D01*
X51410Y-45312D02*
X51419Y-45321D01*
X51429Y-45346D01*
X51429Y-45363D01*
X51419Y-45389D01*
X51400Y-45406D01*
X51381Y-45415D01*
X51343Y-45423D01*
X51314Y-45423D01*
X51276Y-45415D01*
X51257Y-45406D01*
X51238Y-45389D01*
X51229Y-45363D01*
X51229Y-45346D01*
X51238Y-45321D01*
X51248Y-45312D01*
X51248Y-45243D02*
X51238Y-45235D01*
X51229Y-45218D01*
X51229Y-45175D01*
X51238Y-45158D01*
X51248Y-45149D01*
X51267Y-45141D01*
X51286Y-45141D01*
X51314Y-45149D01*
X51429Y-45252D01*
X51429Y-45141D01*
X51229Y-45081D02*
X51229Y-44961D01*
X51429Y-45038D01*
X49411Y-41882D02*
X49403Y-41891D01*
X49377Y-41901D01*
X49360Y-41901D01*
X49334Y-41891D01*
X49317Y-41872D01*
X49308Y-41853D01*
X49300Y-41815D01*
X49300Y-41787D01*
X49308Y-41749D01*
X49317Y-41730D01*
X49334Y-41711D01*
X49360Y-41701D01*
X49377Y-41701D01*
X49403Y-41711D01*
X49411Y-41720D01*
X49480Y-41720D02*
X49488Y-41711D01*
X49506Y-41701D01*
X49548Y-41701D01*
X49566Y-41711D01*
X49574Y-41720D01*
X49583Y-41739D01*
X49583Y-41758D01*
X49574Y-41787D01*
X49471Y-41901D01*
X49583Y-41901D01*
X49686Y-41787D02*
X49668Y-41777D01*
X49660Y-41768D01*
X49651Y-41749D01*
X49651Y-41739D01*
X49660Y-41720D01*
X49668Y-41711D01*
X49686Y-41701D01*
X49720Y-41701D01*
X49737Y-41711D01*
X49746Y-41720D01*
X49754Y-41739D01*
X49754Y-41749D01*
X49746Y-41768D01*
X49737Y-41777D01*
X49720Y-41787D01*
X49686Y-41787D01*
X49668Y-41796D01*
X49660Y-41806D01*
X49651Y-41825D01*
X49651Y-41863D01*
X49660Y-41882D01*
X49668Y-41891D01*
X49686Y-41901D01*
X49720Y-41901D01*
X49737Y-41891D01*
X49746Y-41882D01*
X49754Y-41863D01*
X49754Y-41825D01*
X49746Y-41806D01*
X49737Y-41796D01*
X49720Y-41787D01*
G54D13*
X48613Y-36244D02*
X48613Y-36499D01*
X48627Y-36529D01*
X48641Y-36544D01*
X48669Y-36559D01*
X48726Y-36559D01*
X48754Y-36544D01*
X48768Y-36529D01*
X48782Y-36499D01*
X48782Y-36244D01*
X48908Y-36274D02*
X48922Y-36259D01*
X48951Y-36244D01*
X49021Y-36244D01*
X49049Y-36259D01*
X49063Y-36274D01*
X49077Y-36304D01*
X49077Y-36334D01*
X49063Y-36379D01*
X48894Y-36559D01*
X49077Y-36559D01*
X57570Y-38717D02*
X57570Y-39041D01*
X57591Y-39079D01*
X57613Y-39098D01*
X57656Y-39117D01*
X57741Y-39117D01*
X57784Y-39098D01*
X57806Y-39079D01*
X57827Y-39041D01*
X57827Y-38717D01*
X57999Y-38717D02*
X58277Y-38717D01*
X58127Y-38870D01*
X58191Y-38870D01*
X58234Y-38889D01*
X58256Y-38908D01*
X58277Y-38946D01*
X58277Y-39041D01*
X58256Y-39079D01*
X58234Y-39098D01*
X58191Y-39117D01*
X58063Y-39117D01*
X58020Y-39098D01*
X57999Y-39079D01*
G54D19*
X58091Y-43775D02*
X58100Y-43784D01*
X58110Y-43810D01*
X58110Y-43827D01*
X58100Y-43852D01*
X58081Y-43870D01*
X58062Y-43878D01*
X58024Y-43887D01*
X57996Y-43887D01*
X57958Y-43878D01*
X57939Y-43870D01*
X57920Y-43852D01*
X57910Y-43827D01*
X57910Y-43810D01*
X57920Y-43784D01*
X57929Y-43775D01*
X57910Y-43715D02*
X57910Y-43604D01*
X57986Y-43664D01*
X57986Y-43638D01*
X57996Y-43621D01*
X58005Y-43612D01*
X58024Y-43604D01*
X58072Y-43604D01*
X58091Y-43612D01*
X58100Y-43621D01*
X58110Y-43638D01*
X58110Y-43690D01*
X58100Y-43707D01*
X58091Y-43715D01*
X57910Y-43492D02*
X57910Y-43475D01*
X57920Y-43458D01*
X57929Y-43450D01*
X57948Y-43441D01*
X57986Y-43432D01*
X58034Y-43432D01*
X58072Y-43441D01*
X58091Y-43450D01*
X58100Y-43458D01*
X58110Y-43475D01*
X58110Y-43492D01*
X58100Y-43510D01*
X58091Y-43518D01*
X58072Y-43527D01*
X58034Y-43535D01*
X57986Y-43535D01*
X57948Y-43527D01*
X57929Y-43518D01*
X57920Y-43510D01*
X57910Y-43492D01*
X56284Y-42690D02*
X56224Y-42595D01*
X56181Y-42690D02*
X56181Y-42490D01*
X56250Y-42490D01*
X56267Y-42500D01*
X56275Y-42509D01*
X56284Y-42528D01*
X56284Y-42557D01*
X56275Y-42576D01*
X56267Y-42585D01*
X56250Y-42595D01*
X56181Y-42595D01*
X56344Y-42490D02*
X56455Y-42490D01*
X56395Y-42566D01*
X56421Y-42566D01*
X56438Y-42576D01*
X56447Y-42585D01*
X56455Y-42604D01*
X56455Y-42652D01*
X56447Y-42671D01*
X56438Y-42680D01*
X56421Y-42690D01*
X56370Y-42690D01*
X56352Y-42680D01*
X56344Y-42671D01*
X56627Y-42690D02*
X56524Y-42690D01*
X56575Y-42690D02*
X56575Y-42490D01*
X56558Y-42519D01*
X56541Y-42538D01*
X56524Y-42547D01*
G54D18*
X43381Y-43338D02*
X43381Y-42944D01*
X43475Y-42944D01*
X43531Y-42963D01*
X43569Y-43000D01*
X43588Y-43038D01*
X43606Y-43113D01*
X43606Y-43169D01*
X43588Y-43244D01*
X43569Y-43281D01*
X43531Y-43319D01*
X43475Y-43338D01*
X43381Y-43338D01*
X43981Y-43338D02*
X43756Y-43338D01*
X43869Y-43338D02*
X43869Y-42944D01*
X43831Y-43000D01*
X43794Y-43038D01*
X43756Y-43056D01*
X44225Y-42944D02*
X44263Y-42944D01*
X44300Y-42963D01*
X44319Y-42981D01*
X44338Y-43019D01*
X44356Y-43094D01*
X44356Y-43188D01*
X44338Y-43263D01*
X44319Y-43300D01*
X44300Y-43319D01*
X44263Y-43338D01*
X44225Y-43338D01*
X44188Y-43319D01*
X44169Y-43300D01*
X44150Y-43263D01*
X44131Y-43188D01*
X44131Y-43094D01*
X44150Y-43019D01*
X44169Y-42981D01*
X44188Y-42963D01*
X44225Y-42944D01*
X50261Y-43504D02*
X50523Y-43898D01*
X50523Y-43504D02*
X50261Y-43898D01*
X50879Y-43898D02*
X50654Y-43898D01*
X50767Y-43898D02*
X50767Y-43504D01*
X50729Y-43560D01*
X50692Y-43598D01*
X50654Y-43616D01*
G54D13*
X56540Y-45463D02*
X56540Y-45625D01*
X56550Y-45644D01*
X56559Y-45653D01*
X56578Y-45663D01*
X56616Y-45663D01*
X56635Y-45653D01*
X56645Y-45644D01*
X56654Y-45625D01*
X56654Y-45463D01*
X56835Y-45529D02*
X56835Y-45663D01*
X56788Y-45453D02*
X56740Y-45596D01*
X56864Y-45596D01*
G54D10*
X59070Y-38337D02*
X59070Y-38656D01*
X59088Y-38693D01*
X59107Y-38712D01*
X59145Y-38731D01*
X59220Y-38731D01*
X59257Y-38712D01*
X59276Y-38693D01*
X59295Y-38656D01*
X59295Y-38337D01*
X59651Y-38337D02*
X59576Y-38337D01*
X59538Y-38356D01*
X59520Y-38375D01*
X59482Y-38431D01*
X59463Y-38506D01*
X59463Y-38656D01*
X59482Y-38693D01*
X59501Y-38712D01*
X59538Y-38731D01*
X59613Y-38731D01*
X59651Y-38712D01*
X59670Y-38693D01*
X59688Y-38656D01*
X59688Y-38562D01*
X59670Y-38525D01*
X59651Y-38506D01*
X59613Y-38487D01*
X59538Y-38487D01*
X59501Y-38506D01*
X59482Y-38525D01*
X59463Y-38562D01*
X59503Y-45542D02*
X59503Y-45860D01*
X59521Y-45898D01*
X59540Y-45917D01*
X59578Y-45935D01*
X59653Y-45935D01*
X59690Y-45917D01*
X59709Y-45898D01*
X59728Y-45860D01*
X59728Y-45542D01*
X59878Y-45542D02*
X60140Y-45542D01*
X59971Y-45935D01*
%LPC*%
G54D21*
X53149Y-39521D03*
X52834Y-39521D03*
X52519Y-39521D03*
X52204Y-39521D03*
X51889Y-39521D03*
X51574Y-39521D03*
X53464Y-39521D03*
X53779Y-39521D03*
X54094Y-39521D03*
X54409Y-39521D03*
X54724Y-39521D03*
X53149Y-44021D03*
X52834Y-44021D03*
X52519Y-44021D03*
X52204Y-44021D03*
X51889Y-44021D03*
X51574Y-44021D03*
X53464Y-44021D03*
X53779Y-44021D03*
X54094Y-44021D03*
X54409Y-44021D03*
X54724Y-44021D03*
G54D22*
X50899Y-41771D03*
X55399Y-41771D03*
X50899Y-42086D03*
X55399Y-42086D03*
X55399Y-42401D03*
X50899Y-42401D03*
X50899Y-42716D03*
X55399Y-42716D03*
X55399Y-43031D03*
X50899Y-43031D03*
X50899Y-43346D03*
X55399Y-43346D03*
X55399Y-41456D03*
X50899Y-41456D03*
X50899Y-41141D03*
X55399Y-41141D03*
X55399Y-40826D03*
X50899Y-40826D03*
X50899Y-40511D03*
X55399Y-40511D03*
X55399Y-40196D03*
X50899Y-40196D03*
G54D23*
X42019Y-44152D03*
X42019Y-44902D03*
X43019Y-44152D03*
X42019Y-44527D03*
X43019Y-44902D03*
G54D24*
X59620Y-43280D03*
X59020Y-43280D03*
G54D25*
X50846Y-37425D03*
X50846Y-36825D03*
G54D24*
X49880Y-44520D03*
X49280Y-44520D03*
G54D25*
X48350Y-42075D03*
X48350Y-42675D03*
X56299Y-41471D03*
X56299Y-42071D03*
G54D24*
X44000Y-39409D03*
X43400Y-39409D03*
X46362Y-40196D03*
X45762Y-40196D03*
X42819Y-43346D03*
X42219Y-43346D03*
X41650Y-41750D03*
X42250Y-41750D03*
X41650Y-41100D03*
X42250Y-41100D03*
X46362Y-40984D03*
X45762Y-40984D03*
X44788Y-41771D03*
X44188Y-41771D03*
X44188Y-42559D03*
X44788Y-42559D03*
G54D25*
X48350Y-43250D03*
X48350Y-43850D03*
G54D24*
X50743Y-38818D03*
X51343Y-38818D03*
G54D25*
X46811Y-38774D03*
X46811Y-39374D03*
X44094Y-44227D03*
X44094Y-44827D03*
X49586Y-40093D03*
X49586Y-40693D03*
X54724Y-44719D03*
X54724Y-45319D03*
X53937Y-45014D03*
X53937Y-45614D03*
G54D24*
X56599Y-38228D03*
X55999Y-38228D03*
X54818Y-37047D03*
X55418Y-37047D03*
X55999Y-37047D03*
X56599Y-37047D03*
X55418Y-38228D03*
X54818Y-38228D03*
X52662Y-38228D03*
X52062Y-38228D03*
X53843Y-38228D03*
X53243Y-38228D03*
X52062Y-37047D03*
X52662Y-37047D03*
X53341Y-37047D03*
X53941Y-37047D03*
G54D26*
X48728Y-40393D03*
G54D27*
X47728Y-40393D03*
X50574Y-45314D03*
X52574Y-45314D03*
G54D28*
X46094Y-36940D03*
G54D29*
X46094Y-37940D03*
X45094Y-36940D03*
X45094Y-37940D03*
X44094Y-36940D03*
X44094Y-37940D03*
X43094Y-36940D03*
X43094Y-37940D03*
X42094Y-36940D03*
X42094Y-37940D03*
G54D24*
X60075Y-38400D03*
X60675Y-38400D03*
G54D25*
X57165Y-37180D03*
X57165Y-37780D03*
X60675Y-37025D03*
X60675Y-37625D03*
G54D30*
X44546Y-40974D03*
X44546Y-40718D03*
X44546Y-40462D03*
X44546Y-40206D03*
X42854Y-40206D03*
X42854Y-40462D03*
X42854Y-40718D03*
X42854Y-40974D03*
G54D31*
X55975Y-43800D03*
X56725Y-43800D03*
G54D32*
X57874Y-37855D03*
X57874Y-37105D03*
X60350Y-44900D03*
X60350Y-44150D03*
G54D24*
X55762Y-39586D03*
X56362Y-39586D03*
G54D25*
X51791Y-45418D03*
X51791Y-44818D03*
G54D24*
X49266Y-41299D03*
X49866Y-41299D03*
G54D33*
X50157Y-37399D03*
X50157Y-37899D03*
X50157Y-38399D03*
X50157Y-38899D03*
X47480Y-38899D03*
X47480Y-38399D03*
X47480Y-37899D03*
X47480Y-37399D03*
X60155Y-42484D03*
X60155Y-41984D03*
X60155Y-41484D03*
X60155Y-40984D03*
X60155Y-40484D03*
X60155Y-39984D03*
X60155Y-39484D03*
X58055Y-39484D03*
X58055Y-39984D03*
X58055Y-40484D03*
X58055Y-40984D03*
X58055Y-41484D03*
X58055Y-41984D03*
X58055Y-42484D03*
G54D25*
X58460Y-43960D03*
X58460Y-43360D03*
G54D24*
X56680Y-43040D03*
X56080Y-43040D03*
G54D34*
X43650Y-42583D03*
X43650Y-41716D03*
G54D35*
X49848Y-43269D03*
X49001Y-43269D03*
X49001Y-43880D03*
X49848Y-43880D03*
G54D30*
X57538Y-45206D03*
X57538Y-44950D03*
X57538Y-44694D03*
X57538Y-44438D03*
X55846Y-44438D03*
X55846Y-44694D03*
X55846Y-44950D03*
X55846Y-45206D03*
G54D36*
X58956Y-38070D03*
X58759Y-38070D03*
X59153Y-38070D03*
X59350Y-38070D03*
X59350Y-36811D03*
X59153Y-36811D03*
X58759Y-36811D03*
X58956Y-36811D03*
G54D37*
X58425Y-37342D03*
X58425Y-37145D03*
X58425Y-37539D03*
X58425Y-37736D03*
X59685Y-37736D03*
X59685Y-37539D03*
X59685Y-37145D03*
X59685Y-37342D03*
G54D38*
X59192Y-37578D03*
X58917Y-37578D03*
X58917Y-37303D03*
X59192Y-37303D03*
G54D39*
X58443Y-44628D03*
X58443Y-44825D03*
X58439Y-45021D03*
X58443Y-45218D03*
X58443Y-44431D03*
X59620Y-44431D03*
X59620Y-45218D03*
G54D40*
X59616Y-45021D03*
G54D39*
X59620Y-44825D03*
X59620Y-44628D03*
G54D41*
X58853Y-44254D03*
X59050Y-44254D03*
X59246Y-44254D03*
X59246Y-45395D03*
X59050Y-45395D03*
X58853Y-45395D03*
M02*
