%FSLAX34Y34*%
G04 Gerber Fmt 3.4, Leading zero omitted, Abs format*
G04 (created by PCBNEW (2013-11-03 BZR 4430)-product) date Fri 08 Nov 2013 11:28:15 PM CST*
%MOIN*%
G01*
G70*
G90*
G04 APERTURE LIST*
%ADD10C,0.005906*%
%ADD11C,0.011811*%
%ADD12C,0.009843*%
%ADD13C,0.005000*%
%ADD14C,0.004700*%
%ADD15C,0.003900*%
%ADD16C,0.012000*%
%ADD17C,0.002600*%
%ADD18C,0.004000*%
%ADD19C,0.002000*%
%ADD20C,0.006890*%
%ADD21C,0.004300*%
%ADD22C,0.004500*%
%ADD23C,0.004921*%
%ADD24C,0.008000*%
%ADD25C,0.005100*%
%ADD26R,0.038000X0.028000*%
%ADD27R,0.028000X0.038000*%
%ADD28R,0.078900X0.114300*%
%ADD29R,0.043000X0.063000*%
%ADD30R,0.053000X0.033000*%
%ADD31R,0.033000X0.053000*%
%ADD32R,0.063000X0.063000*%
%ADD33C,0.063000*%
%ADD34R,0.055200X0.055200*%
%ADD35R,0.068000X0.068000*%
%ADD36C,0.068000*%
%ADD37R,0.058000X0.108000*%
%ADD38R,0.063000X0.043000*%
%ADD39R,0.044000X0.044000*%
%ADD40R,0.165480X0.067055*%
%ADD41R,0.031622X0.031622*%
%ADD42R,0.090677X0.063118*%
%ADD43R,0.063118X0.039220*%
%ADD44O,0.034296X0.012643*%
%ADD45O,0.037839X0.012643*%
G04 APERTURE END LIST*
G54D10*
G54D11*
X52592Y-37788D02*
X52442Y-37788D01*
X52367Y-37826D01*
X52292Y-37901D01*
X52254Y-38051D01*
X52254Y-38313D01*
X52292Y-38463D01*
X52367Y-38538D01*
X52442Y-38576D01*
X52592Y-38576D01*
X52667Y-38538D01*
X52742Y-38463D01*
X52779Y-38313D01*
X52779Y-38051D01*
X52742Y-37901D01*
X52667Y-37826D01*
X52592Y-37788D01*
X51954Y-38538D02*
X51842Y-38576D01*
X51654Y-38576D01*
X51579Y-38538D01*
X51542Y-38501D01*
X51504Y-38426D01*
X51504Y-38351D01*
X51542Y-38276D01*
X51579Y-38238D01*
X51654Y-38201D01*
X51804Y-38163D01*
X51879Y-38126D01*
X51917Y-38088D01*
X51954Y-38013D01*
X51954Y-37938D01*
X51917Y-37863D01*
X51879Y-37826D01*
X51804Y-37788D01*
X51617Y-37788D01*
X51504Y-37826D01*
X51167Y-38576D02*
X51167Y-37788D01*
X51167Y-38163D02*
X50717Y-38163D01*
X50717Y-38576D02*
X50717Y-37788D01*
X50417Y-37788D02*
X50230Y-38576D01*
X50080Y-38013D01*
X49930Y-38576D01*
X49742Y-37788D01*
G54D12*
X55002Y-37281D02*
X55040Y-37318D01*
X55152Y-37356D01*
X55227Y-37356D01*
X55340Y-37318D01*
X55415Y-37243D01*
X55452Y-37168D01*
X55490Y-37018D01*
X55490Y-36906D01*
X55452Y-36756D01*
X55415Y-36681D01*
X55340Y-36606D01*
X55227Y-36568D01*
X55152Y-36568D01*
X55040Y-36606D01*
X55002Y-36643D01*
X54215Y-37281D02*
X54252Y-37318D01*
X54365Y-37356D01*
X54440Y-37356D01*
X54552Y-37318D01*
X54627Y-37243D01*
X54665Y-37168D01*
X54702Y-37018D01*
X54702Y-36906D01*
X54665Y-36756D01*
X54627Y-36681D01*
X54552Y-36606D01*
X54440Y-36568D01*
X54365Y-36568D01*
X54252Y-36606D01*
X54215Y-36643D01*
X53877Y-37056D02*
X53277Y-37056D01*
X52640Y-36943D02*
X52527Y-36981D01*
X52490Y-37018D01*
X52452Y-37093D01*
X52452Y-37206D01*
X52490Y-37281D01*
X52527Y-37318D01*
X52602Y-37356D01*
X52902Y-37356D01*
X52902Y-36568D01*
X52640Y-36568D01*
X52565Y-36606D01*
X52527Y-36643D01*
X52490Y-36718D01*
X52490Y-36793D01*
X52527Y-36868D01*
X52565Y-36906D01*
X52640Y-36943D01*
X52902Y-36943D01*
X51965Y-36981D02*
X51965Y-37356D01*
X52227Y-36568D02*
X51965Y-36981D01*
X51702Y-36568D01*
X51440Y-37056D02*
X50840Y-37056D01*
X50503Y-37318D02*
X50390Y-37356D01*
X50203Y-37356D01*
X50128Y-37318D01*
X50090Y-37281D01*
X50053Y-37206D01*
X50053Y-37131D01*
X50090Y-37056D01*
X50128Y-37018D01*
X50203Y-36981D01*
X50353Y-36943D01*
X50428Y-36906D01*
X50465Y-36868D01*
X50503Y-36793D01*
X50503Y-36718D01*
X50465Y-36643D01*
X50428Y-36606D01*
X50353Y-36568D01*
X50165Y-36568D01*
X50053Y-36606D01*
X49753Y-37131D02*
X49378Y-37131D01*
X49828Y-37356D02*
X49565Y-36568D01*
X49303Y-37356D01*
X48515Y-36568D02*
X48028Y-36568D01*
X48290Y-36868D01*
X48178Y-36868D01*
X48103Y-36906D01*
X48065Y-36943D01*
X48028Y-37018D01*
X48028Y-37206D01*
X48065Y-37281D01*
X48103Y-37318D01*
X48178Y-37356D01*
X48403Y-37356D01*
X48478Y-37318D01*
X48515Y-37281D01*
X47690Y-37281D02*
X47653Y-37318D01*
X47690Y-37356D01*
X47728Y-37318D01*
X47690Y-37281D01*
X47690Y-37356D01*
X47166Y-36568D02*
X47091Y-36568D01*
X47016Y-36606D01*
X46978Y-36643D01*
X46941Y-36718D01*
X46903Y-36868D01*
X46903Y-37056D01*
X46941Y-37206D01*
X46978Y-37281D01*
X47016Y-37318D01*
X47091Y-37356D01*
X47166Y-37356D01*
X47241Y-37318D01*
X47278Y-37281D01*
X47316Y-37206D01*
X47353Y-37056D01*
X47353Y-36868D01*
X47316Y-36718D01*
X47278Y-36643D01*
X47241Y-36606D01*
X47166Y-36568D01*
X54243Y-43815D02*
X54055Y-43815D01*
X54280Y-43928D02*
X54149Y-43534D01*
X54018Y-43928D01*
X53718Y-43909D02*
X53755Y-43928D01*
X53830Y-43928D01*
X53868Y-43909D01*
X53887Y-43890D01*
X53905Y-43853D01*
X53905Y-43740D01*
X53887Y-43703D01*
X53868Y-43684D01*
X53830Y-43665D01*
X53755Y-43665D01*
X53718Y-43684D01*
X53380Y-43909D02*
X53418Y-43928D01*
X53493Y-43928D01*
X53530Y-43909D01*
X53549Y-43890D01*
X53568Y-43853D01*
X53568Y-43740D01*
X53549Y-43703D01*
X53530Y-43684D01*
X53493Y-43665D01*
X53418Y-43665D01*
X53380Y-43684D01*
X53062Y-43909D02*
X53099Y-43928D01*
X53174Y-43928D01*
X53212Y-43909D01*
X53231Y-43871D01*
X53231Y-43721D01*
X53212Y-43684D01*
X53174Y-43665D01*
X53099Y-43665D01*
X53062Y-43684D01*
X53043Y-43721D01*
X53043Y-43759D01*
X53231Y-43796D01*
X52818Y-43928D02*
X52856Y-43909D01*
X52874Y-43871D01*
X52874Y-43534D01*
X52518Y-43909D02*
X52556Y-43928D01*
X52631Y-43928D01*
X52668Y-43909D01*
X52687Y-43871D01*
X52687Y-43721D01*
X52668Y-43684D01*
X52631Y-43665D01*
X52556Y-43665D01*
X52518Y-43684D01*
X52499Y-43721D01*
X52499Y-43759D01*
X52687Y-43796D01*
X52331Y-43928D02*
X52331Y-43665D01*
X52331Y-43740D02*
X52312Y-43703D01*
X52293Y-43684D01*
X52256Y-43665D01*
X52218Y-43665D01*
X51918Y-43928D02*
X51918Y-43721D01*
X51937Y-43684D01*
X51974Y-43665D01*
X52049Y-43665D01*
X52087Y-43684D01*
X51918Y-43909D02*
X51956Y-43928D01*
X52049Y-43928D01*
X52087Y-43909D01*
X52106Y-43871D01*
X52106Y-43834D01*
X52087Y-43796D01*
X52049Y-43778D01*
X51956Y-43778D01*
X51918Y-43759D01*
X51787Y-43665D02*
X51637Y-43665D01*
X51731Y-43534D02*
X51731Y-43871D01*
X51712Y-43909D01*
X51674Y-43928D01*
X51637Y-43928D01*
X51506Y-43928D02*
X51506Y-43665D01*
X51506Y-43534D02*
X51524Y-43553D01*
X51506Y-43571D01*
X51487Y-43553D01*
X51506Y-43534D01*
X51506Y-43571D01*
X51262Y-43928D02*
X51300Y-43909D01*
X51318Y-43890D01*
X51337Y-43853D01*
X51337Y-43740D01*
X51318Y-43703D01*
X51300Y-43684D01*
X51262Y-43665D01*
X51206Y-43665D01*
X51168Y-43684D01*
X51150Y-43703D01*
X51131Y-43740D01*
X51131Y-43853D01*
X51150Y-43890D01*
X51168Y-43909D01*
X51206Y-43928D01*
X51262Y-43928D01*
X50962Y-43665D02*
X50962Y-43928D01*
X50962Y-43703D02*
X50943Y-43684D01*
X50906Y-43665D01*
X50850Y-43665D01*
X50812Y-43684D01*
X50793Y-43721D01*
X50793Y-43928D01*
X50118Y-43928D02*
X50306Y-43928D01*
X50306Y-43534D01*
X49931Y-43928D02*
X49968Y-43909D01*
X49987Y-43890D01*
X50006Y-43853D01*
X50006Y-43740D01*
X49987Y-43703D01*
X49968Y-43684D01*
X49931Y-43665D01*
X49875Y-43665D01*
X49837Y-43684D01*
X49818Y-43703D01*
X49800Y-43740D01*
X49800Y-43853D01*
X49818Y-43890D01*
X49837Y-43909D01*
X49875Y-43928D01*
X49931Y-43928D01*
X49462Y-43665D02*
X49462Y-43984D01*
X49481Y-44021D01*
X49500Y-44040D01*
X49537Y-44059D01*
X49593Y-44059D01*
X49631Y-44040D01*
X49462Y-43909D02*
X49500Y-43928D01*
X49575Y-43928D01*
X49612Y-43909D01*
X49631Y-43890D01*
X49650Y-43853D01*
X49650Y-43740D01*
X49631Y-43703D01*
X49612Y-43684D01*
X49575Y-43665D01*
X49500Y-43665D01*
X49462Y-43684D01*
X49106Y-43665D02*
X49106Y-43984D01*
X49125Y-44021D01*
X49144Y-44040D01*
X49181Y-44059D01*
X49237Y-44059D01*
X49275Y-44040D01*
X49106Y-43909D02*
X49144Y-43928D01*
X49219Y-43928D01*
X49256Y-43909D01*
X49275Y-43890D01*
X49294Y-43853D01*
X49294Y-43740D01*
X49275Y-43703D01*
X49256Y-43684D01*
X49219Y-43665D01*
X49144Y-43665D01*
X49106Y-43684D01*
X48769Y-43909D02*
X48806Y-43928D01*
X48881Y-43928D01*
X48919Y-43909D01*
X48937Y-43871D01*
X48937Y-43721D01*
X48919Y-43684D01*
X48881Y-43665D01*
X48806Y-43665D01*
X48769Y-43684D01*
X48750Y-43721D01*
X48750Y-43759D01*
X48937Y-43796D01*
X48581Y-43928D02*
X48581Y-43665D01*
X48581Y-43740D02*
X48562Y-43703D01*
X48544Y-43684D01*
X48506Y-43665D01*
X48469Y-43665D01*
X52356Y-43336D02*
X52618Y-42961D01*
X52806Y-43336D02*
X52806Y-42548D01*
X52506Y-42548D01*
X52431Y-42586D01*
X52393Y-42623D01*
X52356Y-42698D01*
X52356Y-42811D01*
X52393Y-42886D01*
X52431Y-42923D01*
X52506Y-42961D01*
X52806Y-42961D01*
X51718Y-43298D02*
X51793Y-43336D01*
X51943Y-43336D01*
X52018Y-43298D01*
X52056Y-43223D01*
X52056Y-42923D01*
X52018Y-42848D01*
X51943Y-42811D01*
X51793Y-42811D01*
X51718Y-42848D01*
X51681Y-42923D01*
X51681Y-42998D01*
X52056Y-43073D01*
X51418Y-42811D02*
X51231Y-43336D01*
X51043Y-42811D01*
X50743Y-43261D02*
X50706Y-43298D01*
X50743Y-43336D01*
X50781Y-43298D01*
X50743Y-43261D01*
X50743Y-43336D01*
X49618Y-42548D02*
X49543Y-42548D01*
X49468Y-42586D01*
X49431Y-42623D01*
X49393Y-42698D01*
X49356Y-42848D01*
X49356Y-43036D01*
X49393Y-43186D01*
X49431Y-43261D01*
X49468Y-43298D01*
X49543Y-43336D01*
X49618Y-43336D01*
X49693Y-43298D01*
X49731Y-43261D01*
X49768Y-43186D01*
X49806Y-43036D01*
X49806Y-42848D01*
X49768Y-42698D01*
X49731Y-42623D01*
X49693Y-42586D01*
X49618Y-42548D01*
G54D13*
X56727Y-44104D02*
X56027Y-44104D01*
X56027Y-44104D02*
X56027Y-45304D01*
X56027Y-45304D02*
X56727Y-45304D01*
X56727Y-45304D02*
X56727Y-44104D01*
X47942Y-45074D02*
X47942Y-44374D01*
X47942Y-44374D02*
X46742Y-44374D01*
X46742Y-44374D02*
X46742Y-45074D01*
X46742Y-45074D02*
X47942Y-45074D01*
G54D14*
X47736Y-42696D02*
X47736Y-41436D01*
X44980Y-42696D02*
X44980Y-41436D01*
X46829Y-41434D02*
X47729Y-41434D01*
X47729Y-42698D02*
X46829Y-42698D01*
X45886Y-42698D02*
X44986Y-42698D01*
X44986Y-41434D02*
X45886Y-41434D01*
X43697Y-44545D02*
X43697Y-45805D01*
X46453Y-44545D02*
X46453Y-45805D01*
X44604Y-45807D02*
X43704Y-45807D01*
X43704Y-44543D02*
X44604Y-44543D01*
X45547Y-44543D02*
X46447Y-44543D01*
X46447Y-45807D02*
X45547Y-45807D01*
G54D15*
X41525Y-39109D02*
G75*
G03X41525Y-39109I-50J0D01*
G74*
G01*
X41925Y-39109D02*
X41525Y-39109D01*
X41525Y-39109D02*
X41525Y-39709D01*
X41525Y-39709D02*
X41925Y-39709D01*
X42325Y-39709D02*
X42725Y-39709D01*
X42725Y-39709D02*
X42725Y-39109D01*
X42725Y-39109D02*
X42325Y-39109D01*
X41525Y-43046D02*
G75*
G03X41525Y-43046I-50J0D01*
G74*
G01*
X41925Y-43046D02*
X41525Y-43046D01*
X41525Y-43046D02*
X41525Y-43646D01*
X41525Y-43646D02*
X41925Y-43646D01*
X42325Y-43646D02*
X42725Y-43646D01*
X42725Y-43646D02*
X42725Y-43046D01*
X42725Y-43046D02*
X42325Y-43046D01*
G54D14*
X56804Y-38283D02*
X56804Y-38008D01*
X56804Y-38677D02*
X56804Y-38952D01*
X57316Y-38283D02*
X57316Y-38008D01*
X57316Y-38952D02*
X57316Y-38677D01*
X57310Y-38008D02*
X56810Y-38008D01*
X56810Y-38952D02*
X57310Y-38952D01*
X56104Y-41583D02*
X56104Y-41308D01*
X56104Y-41977D02*
X56104Y-42252D01*
X56616Y-41583D02*
X56616Y-41308D01*
X56616Y-42252D02*
X56616Y-41977D01*
X56610Y-41308D02*
X56110Y-41308D01*
X56110Y-42252D02*
X56610Y-42252D01*
X46706Y-43697D02*
X46706Y-43972D01*
X46706Y-43303D02*
X46706Y-43028D01*
X46194Y-43697D02*
X46194Y-43972D01*
X46194Y-43028D02*
X46194Y-43303D01*
X46200Y-43972D02*
X46700Y-43972D01*
X46700Y-43028D02*
X46200Y-43028D01*
X43844Y-43428D02*
X43844Y-43153D01*
X43844Y-43822D02*
X43844Y-44097D01*
X44356Y-43428D02*
X44356Y-43153D01*
X44356Y-44097D02*
X44356Y-43822D01*
X44350Y-43153D02*
X43850Y-43153D01*
X43850Y-44097D02*
X44350Y-44097D01*
G54D13*
X55090Y-41810D02*
X55990Y-41810D01*
X55990Y-41810D02*
X55990Y-41310D01*
X55990Y-41310D02*
X55090Y-41310D01*
X55090Y-41310D02*
X55090Y-41810D01*
X55490Y-43010D02*
X55490Y-42110D01*
X55490Y-42110D02*
X54990Y-42110D01*
X54990Y-42110D02*
X54990Y-43010D01*
X54990Y-43010D02*
X55490Y-43010D01*
X56850Y-41330D02*
X56850Y-42230D01*
X56850Y-42230D02*
X57350Y-42230D01*
X57350Y-42230D02*
X57350Y-41330D01*
X57350Y-41330D02*
X56850Y-41330D01*
X55064Y-40042D02*
X55064Y-40942D01*
X55064Y-40942D02*
X55564Y-40942D01*
X55564Y-40942D02*
X55564Y-40042D01*
X55564Y-40042D02*
X55064Y-40042D01*
X46950Y-43500D02*
X47850Y-43500D01*
X47850Y-43500D02*
X47850Y-43000D01*
X47850Y-43000D02*
X46950Y-43000D01*
X46950Y-43000D02*
X46950Y-43500D01*
X48225Y-44725D02*
X49125Y-44725D01*
X49125Y-44725D02*
X49125Y-44225D01*
X49125Y-44225D02*
X48225Y-44225D01*
X48225Y-44225D02*
X48225Y-44725D01*
X57230Y-44928D02*
X57230Y-45828D01*
X57230Y-45828D02*
X57730Y-45828D01*
X57730Y-45828D02*
X57730Y-44928D01*
X57730Y-44928D02*
X57230Y-44928D01*
G54D16*
X49228Y-40893D02*
X49228Y-39893D01*
X49228Y-39893D02*
X47228Y-39893D01*
X47228Y-39893D02*
X47228Y-40893D01*
X47228Y-40893D02*
X49228Y-40893D01*
G54D17*
X41929Y-41495D02*
X41929Y-41623D01*
X41929Y-41623D02*
X41732Y-41623D01*
X41732Y-41495D02*
X41732Y-41623D01*
X41929Y-41495D02*
X41732Y-41495D01*
X41929Y-41250D02*
X41929Y-41309D01*
X41929Y-41309D02*
X41830Y-41309D01*
X41830Y-41250D02*
X41830Y-41309D01*
X41929Y-41250D02*
X41830Y-41250D01*
X41929Y-41445D02*
X41929Y-41504D01*
X41929Y-41504D02*
X41830Y-41504D01*
X41830Y-41445D02*
X41830Y-41504D01*
X41929Y-41445D02*
X41830Y-41445D01*
X41929Y-41299D02*
X41929Y-41455D01*
X41929Y-41455D02*
X41860Y-41455D01*
X41860Y-41299D02*
X41860Y-41455D01*
X41929Y-41299D02*
X41860Y-41299D01*
X42518Y-41495D02*
X42518Y-41623D01*
X42518Y-41623D02*
X42321Y-41623D01*
X42321Y-41495D02*
X42321Y-41623D01*
X42518Y-41495D02*
X42321Y-41495D01*
X42518Y-41131D02*
X42518Y-41259D01*
X42518Y-41259D02*
X42321Y-41259D01*
X42321Y-41131D02*
X42321Y-41259D01*
X42518Y-41131D02*
X42321Y-41131D01*
X42420Y-41445D02*
X42420Y-41504D01*
X42420Y-41504D02*
X42321Y-41504D01*
X42321Y-41445D02*
X42321Y-41504D01*
X42420Y-41445D02*
X42321Y-41445D01*
X42420Y-41250D02*
X42420Y-41309D01*
X42420Y-41309D02*
X42321Y-41309D01*
X42321Y-41250D02*
X42321Y-41309D01*
X42420Y-41250D02*
X42321Y-41250D01*
X42390Y-41299D02*
X42390Y-41455D01*
X42390Y-41455D02*
X42321Y-41455D01*
X42321Y-41299D02*
X42321Y-41455D01*
X42390Y-41299D02*
X42321Y-41299D01*
X42125Y-41338D02*
X42125Y-41416D01*
X42125Y-41416D02*
X42047Y-41416D01*
X42047Y-41338D02*
X42047Y-41416D01*
X42125Y-41338D02*
X42047Y-41338D01*
X41929Y-41141D02*
X41929Y-41259D01*
X41929Y-41259D02*
X41811Y-41259D01*
X41811Y-41141D02*
X41811Y-41259D01*
X41929Y-41141D02*
X41811Y-41141D01*
X41761Y-41131D02*
X41761Y-41220D01*
X41761Y-41220D02*
X41732Y-41220D01*
X41732Y-41131D02*
X41732Y-41220D01*
X41761Y-41131D02*
X41732Y-41131D01*
G54D18*
X41919Y-41603D02*
X42331Y-41603D01*
X42321Y-41151D02*
X41761Y-41151D01*
G54D19*
X41820Y-41200D02*
G75*
G03X41820Y-41200I-28J0D01*
G74*
G01*
G54D18*
X41732Y-41240D02*
G75*
G02X41732Y-41514I0J-137D01*
G74*
G01*
X42518Y-41514D02*
G75*
G02X42518Y-41240I0J137D01*
G74*
G01*
G54D16*
X50174Y-45714D02*
X52974Y-45714D01*
X52974Y-45714D02*
X52974Y-44914D01*
X52974Y-44914D02*
X50174Y-44914D01*
X50174Y-44914D02*
X50174Y-45714D01*
X50174Y-45514D02*
X50374Y-45714D01*
G54D13*
X52398Y-42332D02*
G75*
G03X52398Y-42332I-70J0D01*
G74*
G01*
X51677Y-41182D02*
X52277Y-41182D01*
X52277Y-41182D02*
X52277Y-42282D01*
X52277Y-42282D02*
X51677Y-42282D01*
X51077Y-42282D02*
X50477Y-42282D01*
X50477Y-42282D02*
X50477Y-41182D01*
X50477Y-41182D02*
X51077Y-41182D01*
G54D15*
X45940Y-40680D02*
G75*
G03X45940Y-40680I-50J0D01*
G74*
G01*
X46340Y-40680D02*
X45940Y-40680D01*
X45940Y-40680D02*
X45940Y-41280D01*
X45940Y-41280D02*
X46340Y-41280D01*
X46740Y-41280D02*
X47140Y-41280D01*
X47140Y-41280D02*
X47140Y-40680D01*
X47140Y-40680D02*
X46740Y-40680D01*
X55100Y-39140D02*
G75*
G03X55100Y-39140I-50J0D01*
G74*
G01*
X55500Y-39140D02*
X55100Y-39140D01*
X55100Y-39140D02*
X55100Y-39740D01*
X55100Y-39740D02*
X55500Y-39740D01*
X55900Y-39740D02*
X56300Y-39740D01*
X56300Y-39740D02*
X56300Y-39140D01*
X56300Y-39140D02*
X55900Y-39140D01*
X48218Y-44916D02*
G75*
G03X48218Y-44916I-50J0D01*
G74*
G01*
X48618Y-44916D02*
X48218Y-44916D01*
X48218Y-44916D02*
X48218Y-45516D01*
X48218Y-45516D02*
X48618Y-45516D01*
X49018Y-45516D02*
X49418Y-45516D01*
X49418Y-45516D02*
X49418Y-44916D01*
X49418Y-44916D02*
X49018Y-44916D01*
X58750Y-45133D02*
G75*
G03X58750Y-45133I-50J0D01*
G74*
G01*
X59150Y-45133D02*
X58750Y-45133D01*
X58750Y-45133D02*
X58750Y-45733D01*
X58750Y-45733D02*
X59150Y-45733D01*
X59550Y-45733D02*
X59950Y-45733D01*
X59950Y-45733D02*
X59950Y-45133D01*
X59950Y-45133D02*
X59550Y-45133D01*
G54D13*
X57870Y-44110D02*
X57870Y-45010D01*
X57870Y-45010D02*
X58370Y-45010D01*
X58370Y-45010D02*
X58370Y-44110D01*
X58370Y-44110D02*
X57870Y-44110D01*
G54D15*
X54179Y-45807D02*
G75*
G03X54179Y-45807I-50J0D01*
G74*
G01*
X54129Y-45357D02*
X54129Y-45757D01*
X54129Y-45757D02*
X54729Y-45757D01*
X54729Y-45757D02*
X54729Y-45357D01*
X54729Y-44957D02*
X54729Y-44557D01*
X54729Y-44557D02*
X54129Y-44557D01*
X54129Y-44557D02*
X54129Y-44957D01*
X58190Y-40130D02*
G75*
G03X58190Y-40130I-50J0D01*
G74*
G01*
X58140Y-40580D02*
X58140Y-40180D01*
X58140Y-40180D02*
X57540Y-40180D01*
X57540Y-40180D02*
X57540Y-40580D01*
X57540Y-40980D02*
X57540Y-41380D01*
X57540Y-41380D02*
X58140Y-41380D01*
X58140Y-41380D02*
X58140Y-40980D01*
X53696Y-41535D02*
G75*
G03X53696Y-41535I-50J0D01*
G74*
G01*
X53646Y-41985D02*
X53646Y-41585D01*
X53646Y-41585D02*
X53046Y-41585D01*
X53046Y-41585D02*
X53046Y-41985D01*
X53046Y-42385D02*
X53046Y-42785D01*
X53046Y-42785D02*
X53646Y-42785D01*
X53646Y-42785D02*
X53646Y-42385D01*
X60207Y-41126D02*
G75*
G03X60207Y-41126I-50J0D01*
G74*
G01*
X59707Y-41126D02*
X60107Y-41126D01*
X60107Y-41126D02*
X60107Y-40526D01*
X60107Y-40526D02*
X59707Y-40526D01*
X59307Y-40526D02*
X58907Y-40526D01*
X58907Y-40526D02*
X58907Y-41126D01*
X58907Y-41126D02*
X59307Y-41126D01*
G54D14*
X60260Y-44250D02*
X59060Y-44250D01*
X59060Y-44250D02*
X59060Y-44550D01*
X59060Y-44550D02*
X60260Y-44550D01*
X60260Y-44550D02*
X60260Y-44250D01*
G54D13*
X59010Y-45010D02*
X59010Y-44110D01*
X59010Y-44110D02*
X58510Y-44110D01*
X58510Y-44110D02*
X58510Y-45010D01*
X58510Y-45010D02*
X59010Y-45010D01*
G54D20*
X57381Y-40098D02*
X57381Y-37893D01*
X59311Y-37893D02*
X59311Y-40098D01*
X57381Y-40098D02*
X59311Y-40098D01*
X57381Y-37893D02*
X59311Y-37893D01*
X54980Y-38405D02*
X54980Y-40610D01*
X53051Y-40610D02*
X53051Y-38405D01*
X54980Y-38405D02*
X53051Y-38405D01*
X54980Y-40610D02*
X53051Y-40610D01*
X49594Y-39195D02*
G75*
G03X49594Y-39195I-55J0D01*
G74*
G01*
X48180Y-39165D02*
X49519Y-39165D01*
X48180Y-38634D02*
X49519Y-38634D01*
X49519Y-39165D02*
X49519Y-38634D01*
X48180Y-39165D02*
X48180Y-38634D01*
X47496Y-39606D02*
G75*
G03X47496Y-39606I-55J0D01*
G74*
G01*
X47470Y-38248D02*
X47470Y-39586D01*
X48001Y-38248D02*
X48001Y-39586D01*
X47470Y-39586D02*
X48001Y-39586D01*
X47470Y-38248D02*
X48001Y-38248D01*
X48391Y-41079D02*
G75*
G03X48391Y-41079I-55J0D01*
G74*
G01*
X49694Y-41109D02*
X48355Y-41109D01*
X49694Y-41640D02*
X48355Y-41640D01*
X48355Y-41109D02*
X48355Y-41640D01*
X49694Y-41109D02*
X49694Y-41640D01*
X50475Y-39111D02*
G75*
G03X50475Y-39111I-55J0D01*
G74*
G01*
X50390Y-40469D02*
X50390Y-39130D01*
X49859Y-40469D02*
X49859Y-39130D01*
X50390Y-39130D02*
X49859Y-39130D01*
X50390Y-40469D02*
X49859Y-40469D01*
X46044Y-43895D02*
G75*
G03X46044Y-43895I-55J0D01*
G74*
G01*
X44630Y-43865D02*
X45969Y-43865D01*
X44630Y-43334D02*
X45969Y-43334D01*
X45969Y-43865D02*
X45969Y-43334D01*
X44630Y-43865D02*
X44630Y-43334D01*
X60562Y-40399D02*
G75*
G03X60562Y-40399I-70J0D01*
G74*
G01*
X60471Y-40380D02*
X60471Y-37899D01*
X59408Y-37899D02*
X59408Y-40380D01*
X60471Y-37899D02*
X59408Y-37899D01*
X60471Y-40380D02*
X59408Y-40380D01*
G54D10*
X55889Y-41110D02*
X55889Y-41051D01*
X57110Y-41110D02*
X57110Y-41051D01*
X55889Y-39889D02*
X55889Y-39948D01*
X57110Y-39889D02*
X57110Y-39948D01*
X55889Y-41110D02*
X57110Y-41110D01*
X55889Y-39889D02*
X57110Y-39889D01*
G54D13*
X56568Y-43721D02*
X56568Y-43923D01*
X56556Y-43947D01*
X56544Y-43959D01*
X56520Y-43971D01*
X56473Y-43971D01*
X56449Y-43959D01*
X56437Y-43947D01*
X56425Y-43923D01*
X56425Y-43721D01*
X56187Y-43721D02*
X56306Y-43721D01*
X56318Y-43840D01*
X56306Y-43828D01*
X56282Y-43816D01*
X56223Y-43816D01*
X56199Y-43828D01*
X56187Y-43840D01*
X56175Y-43864D01*
X56175Y-43923D01*
X56187Y-43947D01*
X56199Y-43959D01*
X56223Y-43971D01*
X56282Y-43971D01*
X56306Y-43959D01*
X56318Y-43947D01*
X47515Y-45488D02*
X47515Y-45690D01*
X47503Y-45714D01*
X47491Y-45726D01*
X47467Y-45738D01*
X47420Y-45738D01*
X47396Y-45726D01*
X47384Y-45714D01*
X47372Y-45690D01*
X47372Y-45488D01*
X47122Y-45738D02*
X47265Y-45738D01*
X47194Y-45738D02*
X47194Y-45488D01*
X47217Y-45523D01*
X47241Y-45547D01*
X47265Y-45559D01*
X45621Y-41299D02*
X45752Y-41299D01*
X45752Y-41023D01*
X45542Y-41050D02*
X45529Y-41037D01*
X45502Y-41023D01*
X45437Y-41023D01*
X45410Y-41037D01*
X45397Y-41050D01*
X45384Y-41076D01*
X45384Y-41102D01*
X45397Y-41142D01*
X45555Y-41299D01*
X45384Y-41299D01*
X45246Y-44449D02*
X45377Y-44449D01*
X45377Y-44173D01*
X45009Y-44449D02*
X45167Y-44449D01*
X45088Y-44449D02*
X45088Y-44173D01*
X45114Y-44213D01*
X45140Y-44239D01*
X45167Y-44252D01*
G54D21*
X42271Y-40049D02*
X42271Y-39852D01*
X42224Y-39852D01*
X42196Y-39862D01*
X42177Y-39880D01*
X42168Y-39899D01*
X42158Y-39937D01*
X42158Y-39965D01*
X42168Y-40002D01*
X42177Y-40021D01*
X42196Y-40040D01*
X42224Y-40049D01*
X42271Y-40049D01*
X42093Y-39852D02*
X41961Y-39852D01*
X42046Y-40049D01*
X42271Y-43986D02*
X42271Y-43789D01*
X42224Y-43789D01*
X42196Y-43799D01*
X42177Y-43817D01*
X42168Y-43836D01*
X42158Y-43874D01*
X42158Y-43902D01*
X42168Y-43939D01*
X42177Y-43958D01*
X42196Y-43977D01*
X42224Y-43986D01*
X42271Y-43986D01*
X42065Y-43986D02*
X42027Y-43986D01*
X42008Y-43977D01*
X41999Y-43967D01*
X41980Y-43939D01*
X41971Y-43902D01*
X41971Y-43827D01*
X41980Y-43808D01*
X41989Y-43799D01*
X42008Y-43789D01*
X42046Y-43789D01*
X42065Y-43799D01*
X42074Y-43808D01*
X42083Y-43827D01*
X42083Y-43874D01*
X42074Y-43892D01*
X42065Y-43902D01*
X42046Y-43911D01*
X42008Y-43911D01*
X41989Y-43902D01*
X41980Y-43892D01*
X41971Y-43874D01*
G54D22*
X56658Y-38383D02*
X56668Y-38375D01*
X56678Y-38349D01*
X56678Y-38332D01*
X56668Y-38306D01*
X56649Y-38289D01*
X56630Y-38281D01*
X56592Y-38272D01*
X56563Y-38272D01*
X56525Y-38281D01*
X56506Y-38289D01*
X56487Y-38306D01*
X56478Y-38332D01*
X56478Y-38349D01*
X56487Y-38375D01*
X56497Y-38383D01*
X56678Y-38555D02*
X56678Y-38452D01*
X56678Y-38503D02*
X56478Y-38503D01*
X56506Y-38486D01*
X56525Y-38469D01*
X56535Y-38452D01*
X56478Y-38615D02*
X56478Y-38735D01*
X56678Y-38658D01*
X56454Y-42591D02*
X56462Y-42600D01*
X56488Y-42610D01*
X56505Y-42610D01*
X56531Y-42600D01*
X56548Y-42581D01*
X56557Y-42562D01*
X56565Y-42524D01*
X56565Y-42495D01*
X56557Y-42457D01*
X56548Y-42438D01*
X56531Y-42419D01*
X56505Y-42410D01*
X56488Y-42410D01*
X56462Y-42419D01*
X56454Y-42429D01*
X56282Y-42610D02*
X56385Y-42610D01*
X56334Y-42610D02*
X56334Y-42410D01*
X56351Y-42438D01*
X56368Y-42457D01*
X56385Y-42467D01*
X56128Y-42410D02*
X56162Y-42410D01*
X56180Y-42419D01*
X56188Y-42429D01*
X56205Y-42457D01*
X56214Y-42495D01*
X56214Y-42572D01*
X56205Y-42591D01*
X56197Y-42600D01*
X56180Y-42610D01*
X56145Y-42610D01*
X56128Y-42600D01*
X56120Y-42591D01*
X56111Y-42572D01*
X56111Y-42524D01*
X56120Y-42505D01*
X56128Y-42495D01*
X56145Y-42486D01*
X56180Y-42486D01*
X56197Y-42495D01*
X56205Y-42505D01*
X56214Y-42524D01*
X46486Y-44323D02*
X46495Y-44332D01*
X46520Y-44342D01*
X46538Y-44342D01*
X46563Y-44332D01*
X46580Y-44313D01*
X46589Y-44294D01*
X46598Y-44256D01*
X46598Y-44228D01*
X46589Y-44190D01*
X46580Y-44171D01*
X46563Y-44151D01*
X46538Y-44142D01*
X46520Y-44142D01*
X46495Y-44151D01*
X46486Y-44161D01*
X46426Y-44142D02*
X46306Y-44142D01*
X46383Y-44342D01*
X44130Y-42996D02*
X44138Y-43005D01*
X44164Y-43015D01*
X44181Y-43015D01*
X44207Y-43005D01*
X44224Y-42986D01*
X44232Y-42967D01*
X44241Y-42929D01*
X44241Y-42901D01*
X44232Y-42863D01*
X44224Y-42844D01*
X44207Y-42825D01*
X44181Y-42815D01*
X44164Y-42815D01*
X44138Y-42825D01*
X44130Y-42834D01*
X43975Y-42815D02*
X44010Y-42815D01*
X44027Y-42825D01*
X44035Y-42834D01*
X44052Y-42863D01*
X44061Y-42901D01*
X44061Y-42977D01*
X44052Y-42996D01*
X44044Y-43005D01*
X44027Y-43015D01*
X43992Y-43015D01*
X43975Y-43005D01*
X43967Y-42996D01*
X43958Y-42977D01*
X43958Y-42929D01*
X43967Y-42910D01*
X43975Y-42901D01*
X43992Y-42891D01*
X44027Y-42891D01*
X44044Y-42901D01*
X44052Y-42910D01*
X44061Y-42929D01*
X54879Y-41547D02*
X54939Y-41451D01*
X54982Y-41547D02*
X54982Y-41347D01*
X54913Y-41347D01*
X54896Y-41356D01*
X54888Y-41366D01*
X54879Y-41385D01*
X54879Y-41413D01*
X54888Y-41432D01*
X54896Y-41442D01*
X54913Y-41451D01*
X54982Y-41451D01*
X54810Y-41366D02*
X54802Y-41356D01*
X54785Y-41347D01*
X54742Y-41347D01*
X54725Y-41356D01*
X54716Y-41366D01*
X54708Y-41385D01*
X54708Y-41404D01*
X54716Y-41432D01*
X54819Y-41547D01*
X54708Y-41547D01*
X54553Y-41347D02*
X54588Y-41347D01*
X54605Y-41356D01*
X54613Y-41366D01*
X54630Y-41394D01*
X54639Y-41432D01*
X54639Y-41509D01*
X54630Y-41528D01*
X54622Y-41537D01*
X54605Y-41547D01*
X54570Y-41547D01*
X54553Y-41537D01*
X54545Y-41528D01*
X54536Y-41509D01*
X54536Y-41461D01*
X54545Y-41442D01*
X54553Y-41432D01*
X54570Y-41423D01*
X54605Y-41423D01*
X54622Y-41432D01*
X54630Y-41442D01*
X54639Y-41461D01*
X55355Y-43359D02*
X55415Y-43263D01*
X55458Y-43359D02*
X55458Y-43159D01*
X55390Y-43159D01*
X55372Y-43168D01*
X55364Y-43178D01*
X55355Y-43197D01*
X55355Y-43225D01*
X55364Y-43244D01*
X55372Y-43254D01*
X55390Y-43263D01*
X55458Y-43263D01*
X55287Y-43178D02*
X55278Y-43168D01*
X55261Y-43159D01*
X55218Y-43159D01*
X55201Y-43168D01*
X55192Y-43178D01*
X55184Y-43197D01*
X55184Y-43216D01*
X55192Y-43244D01*
X55295Y-43359D01*
X55184Y-43359D01*
X55021Y-43159D02*
X55107Y-43159D01*
X55115Y-43254D01*
X55107Y-43244D01*
X55090Y-43235D01*
X55047Y-43235D01*
X55030Y-43244D01*
X55021Y-43254D01*
X55012Y-43273D01*
X55012Y-43321D01*
X55021Y-43340D01*
X55030Y-43349D01*
X55047Y-43359D01*
X55090Y-43359D01*
X55107Y-43349D01*
X55115Y-43340D01*
X57202Y-42610D02*
X57262Y-42514D01*
X57305Y-42610D02*
X57305Y-42410D01*
X57236Y-42410D01*
X57219Y-42419D01*
X57210Y-42429D01*
X57202Y-42448D01*
X57202Y-42476D01*
X57210Y-42495D01*
X57219Y-42505D01*
X57236Y-42514D01*
X57305Y-42514D01*
X57133Y-42429D02*
X57125Y-42419D01*
X57108Y-42410D01*
X57065Y-42410D01*
X57048Y-42419D01*
X57039Y-42429D01*
X57030Y-42448D01*
X57030Y-42467D01*
X57039Y-42495D01*
X57142Y-42610D01*
X57030Y-42610D01*
X56962Y-42429D02*
X56953Y-42419D01*
X56936Y-42410D01*
X56893Y-42410D01*
X56876Y-42419D01*
X56868Y-42429D01*
X56859Y-42448D01*
X56859Y-42467D01*
X56868Y-42495D01*
X56970Y-42610D01*
X56859Y-42610D01*
X55430Y-41232D02*
X55490Y-41136D01*
X55533Y-41232D02*
X55533Y-41032D01*
X55464Y-41032D01*
X55447Y-41041D01*
X55439Y-41051D01*
X55430Y-41070D01*
X55430Y-41098D01*
X55439Y-41117D01*
X55447Y-41127D01*
X55464Y-41136D01*
X55533Y-41136D01*
X55362Y-41051D02*
X55353Y-41041D01*
X55336Y-41032D01*
X55293Y-41032D01*
X55276Y-41041D01*
X55267Y-41051D01*
X55259Y-41070D01*
X55259Y-41089D01*
X55267Y-41117D01*
X55370Y-41232D01*
X55259Y-41232D01*
X55087Y-41232D02*
X55190Y-41232D01*
X55139Y-41232D02*
X55139Y-41032D01*
X55156Y-41060D01*
X55173Y-41079D01*
X55190Y-41089D01*
X47430Y-43793D02*
X47490Y-43697D01*
X47532Y-43793D02*
X47532Y-43593D01*
X47464Y-43593D01*
X47447Y-43602D01*
X47438Y-43612D01*
X47430Y-43631D01*
X47430Y-43659D01*
X47438Y-43678D01*
X47447Y-43688D01*
X47464Y-43697D01*
X47532Y-43697D01*
X47370Y-43593D02*
X47258Y-43593D01*
X47318Y-43669D01*
X47292Y-43669D01*
X47275Y-43678D01*
X47267Y-43688D01*
X47258Y-43707D01*
X47258Y-43755D01*
X47267Y-43774D01*
X47275Y-43783D01*
X47292Y-43793D01*
X47344Y-43793D01*
X47361Y-43783D01*
X47370Y-43774D01*
X49439Y-44578D02*
X49499Y-44483D01*
X49542Y-44578D02*
X49542Y-44378D01*
X49473Y-44378D01*
X49456Y-44388D01*
X49448Y-44397D01*
X49439Y-44416D01*
X49439Y-44445D01*
X49448Y-44464D01*
X49456Y-44473D01*
X49473Y-44483D01*
X49542Y-44483D01*
X49285Y-44445D02*
X49285Y-44578D01*
X49328Y-44369D02*
X49370Y-44511D01*
X49259Y-44511D01*
X57629Y-44769D02*
X57689Y-44673D01*
X57732Y-44769D02*
X57732Y-44569D01*
X57663Y-44569D01*
X57646Y-44578D01*
X57638Y-44588D01*
X57629Y-44607D01*
X57629Y-44635D01*
X57638Y-44654D01*
X57646Y-44664D01*
X57663Y-44673D01*
X57732Y-44673D01*
X57458Y-44769D02*
X57560Y-44769D01*
X57509Y-44769D02*
X57509Y-44569D01*
X57526Y-44597D01*
X57543Y-44616D01*
X57560Y-44626D01*
X57286Y-44769D02*
X57389Y-44769D01*
X57338Y-44769D02*
X57338Y-44569D01*
X57355Y-44597D01*
X57372Y-44616D01*
X57389Y-44626D01*
G54D23*
X48370Y-39764D02*
X48370Y-39567D01*
X48295Y-39567D01*
X48276Y-39576D01*
X48267Y-39585D01*
X48257Y-39604D01*
X48257Y-39632D01*
X48267Y-39651D01*
X48276Y-39660D01*
X48295Y-39670D01*
X48370Y-39670D01*
X48182Y-39585D02*
X48173Y-39576D01*
X48154Y-39567D01*
X48107Y-39567D01*
X48089Y-39576D01*
X48079Y-39585D01*
X48070Y-39604D01*
X48070Y-39623D01*
X48079Y-39651D01*
X48192Y-39764D01*
X48070Y-39764D01*
G54D13*
X42347Y-41013D02*
X42347Y-40713D01*
X42275Y-40713D01*
X42233Y-40727D01*
X42204Y-40756D01*
X42190Y-40785D01*
X42175Y-40842D01*
X42175Y-40885D01*
X42190Y-40942D01*
X42204Y-40970D01*
X42233Y-40999D01*
X42275Y-41013D01*
X42347Y-41013D01*
X42004Y-40842D02*
X42033Y-40827D01*
X42047Y-40813D01*
X42061Y-40785D01*
X42061Y-40770D01*
X42047Y-40742D01*
X42033Y-40727D01*
X42004Y-40713D01*
X41947Y-40713D01*
X41918Y-40727D01*
X41904Y-40742D01*
X41890Y-40770D01*
X41890Y-40785D01*
X41904Y-40813D01*
X41918Y-40827D01*
X41947Y-40842D01*
X42004Y-40842D01*
X42033Y-40856D01*
X42047Y-40870D01*
X42061Y-40899D01*
X42061Y-40956D01*
X42047Y-40985D01*
X42033Y-40999D01*
X42004Y-41013D01*
X41947Y-41013D01*
X41918Y-40999D01*
X41904Y-40985D01*
X41890Y-40956D01*
X41890Y-40899D01*
X41904Y-40870D01*
X41918Y-40856D01*
X41947Y-40842D01*
X42318Y-42013D02*
X42461Y-42013D01*
X42461Y-41713D01*
X42218Y-41856D02*
X42118Y-41856D01*
X42075Y-42013D02*
X42218Y-42013D01*
X42218Y-41713D01*
X42075Y-41713D01*
X41947Y-42013D02*
X41947Y-41713D01*
X41875Y-41713D01*
X41833Y-41727D01*
X41804Y-41756D01*
X41790Y-41785D01*
X41775Y-41842D01*
X41775Y-41885D01*
X41790Y-41942D01*
X41804Y-41970D01*
X41833Y-41999D01*
X41875Y-42013D01*
X41947Y-42013D01*
G54D24*
X51807Y-44767D02*
X51826Y-44786D01*
X51883Y-44805D01*
X51921Y-44805D01*
X51978Y-44786D01*
X52016Y-44748D01*
X52035Y-44710D01*
X52054Y-44634D01*
X52054Y-44577D01*
X52035Y-44501D01*
X52016Y-44463D01*
X51978Y-44425D01*
X51921Y-44405D01*
X51883Y-44405D01*
X51826Y-44425D01*
X51807Y-44444D01*
X51654Y-44444D02*
X51635Y-44425D01*
X51597Y-44405D01*
X51502Y-44405D01*
X51464Y-44425D01*
X51445Y-44444D01*
X51426Y-44482D01*
X51426Y-44520D01*
X51445Y-44577D01*
X51673Y-44805D01*
X51426Y-44805D01*
X51178Y-44405D02*
X51140Y-44405D01*
X51102Y-44425D01*
X51083Y-44444D01*
X51064Y-44482D01*
X51045Y-44558D01*
X51045Y-44653D01*
X51064Y-44729D01*
X51083Y-44767D01*
X51102Y-44786D01*
X51140Y-44805D01*
X51178Y-44805D01*
X51216Y-44786D01*
X51235Y-44767D01*
X51254Y-44729D01*
X51273Y-44653D01*
X51273Y-44558D01*
X51254Y-44482D01*
X51235Y-44444D01*
X51216Y-44425D01*
X51178Y-44405D01*
G54D13*
X51425Y-41057D02*
X51439Y-41071D01*
X51482Y-41085D01*
X51510Y-41085D01*
X51553Y-41071D01*
X51582Y-41042D01*
X51596Y-41014D01*
X51610Y-40957D01*
X51610Y-40914D01*
X51596Y-40857D01*
X51582Y-40828D01*
X51553Y-40800D01*
X51510Y-40785D01*
X51482Y-40785D01*
X51439Y-40800D01*
X51425Y-40814D01*
X51139Y-41085D02*
X51310Y-41085D01*
X51225Y-41085D02*
X51225Y-40785D01*
X51253Y-40828D01*
X51282Y-40857D01*
X51310Y-40871D01*
G54D21*
X46572Y-40538D02*
X46582Y-40547D01*
X46610Y-40557D01*
X46629Y-40557D01*
X46657Y-40547D01*
X46676Y-40529D01*
X46685Y-40510D01*
X46694Y-40472D01*
X46694Y-40444D01*
X46685Y-40407D01*
X46676Y-40388D01*
X46657Y-40369D01*
X46629Y-40360D01*
X46610Y-40360D01*
X46582Y-40369D01*
X46572Y-40379D01*
X46479Y-40557D02*
X46441Y-40557D01*
X46422Y-40547D01*
X46413Y-40538D01*
X46394Y-40510D01*
X46385Y-40472D01*
X46385Y-40397D01*
X46394Y-40379D01*
X46403Y-40369D01*
X46422Y-40360D01*
X46460Y-40360D01*
X46479Y-40369D01*
X46488Y-40379D01*
X46497Y-40397D01*
X46497Y-40444D01*
X46488Y-40463D01*
X46479Y-40472D01*
X46460Y-40482D01*
X46422Y-40482D01*
X46403Y-40472D01*
X46394Y-40463D01*
X46385Y-40444D01*
X55846Y-38998D02*
X55855Y-39007D01*
X55883Y-39017D01*
X55902Y-39017D01*
X55930Y-39007D01*
X55949Y-38989D01*
X55958Y-38970D01*
X55968Y-38932D01*
X55968Y-38904D01*
X55958Y-38867D01*
X55949Y-38848D01*
X55930Y-38829D01*
X55902Y-38820D01*
X55883Y-38820D01*
X55855Y-38829D01*
X55846Y-38839D01*
X55658Y-39017D02*
X55771Y-39017D01*
X55714Y-39017D02*
X55714Y-38820D01*
X55733Y-38848D01*
X55752Y-38867D01*
X55771Y-38876D01*
X55480Y-38820D02*
X55574Y-38820D01*
X55583Y-38914D01*
X55574Y-38904D01*
X55555Y-38895D01*
X55508Y-38895D01*
X55489Y-38904D01*
X55480Y-38914D01*
X55471Y-38932D01*
X55471Y-38979D01*
X55480Y-38998D01*
X55489Y-39007D01*
X55508Y-39017D01*
X55555Y-39017D01*
X55574Y-39007D01*
X55583Y-38998D01*
X48851Y-45779D02*
X48861Y-45788D01*
X48889Y-45797D01*
X48908Y-45797D01*
X48936Y-45788D01*
X48954Y-45769D01*
X48964Y-45750D01*
X48973Y-45713D01*
X48973Y-45685D01*
X48964Y-45647D01*
X48954Y-45628D01*
X48936Y-45610D01*
X48908Y-45600D01*
X48889Y-45600D01*
X48861Y-45610D01*
X48851Y-45619D01*
X48673Y-45600D02*
X48767Y-45600D01*
X48776Y-45694D01*
X48767Y-45685D01*
X48748Y-45675D01*
X48701Y-45675D01*
X48682Y-45685D01*
X48673Y-45694D01*
X48664Y-45713D01*
X48664Y-45760D01*
X48673Y-45779D01*
X48682Y-45788D01*
X48701Y-45797D01*
X48748Y-45797D01*
X48767Y-45788D01*
X48776Y-45779D01*
X60441Y-45660D02*
X60450Y-45670D01*
X60479Y-45679D01*
X60497Y-45679D01*
X60526Y-45670D01*
X60544Y-45651D01*
X60554Y-45632D01*
X60563Y-45595D01*
X60563Y-45567D01*
X60554Y-45529D01*
X60544Y-45510D01*
X60526Y-45492D01*
X60497Y-45482D01*
X60479Y-45482D01*
X60450Y-45492D01*
X60441Y-45501D01*
X60253Y-45679D02*
X60366Y-45679D01*
X60310Y-45679D02*
X60310Y-45482D01*
X60329Y-45510D01*
X60347Y-45529D01*
X60366Y-45538D01*
X60178Y-45501D02*
X60169Y-45492D01*
X60150Y-45482D01*
X60103Y-45482D01*
X60085Y-45492D01*
X60075Y-45501D01*
X60066Y-45520D01*
X60066Y-45538D01*
X60075Y-45567D01*
X60188Y-45679D01*
X60066Y-45679D01*
G54D22*
X58255Y-43981D02*
X58315Y-43885D01*
X58358Y-43981D02*
X58358Y-43781D01*
X58289Y-43781D01*
X58272Y-43790D01*
X58263Y-43800D01*
X58255Y-43819D01*
X58255Y-43847D01*
X58263Y-43866D01*
X58272Y-43876D01*
X58289Y-43885D01*
X58358Y-43885D01*
X58195Y-43781D02*
X58083Y-43781D01*
X58143Y-43857D01*
X58118Y-43857D01*
X58101Y-43866D01*
X58092Y-43876D01*
X58083Y-43895D01*
X58083Y-43943D01*
X58092Y-43962D01*
X58101Y-43971D01*
X58118Y-43981D01*
X58169Y-43981D01*
X58186Y-43971D01*
X58195Y-43962D01*
X57972Y-43781D02*
X57955Y-43781D01*
X57938Y-43790D01*
X57929Y-43800D01*
X57921Y-43819D01*
X57912Y-43857D01*
X57912Y-43904D01*
X57921Y-43943D01*
X57929Y-43962D01*
X57938Y-43971D01*
X57955Y-43981D01*
X57972Y-43981D01*
X57989Y-43971D01*
X57998Y-43962D01*
X58006Y-43943D01*
X58015Y-43904D01*
X58015Y-43857D01*
X58006Y-43819D01*
X57998Y-43800D01*
X57989Y-43790D01*
X57972Y-43781D01*
G54D21*
X54575Y-44440D02*
X54584Y-44449D01*
X54612Y-44459D01*
X54631Y-44459D01*
X54659Y-44449D01*
X54678Y-44431D01*
X54688Y-44412D01*
X54697Y-44374D01*
X54697Y-44346D01*
X54688Y-44309D01*
X54678Y-44290D01*
X54659Y-44271D01*
X54631Y-44262D01*
X54612Y-44262D01*
X54584Y-44271D01*
X54575Y-44280D01*
X54500Y-44280D02*
X54491Y-44271D01*
X54472Y-44262D01*
X54425Y-44262D01*
X54406Y-44271D01*
X54397Y-44280D01*
X54387Y-44299D01*
X54387Y-44318D01*
X54397Y-44346D01*
X54509Y-44459D01*
X54387Y-44459D01*
X54294Y-44459D02*
X54256Y-44459D01*
X54237Y-44449D01*
X54228Y-44440D01*
X54209Y-44412D01*
X54200Y-44374D01*
X54200Y-44299D01*
X54209Y-44280D01*
X54218Y-44271D01*
X54237Y-44262D01*
X54275Y-44262D01*
X54294Y-44271D01*
X54303Y-44280D01*
X54312Y-44299D01*
X54312Y-44346D01*
X54303Y-44365D01*
X54294Y-44374D01*
X54275Y-44384D01*
X54237Y-44384D01*
X54218Y-44374D01*
X54209Y-44365D01*
X54200Y-44346D01*
X58402Y-40633D02*
X58411Y-40624D01*
X58421Y-40596D01*
X58421Y-40577D01*
X58411Y-40549D01*
X58393Y-40530D01*
X58374Y-40521D01*
X58336Y-40511D01*
X58308Y-40511D01*
X58271Y-40521D01*
X58252Y-40530D01*
X58233Y-40549D01*
X58224Y-40577D01*
X58224Y-40596D01*
X58233Y-40624D01*
X58243Y-40633D01*
X58243Y-40708D02*
X58233Y-40718D01*
X58224Y-40736D01*
X58224Y-40783D01*
X58233Y-40802D01*
X58243Y-40811D01*
X58261Y-40821D01*
X58280Y-40821D01*
X58308Y-40811D01*
X58421Y-40699D01*
X58421Y-40821D01*
X58243Y-40896D02*
X58233Y-40905D01*
X58224Y-40924D01*
X58224Y-40971D01*
X58233Y-40990D01*
X58243Y-40999D01*
X58261Y-41008D01*
X58280Y-41008D01*
X58308Y-40999D01*
X58421Y-40886D01*
X58421Y-41008D01*
X52923Y-42171D02*
X52923Y-42078D01*
X52726Y-42078D01*
X52726Y-42331D02*
X52726Y-42237D01*
X52820Y-42228D01*
X52811Y-42237D01*
X52801Y-42256D01*
X52801Y-42303D01*
X52811Y-42321D01*
X52820Y-42331D01*
X52839Y-42340D01*
X52886Y-42340D01*
X52905Y-42331D01*
X52914Y-42321D01*
X52923Y-42303D01*
X52923Y-42256D01*
X52914Y-42237D01*
X52905Y-42228D01*
X59417Y-41448D02*
X59427Y-41457D01*
X59455Y-41467D01*
X59474Y-41467D01*
X59502Y-41457D01*
X59521Y-41438D01*
X59530Y-41420D01*
X59539Y-41382D01*
X59539Y-41354D01*
X59530Y-41316D01*
X59521Y-41298D01*
X59502Y-41279D01*
X59474Y-41270D01*
X59455Y-41270D01*
X59427Y-41279D01*
X59417Y-41288D01*
X59230Y-41467D02*
X59342Y-41467D01*
X59286Y-41467D02*
X59286Y-41270D01*
X59305Y-41298D01*
X59324Y-41316D01*
X59342Y-41326D01*
X59117Y-41354D02*
X59136Y-41345D01*
X59145Y-41335D01*
X59155Y-41316D01*
X59155Y-41307D01*
X59145Y-41288D01*
X59136Y-41279D01*
X59117Y-41270D01*
X59080Y-41270D01*
X59061Y-41279D01*
X59052Y-41288D01*
X59042Y-41307D01*
X59042Y-41316D01*
X59052Y-41335D01*
X59061Y-41345D01*
X59080Y-41354D01*
X59117Y-41354D01*
X59136Y-41363D01*
X59145Y-41373D01*
X59155Y-41392D01*
X59155Y-41429D01*
X59145Y-41448D01*
X59136Y-41457D01*
X59117Y-41467D01*
X59080Y-41467D01*
X59061Y-41457D01*
X59052Y-41448D01*
X59042Y-41429D01*
X59042Y-41392D01*
X59052Y-41373D01*
X59061Y-41363D01*
X59080Y-41354D01*
G54D25*
X59688Y-43714D02*
X59717Y-43700D01*
X59745Y-43671D01*
X59788Y-43628D01*
X59817Y-43614D01*
X59845Y-43614D01*
X59831Y-43685D02*
X59860Y-43671D01*
X59888Y-43642D01*
X59902Y-43585D01*
X59902Y-43485D01*
X59888Y-43428D01*
X59860Y-43400D01*
X59831Y-43385D01*
X59774Y-43385D01*
X59745Y-43400D01*
X59717Y-43428D01*
X59702Y-43485D01*
X59702Y-43585D01*
X59717Y-43642D01*
X59745Y-43671D01*
X59774Y-43685D01*
X59831Y-43685D01*
X59417Y-43685D02*
X59588Y-43685D01*
X59502Y-43685D02*
X59502Y-43385D01*
X59531Y-43428D01*
X59560Y-43457D01*
X59588Y-43471D01*
G54D22*
X58750Y-43664D02*
X58655Y-43604D01*
X58750Y-43561D02*
X58550Y-43561D01*
X58550Y-43630D01*
X58560Y-43647D01*
X58569Y-43655D01*
X58588Y-43664D01*
X58617Y-43664D01*
X58636Y-43655D01*
X58645Y-43647D01*
X58655Y-43630D01*
X58655Y-43561D01*
X58569Y-43732D02*
X58560Y-43741D01*
X58550Y-43758D01*
X58550Y-43801D01*
X58560Y-43818D01*
X58569Y-43827D01*
X58588Y-43835D01*
X58607Y-43835D01*
X58636Y-43827D01*
X58750Y-43724D01*
X58750Y-43835D01*
X58550Y-43947D02*
X58550Y-43964D01*
X58560Y-43981D01*
X58569Y-43990D01*
X58588Y-43998D01*
X58626Y-44007D01*
X58674Y-44007D01*
X58712Y-43998D01*
X58731Y-43990D01*
X58740Y-43981D01*
X58750Y-43964D01*
X58750Y-43947D01*
X58740Y-43930D01*
X58731Y-43921D01*
X58712Y-43912D01*
X58674Y-43904D01*
X58626Y-43904D01*
X58588Y-43912D01*
X58569Y-43921D01*
X58560Y-43930D01*
X58550Y-43947D01*
G54D10*
X58405Y-37778D02*
X58593Y-37778D01*
X58593Y-37384D01*
X58105Y-37515D02*
X58105Y-37778D01*
X58199Y-37365D02*
X58293Y-37646D01*
X58049Y-37646D01*
X53865Y-38318D02*
X54053Y-38318D01*
X54053Y-37924D01*
X53771Y-37924D02*
X53528Y-37924D01*
X53659Y-38074D01*
X53603Y-38074D01*
X53565Y-38093D01*
X53546Y-38111D01*
X53528Y-38149D01*
X53528Y-38243D01*
X53546Y-38280D01*
X53565Y-38299D01*
X53603Y-38318D01*
X53715Y-38318D01*
X53753Y-38299D01*
X53771Y-38280D01*
G54D20*
X49110Y-38498D02*
X49110Y-38104D01*
X49016Y-38104D01*
X48960Y-38123D01*
X48923Y-38160D01*
X48904Y-38198D01*
X48885Y-38273D01*
X48885Y-38329D01*
X48904Y-38404D01*
X48923Y-38441D01*
X48960Y-38479D01*
X49016Y-38498D01*
X49110Y-38498D01*
X48754Y-38104D02*
X48510Y-38104D01*
X48641Y-38254D01*
X48585Y-38254D01*
X48548Y-38273D01*
X48529Y-38291D01*
X48510Y-38329D01*
X48510Y-38423D01*
X48529Y-38460D01*
X48548Y-38479D01*
X48585Y-38498D01*
X48698Y-38498D01*
X48735Y-38479D01*
X48754Y-38460D01*
X47298Y-38649D02*
X46904Y-38649D01*
X46904Y-38743D01*
X46923Y-38799D01*
X46960Y-38836D01*
X46998Y-38855D01*
X47073Y-38874D01*
X47129Y-38874D01*
X47204Y-38855D01*
X47241Y-38836D01*
X47279Y-38799D01*
X47298Y-38743D01*
X47298Y-38649D01*
X46941Y-39024D02*
X46923Y-39043D01*
X46904Y-39080D01*
X46904Y-39174D01*
X46923Y-39211D01*
X46941Y-39230D01*
X46979Y-39249D01*
X47016Y-39249D01*
X47073Y-39230D01*
X47298Y-39005D01*
X47298Y-39249D01*
X49310Y-42138D02*
X49310Y-41744D01*
X49216Y-41744D01*
X49160Y-41763D01*
X49123Y-41800D01*
X49104Y-41838D01*
X49085Y-41913D01*
X49085Y-41969D01*
X49104Y-42044D01*
X49123Y-42081D01*
X49160Y-42119D01*
X49216Y-42138D01*
X49310Y-42138D01*
X48748Y-41875D02*
X48748Y-42138D01*
X48841Y-41725D02*
X48935Y-42006D01*
X48691Y-42006D01*
X51070Y-40498D02*
X51070Y-40104D01*
X50976Y-40104D01*
X50920Y-40123D01*
X50883Y-40160D01*
X50864Y-40198D01*
X50845Y-40273D01*
X50845Y-40329D01*
X50864Y-40404D01*
X50883Y-40441D01*
X50920Y-40479D01*
X50976Y-40498D01*
X51070Y-40498D01*
X50489Y-40104D02*
X50676Y-40104D01*
X50695Y-40291D01*
X50676Y-40273D01*
X50639Y-40254D01*
X50545Y-40254D01*
X50508Y-40273D01*
X50489Y-40291D01*
X50470Y-40329D01*
X50470Y-40423D01*
X50489Y-40460D01*
X50508Y-40479D01*
X50545Y-40498D01*
X50639Y-40498D01*
X50676Y-40479D01*
X50695Y-40460D01*
X45590Y-43238D02*
X45590Y-42844D01*
X45496Y-42844D01*
X45440Y-42863D01*
X45403Y-42900D01*
X45384Y-42938D01*
X45365Y-43013D01*
X45365Y-43069D01*
X45384Y-43144D01*
X45403Y-43181D01*
X45440Y-43219D01*
X45496Y-43238D01*
X45590Y-43238D01*
X44990Y-43238D02*
X45215Y-43238D01*
X45103Y-43238D02*
X45103Y-42844D01*
X45140Y-42900D01*
X45178Y-42938D01*
X45215Y-42956D01*
X60030Y-37778D02*
X60030Y-37384D01*
X59936Y-37384D01*
X59880Y-37403D01*
X59843Y-37440D01*
X59824Y-37478D01*
X59805Y-37553D01*
X59805Y-37609D01*
X59824Y-37684D01*
X59843Y-37721D01*
X59880Y-37759D01*
X59936Y-37778D01*
X60030Y-37778D01*
X59468Y-37384D02*
X59543Y-37384D01*
X59580Y-37403D01*
X59599Y-37421D01*
X59636Y-37478D01*
X59655Y-37553D01*
X59655Y-37703D01*
X59636Y-37740D01*
X59618Y-37759D01*
X59580Y-37778D01*
X59505Y-37778D01*
X59468Y-37759D01*
X59449Y-37740D01*
X59430Y-37703D01*
X59430Y-37609D01*
X59449Y-37571D01*
X59468Y-37553D01*
X59505Y-37534D01*
X59580Y-37534D01*
X59618Y-37553D01*
X59636Y-37571D01*
X59655Y-37609D01*
G54D10*
X56992Y-39400D02*
X56992Y-39719D01*
X56974Y-39756D01*
X56955Y-39775D01*
X56917Y-39794D01*
X56842Y-39794D01*
X56805Y-39775D01*
X56786Y-39756D01*
X56767Y-39719D01*
X56767Y-39400D01*
X56524Y-39569D02*
X56561Y-39550D01*
X56580Y-39531D01*
X56599Y-39494D01*
X56599Y-39475D01*
X56580Y-39438D01*
X56561Y-39419D01*
X56524Y-39400D01*
X56449Y-39400D01*
X56411Y-39419D01*
X56392Y-39438D01*
X56374Y-39475D01*
X56374Y-39494D01*
X56392Y-39531D01*
X56411Y-39550D01*
X56449Y-39569D01*
X56524Y-39569D01*
X56561Y-39588D01*
X56580Y-39606D01*
X56599Y-39644D01*
X56599Y-39719D01*
X56580Y-39756D01*
X56561Y-39775D01*
X56524Y-39794D01*
X56449Y-39794D01*
X56411Y-39775D01*
X56392Y-39756D01*
X56374Y-39719D01*
X56374Y-39644D01*
X56392Y-39606D01*
X56411Y-39588D01*
X56449Y-39569D01*
%LPC*%
G54D26*
X55877Y-45079D03*
X55877Y-44329D03*
X56877Y-45079D03*
X55877Y-44704D03*
X56877Y-44329D03*
G54D27*
X46967Y-44224D03*
X47717Y-44224D03*
X46967Y-45224D03*
X47342Y-44224D03*
X47717Y-45224D03*
G54D28*
X45413Y-42066D03*
X47303Y-42066D03*
X46020Y-45175D03*
X44130Y-45175D03*
G54D29*
X41750Y-39409D03*
X42500Y-39409D03*
X41750Y-43346D03*
X42500Y-43346D03*
G54D30*
X57060Y-38780D03*
X57060Y-38180D03*
X56360Y-42080D03*
X56360Y-41480D03*
X46450Y-43200D03*
X46450Y-43800D03*
X44100Y-43925D03*
X44100Y-43325D03*
G54D31*
X55240Y-41560D03*
X55840Y-41560D03*
G54D30*
X55240Y-42860D03*
X55240Y-42260D03*
X57100Y-41480D03*
X57100Y-42080D03*
X55314Y-40192D03*
X55314Y-40792D03*
G54D31*
X47100Y-43250D03*
X47700Y-43250D03*
X48375Y-44475D03*
X48975Y-44475D03*
G54D30*
X57480Y-45078D03*
X57480Y-45678D03*
G54D32*
X48728Y-40393D03*
G54D33*
X47728Y-40393D03*
G54D34*
X42538Y-41377D03*
X41712Y-41377D03*
G54D33*
X50574Y-45314D03*
X52574Y-45314D03*
G54D35*
X46094Y-36940D03*
G54D36*
X46094Y-37940D03*
X45094Y-36940D03*
X45094Y-37940D03*
X44094Y-36940D03*
X44094Y-37940D03*
X43094Y-36940D03*
X43094Y-37940D03*
X42094Y-36940D03*
X42094Y-37940D03*
G54D37*
X51977Y-41732D03*
X50777Y-41732D03*
G54D29*
X46165Y-40980D03*
X46915Y-40980D03*
X55325Y-39440D03*
X56075Y-39440D03*
X48443Y-45216D03*
X49193Y-45216D03*
X58975Y-45433D03*
X59725Y-45433D03*
G54D30*
X58120Y-44260D03*
X58120Y-44860D03*
G54D38*
X54429Y-45532D03*
X54429Y-44782D03*
X57840Y-40405D03*
X57840Y-41155D03*
X53346Y-41810D03*
X53346Y-42560D03*
G54D29*
X59882Y-40826D03*
X59132Y-40826D03*
G54D39*
X60010Y-44000D03*
X59310Y-44000D03*
X59660Y-44800D03*
G54D30*
X58760Y-44860D03*
X58760Y-44260D03*
G54D40*
X58346Y-38287D03*
X58346Y-39704D03*
X54015Y-40216D03*
X54015Y-38799D03*
G54D41*
X49283Y-38900D03*
X48416Y-38900D03*
X47736Y-39350D03*
X47736Y-38484D03*
X48591Y-41375D03*
X49458Y-41375D03*
X50125Y-39366D03*
X50125Y-40233D03*
X45733Y-43600D03*
X44866Y-43600D03*
G54D42*
X59940Y-38273D03*
X59940Y-40006D03*
G54D43*
X56500Y-40187D03*
X56500Y-40500D03*
G54D44*
X57090Y-40106D03*
X57090Y-40303D03*
G54D45*
X57090Y-40500D03*
G54D44*
X57090Y-40696D03*
X57090Y-40893D03*
X55909Y-40893D03*
X55909Y-40696D03*
X55909Y-40500D03*
X55909Y-40303D03*
X55909Y-40106D03*
G54D43*
X56500Y-40812D03*
M02*
